<svg width="11" height="11" viewBox="0 0 11 11" fill="none" xmlns="http://www.w3.org/2000/svg">
<path d="M10.56 0H0.44C0.196625 0 0 0.196625 0 0.44V10.56C0 10.8034 0.196625 11 0.44 11H10.56C10.8034 11 11 10.8034 11 10.56V0.44C11 0.196625 10.8034 0 10.56 0ZM9.2895 3.21062H8.41088C7.722 3.21062 7.58863 3.53787 7.58863 4.01912V5.07925H9.23312L9.01863 6.73887H7.58863V11H5.874V6.74025H4.43988V5.07925H5.874V3.8555C5.874 2.43512 6.74162 1.661 8.00937 1.661C8.61712 1.661 9.13825 1.70638 9.29088 1.727V3.21062H9.2895Z" fill="white"/>
</svg>
