<svg width="308" height="188" viewBox="0 0 308 188" fill="none" xmlns="http://www.w3.org/2000/svg">
<path d="M242.574 162.508C242.228 161.675 241.604 160.986 240.761 160.665C240.214 160.456 239.68 160.256 239.144 160.063C238.998 160.011 238.811 160.089 238.642 160.099C238.224 160.125 237.717 160.319 237.406 160.137C236.744 159.756 236.143 159.752 235.454 159.955C234.018 160.379 234.018 160.355 233.337 158.934C232.997 158.16 232.615 157.409 232.192 156.684C231.358 155.35 230.436 154.083 229.602 152.746C229.141 152.017 228.823 151.179 228.336 150.472C227.849 149.766 227.226 149.126 226.648 148.471C225.953 147.683 225.15 147.448 224.191 147.929C224.056 147.997 223.821 147.885 223.653 147.823C222.855 147.541 222.074 147.172 221.247 146.99C220.842 146.902 220.37 147.146 219.931 147.25C219.306 147.4 218.679 147.549 218.057 147.723C216.728 148.095 215.52 148.699 214.602 149.838C214.358 150.14 214.047 150.396 213.862 150.737C213.605 151.358 214.04 151.958 214.68 152.166C214.752 152.189 214.794 152.21 214.793 152.228C214.745 152.998 215.948 153.464 215.252 154.349C213.733 156.284 213.607 158.752 212.996 161.033C212.937 161.251 212.845 161.548 212.93 161.71C213.485 162.756 212.783 163.211 212.158 163.729C211.69 164.117 211.233 164.529 210.807 164.956C210.456 165.31 210.15 166.03 209.823 166.032C209.005 166.032 208.096 165.898 207.393 165.488C206.639 165.031 205.761 164.874 204.91 165.042C204.18 165.171 203.432 165.099 202.734 164.832C200.86 164.013 199.291 164.521 198.362 166.525C198.067 167.159 197.675 167.453 197.066 167.672C195.512 168.234 194.004 168.948 192.441 169.473C191.765 169.695 190.986 169.673 190.266 169.605C189.114 169.514 187.968 169.344 186.836 169.098C186.39 168.998 185.964 168.636 185.6 168.298C184.876 167.642 184.349 166.679 183.229 166.697C183.198 166.694 183.169 166.678 183.148 166.653C182.058 165.134 180.33 165.392 178.868 165.004C178.165 164.818 177.273 165.138 176.54 165.436C175.128 166.012 173.824 165.524 172.516 165.142C171.666 164.892 170.449 162.74 170.373 161.752C170.345 161.397 170.153 160.891 169.896 160.751C167.81 159.646 165.69 158.612 163.582 157.549C163.206 157.363 162.75 157.475 162.496 157.809C161.783 158.745 161.02 159.688 160.453 160.749C160.172 161.277 160.359 162.244 160.599 162.898C160.943 163.841 160.746 165.158 159.933 165.682C158.924 166.337 157.622 166.195 156.488 165.792C155.685 165.507 154.837 165.374 153.982 165.404C153.196 165.416 152.393 165.086 151.621 164.824C151.436 164.76 151.292 164.375 151.218 164.109C150.739 162.358 150.674 162.294 148.911 162.214C148.351 162.188 148.148 162.179 147.98 161.962C147.712 161.616 147.437 161.268 147.026 161.118C146.634 160.974 146.207 161.001 145.822 161.165C145.732 161.204 145.64 161.239 145.547 161.269C145.08 161.428 144.605 161.555 144.124 161.65C143.709 161.732 143.286 161.757 142.865 161.726C142.487 161.689 142.18 161.662 142.03 161.974C141.919 162.204 141.927 162.491 141.75 162.676C141.663 162.768 141.556 162.834 141.439 162.87C141.245 162.904 141.072 162.934 140.916 162.962C139.001 163.312 137.343 164.639 135.397 164.588C135.268 164.588 135.133 164.824 135.003 164.954C134.83 165.142 134.622 165.288 134.391 165.38C134.161 165.472 133.915 165.508 133.671 165.486C133.426 165.464 133.189 165.385 132.976 165.254C132.763 165.122 132.579 164.942 132.437 164.726C132.432 164.719 132.428 164.713 132.424 164.707C131.714 163.638 130.542 163.063 129.274 162.858C128.129 162.658 127.918 161.658 127.531 160.681C126.886 159.136 126.155 157.634 125.342 156.184C124.972 155.49 124.341 155.195 123.512 155.446C121.17 156.152 119.997 155.544 119.033 153.218C118.909 152.92 118.535 152.818 118.262 152.991L117.821 153.27C117.231 153.644 116.449 153.306 116.316 152.62C116.129 151.657 115.96 150.781 115.798 149.902C115.393 147.679 115.082 145.429 114.571 143.234C114.307 142.097 113.709 141.046 113.239 139.968C112.982 139.376 112.697 138.799 112.404 138.186C112.313 137.995 112.362 137.767 112.523 137.63L112.615 137.552C112.817 137.379 112.814 136.874 112.558 136.946C111.55 137.224 110.565 137.686 109.544 137.806C108.317 137.95 107.114 139.315 105.801 137.958C105.763 137.92 105.716 137.893 105.661 137.873C105.066 137.66 104.237 137.485 104.504 136.914C104.604 136.701 104.777 136.497 104.92 136.285C105.075 136.054 105.05 135.755 104.887 135.53C104.655 135.21 104.391 135.003 104.054 135.051C103.668 135.106 103.193 134.99 103.186 134.6C103.243 133.8 102.827 133.748 102.216 133.662C101.778 133.602 101.312 133.219 101.006 132.843C100.856 132.657 101.03 132.157 101.084 131.802C101.239 130.802 101.434 129.801 101.541 128.8C101.56 128.636 101.16 128.236 101.04 128.272C100.366 128.472 100.14 128.012 99.7776 127.568C99.1504 126.801 98.4343 126.265 97.3092 126.587C96.3952 126.849 95.396 126.863 94.4375 126.833C93.44 126.768 92.447 126.639 91.4639 126.445C91.1602 126.387 90.8675 126.275 90.598 126.113C89.4528 125.456 87.7488 125.869 86.4834 125.494C85.7003 125.262 84.9118 125.073 84.1018 124.951C82.9155 124.772 81.7727 124.385 80.7741 123.72C80.5136 123.547 80.2433 123.381 79.9639 123.237C79.8213 123.163 79.527 123.423 79.2098 123.691C79.009 123.861 78.9873 124.175 79.1755 124.359C79.4156 124.593 79.2696 124.986 79.023 125.213C78.6764 125.533 78.874 126.011 79.257 126.575C79.5507 127.008 78.9649 127.5 78.5136 127.234C78.2919 127.104 78.0743 126.982 77.8526 126.869C77.2235 126.549 76.7424 126.869 76.5573 127.514C76.0595 129.149 75.8516 129.324 74.2188 129.119C74.1957 129.116 74.1716 129.115 74.1483 129.116C73.8506 129.126 73.6856 129.443 73.8109 129.713C74.1866 130.523 74.5477 131.299 74.9035 132.07C75.2633 132.849 75.2369 133.817 74.5801 134.369C74.1616 134.721 73.7596 134.875 73.376 134.883C71.7953 134.915 69.8445 134.107 68.9801 132.783C68.5563 132.133 67.9513 131.582 68.2621 130.582C68.4157 130.091 67.2222 129.295 66.6153 129.471C66.0084 129.647 65.753 129.521 65.4829 128.884C65.0832 127.938 63.4993 127.614 62.5815 128.124C62.0911 128.396 61.5804 128.494 61.227 127.824C60.9713 127.339 60.6924 126.871 60.4042 126.374C60.2771 126.155 59.9932 126.084 59.7796 126.22C59.5064 126.394 59.146 126.225 59.1073 125.904C58.9763 124.817 58.8642 123.756 58.6624 122.712C58.5625 122.2 58.2923 121.492 57.9093 121.312C57.368 121.065 57.0241 120.753 56.8888 120.305C56.7363 119.8 56.3879 119.298 55.8646 119.234C55.1782 119.102 54.5527 118.922 54.4065 117.987C54.2715 117.125 53.5128 116.943 52.9799 117.229C52.1657 117.661 51.4626 117.451 50.7188 117.229C50.2136 117.077 49.8121 116.955 49.4346 117.567C49.3026 117.782 49.0427 117.904 48.7165 117.942C47.7834 118.051 47.0017 118.493 46.3445 119.164C45.773 119.748 44.7673 119.074 44.5998 118.275C44.5886 118.221 44.5774 118.167 44.5662 118.114C44.3932 117.288 43.5388 116.765 42.7328 117.015C42.4667 117.097 42.2173 117.184 41.9758 117.291C41.4137 117.54 40.9695 117.899 40.7013 118.376C40.3046 119.083 39.8759 119.821 39.1447 120.171C38.3065 120.571 37.8106 121.037 38.1862 122.232C38.5871 123.494 38.7752 124.701 39.1656 125.966C39.2551 126.256 39.287 126.589 39.2409 126.979C39.1317 127.902 39.1003 128.836 39.067 129.767C39.0553 130.116 39.0134 130.426 38.8709 130.635C38.6056 131.023 38.0961 131.452 38.1757 131.916C38.2226 132.188 38.084 132.377 37.8484 132.522L35.9879 133.666C35.8271 133.765 35.6313 133.606 35.6951 133.428C35.7063 133.397 35.7173 133.367 35.7282 133.336C35.767 133.229 35.6734 133.124 35.5605 133.143C35.3015 133.187 34.9018 133.365 34.8037 133.251C33.9414 132.233 33.0107 132.629 32.0689 133.023C31.6499 133.198 31.2314 133.375 30.8126 133.553C29.6506 134.045 28.9435 135.237 29.0673 136.493C29.0945 136.768 29.1222 137.049 29.1505 137.336C29.2074 137.912 28.9439 138.489 28.4403 138.775C26.8656 139.659 26.7435 141.254 26.6824 142.871C26.6278 143.637 26.6278 144.406 26.6824 145.171C26.775 146.042 26.2587 146.43 25.6832 146.638C25.0004 146.86 24.2924 146.98 23.5794 146.992C23.3259 147.004 22.965 146.74 22.817 146.49C22.5698 146.103 22.4182 145.653 22.3766 145.185C22.3193 143.398 21.581 141.871 20.8741 140.322C20.7835 140.122 20.678 139.751 20.7557 139.681C21.8659 138.681 20.8871 137.748 20.5355 136.988C20.1654 136.187 19.4882 135.435 18.4871 135.295C17.9764 135.223 17.7618 134.912 17.6489 134.308C17.2529 132.205 16.5924 130.247 15.0769 128.658C14.235 127.776 13.7502 126.515 13.0211 125.494C12.724 125.078 12.2385 124.82 11.8222 124.502C11.779 124.469 11.7194 124.467 11.6751 124.498C11.5914 124.558 11.476 124.493 11.4804 124.391C11.4993 123.952 11.4948 123.513 11.4668 123.075C11.2559 121.474 10.8766 119.873 10.7989 118.272C10.7322 116.911 9.77005 115.79 10.0809 114.331C10.1616 113.955 9.9588 113.51 9.78713 113.086C9.69089 112.849 9.79205 112.586 10.0117 112.455L10.6477 112.074C10.6954 112.046 10.7208 111.965 10.7489 112.014C11.7407 113.665 12.1533 113.769 13.8945 112.892C14.1869 112.744 14.5958 112.856 14.8808 112.692C15.1657 112.528 15.5284 112.232 15.6024 111.925C15.7431 111.331 16.5069 110.936 17.0833 111.138C17.9164 111.431 18.8028 111.45 19.6208 111.724C19.7169 111.756 19.8223 111.715 19.863 111.622C19.8999 111.538 19.8699 111.438 19.7923 111.389L19.0712 110.937C18.3872 110.508 18.1877 109.369 18.897 108.984C18.9876 108.935 19.0788 108.901 19.1718 108.89C19.9619 108.791 20.7983 109.048 21.6013 109.224C21.8086 109.27 21.9566 109.584 22.1453 109.758C23.2352 110.775 24.4305 110.302 24.7581 108.777C24.9276 107.98 25.2987 106.948 26.0871 106.74C26.2982 106.685 26.568 106.713 26.9082 106.816C27.4745 106.99 27.6998 105.983 27.502 105.425C27.3726 105.06 27.2527 104.725 27.1284 104.391C26.7867 103.473 26.4363 102.556 26.0774 101.641C26.0459 101.559 25.9571 101.441 25.8923 101.441C24.9024 101.355 25.0412 100.538 25.1799 99.9517C25.4519 98.793 25.0079 98.3027 24.029 98.0265C23.7755 97.9545 23.559 97.5742 23.4036 97.288C22.6387 95.8486 22.6549 94.1371 23.2538 92.621C23.2612 92.6024 23.2686 92.5837 23.2759 92.565C23.6495 91.6205 22.7931 91.18 22.4883 90.4859C22.3438 90.1568 22.5029 89.796 22.7188 89.5087L23.2061 88.8603C23.3106 88.7212 23.4831 88.651 23.655 88.6776C23.805 88.7007 23.9605 88.6527 24.0507 88.5306C24.7717 87.5551 24.488 85.8464 23.485 85.0881C23.242 84.9047 23.0134 84.6994 22.7669 84.4711C22.3623 84.0963 21.8172 83.9335 21.2794 83.8113C20.5392 83.5832 20.4374 83.1829 20.8704 82.4784C21.407 81.6059 21.9066 80.7053 22.4988 79.8768C22.9687 79.2223 23.609 79.6766 23.8218 80.0649C23.9373 80.2896 24.0717 80.4551 24.2201 80.5803C24.9244 81.1747 26.2501 80.3139 26.2046 79.3934C26.1768 78.8319 25.8994 78.3271 25.992 77.7726C26.058 77.3772 26.1211 77.0229 26.2106 76.6687C26.3623 76.0683 26.5714 75.4859 26.7657 74.8975C26.7842 74.8395 26.886 74.7935 26.8823 74.7494C26.7639 73.2985 28.0795 73.0463 28.7456 72.2799C29.8059 71.0631 29.5838 69.5061 28.1202 68.8556C27.9162 68.7812 27.8414 68.514 27.9475 68.3246C28.4551 67.4178 27.64 66.6563 27.4874 65.8117C27.4226 65.4494 27.4078 64.9931 27.5595 64.6869C27.9814 63.8304 28.4977 63.0239 28.9917 62.2093C29.088 62.0786 29.2162 61.9795 29.3618 61.9232C30.0674 61.6028 30.475 61.1018 30.5832 60.3959C30.6521 59.9462 30.9575 59.4949 31.3992 59.3857C31.7092 59.309 32.0212 59.2608 32.3393 59.3733C32.5962 59.4642 33.0589 59.3502 32.9737 59.0913C32.7054 58.2788 33.094 58.0607 33.7361 57.8625C34.2097 57.7164 34.7852 57.4623 35.0313 57.062C35.5032 56.2815 36.1637 56.1454 36.8983 56.0333C37.0519 56.0045 37.1942 55.9273 37.3073 55.8112C38.251 54.8366 38.5489 54.8586 39.5721 55.6651C39.6179 55.7015 39.6656 55.7351 39.7149 55.7666C40.3895 56.1964 41.1338 55.5375 41.1091 54.738C41.1013 54.4853 41.1264 54.247 41.2238 54.0243C41.3567 53.7205 41.3788 53.3314 41.1272 53.1154C40.8007 52.835 40.8979 52.2232 41.3213 52.1462C41.4072 52.1306 41.4875 52.1275 41.565 52.1428C44.6699 52.7432 47.7323 52.2009 50.7909 51.7746C52.9096 51.4784 52.8985 51.3943 53.226 49.0889C53.2943 48.6117 53.3653 48.1345 53.4411 47.6404C53.5314 47.052 54.0006 46.5769 54.5934 46.5232C55.1171 46.4772 55.4594 46.241 55.563 45.6446C55.6019 45.3499 55.7159 45.0726 55.8924 44.8441C56.2468 44.4561 56.5865 44.0962 56.6993 43.579C56.767 43.2689 56.7229 42.9287 56.8849 42.6558C56.9654 42.5202 57.0733 42.4062 57.2006 42.3225C58.1961 41.7381 59.3082 41.3418 60.2223 40.6454C60.844 40.1711 61.2862 39.3586 61.6693 38.6141C62.1318 37.7195 62.3983 36.7449 63.2587 36.0965C63.8878 35.6242 64.4263 35.1759 65.2627 35.2519C65.8974 35.3099 66.3932 35.0057 66.4913 34.1992C66.5746 33.5088 66.7948 32.8343 66.8614 32.1439C66.9539 31.1172 67.5035 30.4648 68.2399 29.9085C68.9933 29.3368 69.8834 28.9701 70.8264 29.0414L73.3731 29.2339C73.4903 29.2428 73.5963 29.3072 73.6581 29.4073L73.6668 29.4214C73.7845 29.612 74.0474 29.6468 74.2105 29.4933C74.3886 29.3258 74.6685 29.3892 74.7473 29.6206C74.8356 29.88 74.9276 30.1225 75.0937 30.2647C75.1234 30.2902 75.1566 30.3111 75.1928 30.3283C75.7691 30.602 76.3586 30.8363 76.5203 31.4535C76.5615 31.5991 76.6013 31.7443 76.6443 31.8997C76.7313 32.2142 76.4505 32.511 76.1326 32.4374C75.8181 32.3645 75.5695 32.6459 75.733 32.9242C75.8859 33.1845 76.044 33.4226 76.1038 33.6521C76.2197 34.0969 76.0365 34.6503 76.2903 35.0334C76.505 35.3577 76.7104 35.6646 76.9219 35.9644C77.2734 36.4627 77.8082 36.943 78.0025 37.5254C78.2449 38.2518 78.2116 39.0804 78.317 39.8629C78.5169 41.3238 78.8722 42.7828 78.8907 44.2437C78.8907 45.3391 79.8312 46.3854 79.1725 47.5075C79.1066 47.6197 79.0256 47.7343 79.0358 47.8641C79.046 47.9934 79.139 48.0971 79.2112 48.2049C79.8155 49.1065 78.9456 49.6227 78.6742 50.3577C77.9932 52.2029 76.5074 52.381 75.0622 52.5231C74.2703 52.6011 73.4413 52.1648 72.6197 52.0468C71.6502 51.9087 71.2449 51.2202 70.8323 50.3837C70.3401 49.383 69.6388 48.5085 69.1207 47.5238C68.7876 46.8854 68.6267 46.145 68.3806 45.4545C68.2951 45.225 68.1937 45.0029 68.0771 44.7901C68.016 44.676 67.8347 44.5359 67.8569 44.4899C68.523 43.113 66.7282 42.3545 67.0205 41.0296C66.883 41.5578 66.7438 42.0879 66.6045 42.6162C66.5929 42.6605 66.549 42.6882 66.504 42.6799C66.4361 42.6673 66.3811 42.7347 66.4071 42.7987C66.4937 43.0118 66.5816 43.2275 66.6734 43.4541C66.7455 43.632 66.6579 43.8343 66.479 43.904C66.3415 43.9575 66.2533 44.0928 66.2597 44.2403C66.2881 44.8925 66.3146 45.5204 66.3406 46.1365C66.3777 47.0147 65.8675 47.8244 65.0592 48.1698C64.6766 48.3332 64.3511 48.6061 64.1212 48.9528C63.6399 49.6787 63.1216 50.4521 62.6222 51.2422C62.2318 51.8667 61.9783 52.465 62.687 53.1355C62.9016 53.3356 62.8461 53.996 62.7591 54.4063C62.587 55.2068 62.8997 56.6858 63.4993 57.108C63.8823 57.3762 64.3541 57.5583 64.7372 57.026C65.1232 56.4938 65.1828 55.8225 64.9485 55.2082C64.8807 55.0305 64.8402 54.8685 64.8519 54.7105C64.9019 54.0407 64.873 53.2879 65.2114 52.7779C65.6966 52.0465 66.9985 52.6819 67.3798 53.4724C67.946 54.6464 67.6321 56.1693 68.4937 57.1474C68.504 57.1591 68.5144 57.1706 68.5249 57.1821C68.622 57.2901 68.7335 57.3835 68.8558 57.4683C69.4891 57.9073 70.4071 57.4593 70.5862 56.7098C70.923 55.3089 71.5743 54.7085 72.9288 54.6685C74.0501 54.6344 75.1751 54.6865 76.2983 54.6465C77.1145 54.6191 77.9136 54.8613 78.2645 55.5988C78.4333 55.9536 78.603 56.3139 78.7704 56.6778C78.8351 56.8239 78.7537 57.04 78.7574 57.2241C78.7611 57.4082 78.7389 57.7204 78.8203 57.7585C78.9092 57.7979 79.005 57.8157 79.101 57.8105C79.2932 57.8001 79.451 57.6681 79.5993 57.5455C80.2643 56.9961 80.9053 56.4134 81.52 55.7992C81.7051 55.6171 81.7254 55.1708 81.6866 54.8666C81.5811 54.034 81.8716 53.4537 82.5322 53.0494C82.5839 53.0123 82.6334 52.9715 82.6802 52.9273C84.0471 51.81 85.6466 50.8311 85.0448 48.6164C85.0012 48.456 85.1717 48.1642 85.28 48.2903C86.0886 49.313 86.9194 50.3176 87.6855 51.3743C88.3257 52.2569 88.1758 53.8039 87.3876 54.5144C87.2025 54.6845 86.6992 54.7565 86.5456 54.6164C86.4605 54.54 86.3764 54.4732 86.2933 54.415C84.9651 53.4851 83.7739 55.5498 83.6757 57.1681C83.6589 57.4349 83.7333 57.6992 83.8848 57.9106C84.1303 58.1678 84.4096 58.3843 84.7138 58.553C85.5372 59.0873 86.2699 59.2094 86.9601 58.2308C87.1727 57.9342 87.4523 57.6951 87.7535 57.4574C88.1662 57.1317 88.7231 57.1911 89.1891 57.4342C89.6879 57.6944 90.2816 57.151 90.8371 57.2405C91.411 57.333 91.9651 57.4201 92.5223 57.4683C93.5308 57.5543 94.5429 57.5583 95.5532 57.5984C96.2545 57.6264 96.9595 57.6244 97.6571 57.6884C97.7168 57.6939 97.7765 57.6996 97.8361 57.7055C98.8423 57.8048 99.2672 59.0283 98.574 59.7644L98.3185 60.0358C98.1682 60.1954 97.9437 60.2617 97.7309 60.2092L97.3948 60.1264C97.3176 60.1074 97.2375 60.1441 97.2014 60.2149C97.1625 60.2912 97.186 60.3845 97.2563 60.4334C97.7606 60.7839 98.2631 61.1408 98.7748 61.4793C98.8875 61.5539 99.0116 61.6279 99.1458 61.6115C99.2133 61.6032 99.2785 61.5799 99.3372 61.5429C100.41 60.9245 101.993 61.2627 102.827 62.2213C103.031 62.4555 103.443 62.5616 103.767 62.5796C104.478 62.6196 105.194 62.5556 105.908 62.5536C106.733 62.5536 107.098 62.9792 107.117 63.7444C107.123 63.9954 107.059 64.1853 106.831 64.2905C106.165 64.5981 106.886 65.0392 107.603 64.8839C107.868 64.8266 108.14 64.793 108.414 64.7597C108.998 64.6887 109.424 64.2136 109.486 63.6283C109.555 62.979 109.623 62.3451 109.688 61.7371C109.757 61.0811 109.667 60.4179 109.416 59.8077C109.165 59.198 108.916 58.5951 108.695 57.9806C108.423 57.2241 109.033 56.7798 109.418 56.3936C109.751 56.0494 110.199 56.2855 110.343 56.8098C110.573 57.6704 110.858 58.531 110.946 59.4115C110.971 59.6492 110.888 59.8989 110.77 60.181C110.651 60.464 110.937 60.7096 111.201 60.5526C111.338 60.4713 111.513 60.4992 111.618 60.6186C112.79 61.9495 114.05 63.273 115.167 64.725C115.732 65.4574 116.052 66.356 116.736 67.0805C117.393 67.7729 117.695 68.8937 118.032 69.8723C118.349 70.796 118.54 71.7928 118.777 72.7634C118.802 72.8666 118.891 72.9414 118.997 72.9491C119.077 72.9549 119.155 72.9212 119.206 72.859L119.777 72.1576C120.391 71.4031 120.237 70.3055 120.173 69.3347C120.145 68.9097 120.228 68.4663 120.398 68.0011C120.434 67.9039 120.439 67.7947 120.418 67.6804C120.243 66.6912 118.912 65.19 119.725 64.5994C120.205 64.2503 120.686 63.9846 120.915 63.4367C121.168 62.8311 121.419 62.2303 121.681 61.6078C121.767 61.4027 121.673 61.1664 121.47 61.076C121.211 60.9606 121.143 60.6206 121.33 60.4067C121.785 59.8847 122.191 59.371 122.709 59.0513C124.426 57.9826 126.007 56.8058 127.111 54.9787C127.993 53.5227 129.958 53.2433 131.476 54.0132C131.552 54.052 131.629 54.0903 131.706 54.1281C132.792 54.6625 133.229 55.8512 132.587 56.9159C131.815 58.1967 130.871 59.3695 130.181 60.6944C129.862 61.3598 129.778 62.1284 129.946 62.8558C130.294 64.1646 129.72 65.1132 129.219 66.1399C128.849 66.8924 128.466 67.6389 128.125 68.4073C127.785 69.1758 127.596 70.0824 127.135 70.7689C126.342 71.9556 126.488 73.1304 127.05 74.2351C127.548 75.2137 127.145 75.7441 126.569 76.3745C126.273 76.6987 126.118 77.175 125.86 77.5392C125.548 77.9935 125.246 78.4839 124.846 78.8381C124.045 79.5486 123.168 80.1609 122.347 80.8394C121.456 81.5793 120.452 82.73 119.519 82.0441C119.367 81.9319 119.221 81.7911 119.084 81.6239C119.082 81.6213 119.081 81.6184 119.079 81.6152C118.89 81.197 119.074 80.7054 118.659 80.51C118.106 80.2499 117.435 80.665 117.595 81.2545C117.717 81.7029 117.954 82.0748 118.407 82.3524C119.332 82.9207 120.258 83.5031 121.223 83.9894C121.408 84.0795 121.849 83.8233 122.038 83.5892C122.387 83.1749 122.702 83.0168 123.259 82.8647C124.184 82.6085 125.383 82.3984 125.798 81.1116C125.872 80.8774 126.014 80.5432 126.19 80.4912C127.827 79.9928 127.764 78.4518 128.057 77.125C128.142 76.7407 128.149 76.3245 128.292 75.9702C128.64 75.1037 129.112 74.4593 130.187 74.6494C130.375 74.6826 130.565 74.7002 130.759 74.7081C131.769 74.7489 132.605 75.4583 132.667 76.4667C132.709 77.144 132.75 77.8074 132.792 78.4612C132.814 78.7986 133.163 79.0126 133.474 78.8806C133.66 78.8018 133.779 78.6175 133.775 78.4156C133.744 76.6468 133.752 74.8615 131.893 73.7828C131.508 73.56 131.16 73.3945 130.834 73.3627C130.384 73.3187 129.894 73.4322 129.478 73.2561C128.853 72.9921 128.527 72.3004 128.717 71.6495C129.089 70.3732 129.468 69.0553 129.913 67.7609C130.072 67.3006 130.614 67.0044 130.875 66.5601C131.136 66.1159 131.371 65.6315 131.375 65.1592C131.375 64.1586 131.232 63.1579 131.156 62.1693C131.111 61.9108 131.31 61.6902 131.471 61.483C132.068 60.715 132.552 59.8185 133.66 59.6617C134.859 59.4896 135.27 58.9612 135.529 57.6604C135.628 57.162 135.774 56.6752 135.904 56.1849C135.927 56.1003 136 56.0388 136.087 56.0321C136.195 56.0238 136.29 56.1002 136.311 56.2059C136.378 56.5345 136.477 56.8748 136.426 57.1701C136.189 58.543 136.241 60.0399 134.988 61.0226C134.803 61.1667 134.988 61.761 134.874 62.1093C134.596 63.019 134.766 64.0029 135.546 64.5477L136.536 65.2395C137.179 65.6888 138.051 65.1942 137.32 64.9091C136.21 64.4728 135.542 62.2033 136.306 61.2827C136.535 61.0066 137.027 60.9725 137.405 60.8465C137.867 60.69 138.332 60.5477 138.796 60.4015C138.896 60.3697 138.959 60.2694 138.944 60.1648C138.935 60.1032 138.9 60.0486 138.847 60.0148L138.706 59.9234C138.276 59.6449 138.385 58.9872 138.882 58.8617L138.926 58.8506C139.261 58.7659 139.6 58.9789 139.669 59.3182L139.7 59.4709C139.771 59.8211 140.082 60.0607 140.431 60.1373C141.851 60.4489 142.471 61.8248 143.017 63.21C143.315 63.9645 143.546 64.5448 144.44 64.6269C144.866 64.6672 145.273 64.9626 145.686 65.1886C145.78 65.2401 146.02 65.1599 145.933 65.0972C145.128 64.4828 144.875 63.6523 144.995 62.6216C145.017 62.4435 144.758 62.1973 144.59 62.0212C143.86 61.2962 143.476 60.2882 143.612 59.2683C143.73 58.3778 143.843 57.5458 143.981 56.7178C144.166 55.8515 145.001 55.3184 145.884 55.392L152.039 55.9052C152.785 55.9674 153.68 55.562 153.516 54.8317C153.41 54.3606 153.029 54.0306 152.702 53.6828C152.482 53.449 152.582 53.0977 152.87 52.9555C153.175 52.8046 153.276 52.4176 153.082 52.1372L152.594 51.4305C152.552 51.3699 152.551 51.29 152.591 51.2284C152.637 51.1589 152.724 51.1294 152.802 51.1568L153.378 51.3581C153.744 51.486 154.152 51.3753 154.404 51.0807C154.532 50.931 154.665 50.7759 154.805 50.6104C154.96 50.4275 154.916 50.1502 154.713 50.0228L154.663 49.9917C154.504 49.8914 154.37 49.5047 154.558 49.5231C155.535 49.5632 156.408 49.4171 157.239 48.7126C158.016 48.0522 159.001 47.8741 160.048 47.828C160.91 47.7892 161.766 47.5459 162.672 47.306C163.019 47.214 163.099 46.7428 162.796 46.5487L162.73 46.5063C162.675 46.4712 162.638 46.4153 162.628 46.3511C162.61 46.2347 162.685 46.1242 162.798 46.0918C163.381 45.9257 163.969 45.6686 164.535 45.7207C165.334 45.7923 166.109 46.0541 166.804 46.4872C167.749 47.0876 168.438 47.1276 169.231 46.241C169.332 46.1291 169.43 46.038 169.527 45.969C169.8 45.7768 170.401 45.1391 170.269 44.8329C170.19 44.6494 170.332 44.4947 170.53 44.4713C171.203 44.3919 171.803 44.333 172.39 44.2037C172.575 44.1617 172.88 43.7314 172.834 43.6033C172.364 42.3645 173.221 41.56 173.735 40.7515C174.435 39.6508 175.08 38.3679 176.439 38.0017C176.733 37.9216 177.14 38.1238 177.441 38.2999C177.622 38.4048 177.8 38.5162 177.978 38.633C178.65 39.074 178.697 40.0502 178.09 40.578L177.544 41.0536C177.502 41.09 177.486 41.148 177.504 41.2006C177.525 41.2655 177.591 41.3047 177.659 41.2923L178.286 41.1773C178.363 41.1633 178.429 41.2319 178.413 41.3081C178.4 41.3642 178.434 41.4203 178.489 41.4363L179.306 41.6731C179.795 41.8146 180.104 42.2956 180.03 42.799L179.841 44.0775C179.804 44.3258 180.212 44.6955 180.263 44.4499C180.548 43.081 181.571 43.151 182.535 43.049C183.013 42.9989 183.481 42.7788 183.957 42.7648C184.432 42.7508 184.987 42.6727 185.287 43.3151C185.403 43.5291 185.527 43.738 185.658 43.9414C185.784 44.1368 186.063 44.1443 186.099 43.9146C186.137 43.6704 186.472 43.5335 186.595 43.748C187.1 44.6299 187.507 45.3543 187.94 46.0589C188.866 47.5499 188.521 49.1609 188.368 50.7539C188.361 51.2123 187.969 51.5425 187.672 51.8925C186.797 52.9265 186.22 54.2372 185.002 55.0227C184.145 55.5771 183.666 56.7878 182.998 57.6864C182.616 58.2273 182.201 58.7401 181.756 59.2214C180.924 60.086 180.037 60.8905 179.197 61.747C179.03 61.9697 179.251 62.2275 179.528 62.2018L181.404 62.0281C181.919 61.9805 182.35 61.6893 182.647 61.2659C182.89 60.9202 183.221 60.6162 183.827 60.6103C184.053 60.6103 184.277 60.4426 184.502 60.2641C184.656 60.1415 184.629 59.8813 184.449 59.8015C184.394 59.7772 184.35 59.7337 184.323 59.6802C184.123 59.2845 183.753 58.7516 183.86 58.593C184.143 58.1927 184.662 57.9446 185.12 57.7144C185.586 57.4804 186.047 58.1276 186.414 58.4977C186.615 58.7014 186.927 58.8157 187.298 58.8672C187.437 58.8867 187.549 58.884 187.639 58.8632C188.266 58.719 188.665 58.2399 189.001 58.7882C189.225 59.1534 189.735 59.3446 190.111 59.1395C190.4 58.982 190.707 58.8166 191.018 58.659C191.338 58.4969 191.684 58.2588 192.011 58.2588C193.227 58.2948 194.441 58.4069 195.651 58.519C195.761 58.5351 195.871 58.5535 195.98 58.5742C196.376 58.6489 196.595 59.0609 196.473 59.4446C196.349 59.8328 196.574 60.2494 196.967 60.3547C197.134 60.3991 197.3 60.4418 197.468 60.4802C198.038 60.6103 198.674 60.5883 199.168 60.8665C199.946 61.3047 200.392 60.5623 201.006 60.4662C201.272 60.4255 201.536 60.3627 201.806 60.2905C202.39 60.1346 202.76 59.5963 202.797 58.9933C202.853 58.2588 202.814 57.4803 203.038 56.8038C203.461 55.513 203.867 55.3629 204.977 56.0834C205.961 56.7238 206.872 56.7378 207.897 56.2515C208.182 56.1174 208.652 56.2315 208.961 56.3936C209.642 56.7518 210.387 57.1 210.896 57.6684C211.372 58.1967 211.592 58.9973 211.892 59.6937C212.077 60.124 212.158 60.6083 212.363 61.0266C212.493 61.2895 212.622 61.5466 212.682 61.7954C212.846 62.4697 212.844 63.2375 213.049 63.9007C213.195 64.3765 212.918 64.9741 213.199 65.3854C213.567 65.9252 213.97 66.412 214.449 66.7882C215.569 67.6676 216.882 66.4933 217.021 65.0762C217.134 63.9259 217.25 62.7424 217.369 61.5247C217.389 61.3144 217.613 61.1891 217.803 61.2816C218.02 61.3871 218.015 61.6854 217.884 61.8875C217.696 62.1771 217.909 62.4332 218.279 62.7017C219.471 63.5822 220.355 63.4581 221.297 62.0873C221.763 61.4048 222.204 60.9425 223.048 61.2607C223.135 61.3006 223.23 61.3211 223.325 61.3211C223.516 61.3211 223.681 61.2053 223.84 61.1013C224.926 60.3933 226.085 59.9136 227.376 59.8335C227.395 59.8323 227.414 59.8303 227.433 59.8243C227.552 59.7859 227.563 59.6359 227.52 59.5181C227.353 59.0534 227.235 58.623 227.017 58.2628C226.769 57.8545 226.358 57.4983 226.04 57.104C225.899 56.9299 225.669 56.6537 225.716 56.5217C225.949 55.8772 225.938 55.0907 226.772 54.7885C227.453 54.5424 227.438 54.1121 226.854 53.5878C226.629 53.3831 226.74 52.9967 227.023 52.8852C227.189 52.8198 227.346 52.7611 227.503 52.7152C228.613 52.427 229.724 52.1388 230.834 51.8927C231.749 51.6795 232.671 51.5012 233.597 51.3582C234.128 51.2762 234.33 51.7983 233.881 52.0932C233.86 52.1068 233.84 52.1204 233.819 52.1341C233.385 52.4262 233.703 52.7592 234.146 52.4795C234.576 52.2076 235.107 52.636 234.932 53.1142L234.297 54.8455C234.266 54.9295 234.306 55.0231 234.387 55.0598C234.471 55.0972 234.569 55.0622 234.61 54.9805C235.153 53.8971 235.711 52.82 236.233 51.7246C237.209 49.6697 238.777 49.3089 240.292 50.8283C240.521 51.0577 240.444 51.4358 240.158 51.5889L239.937 51.7071C239.784 51.7892 239.736 51.9857 239.834 52.1293C239.872 52.1859 239.93 52.2268 239.993 52.2522C240.129 52.3068 240.273 52.3798 240.371 52.3349C240.643 52.2129 240.902 51.8206 241.124 51.8546C242.249 52.0228 243.365 52.2809 244.477 52.5371C244.719 52.6057 244.946 52.7262 245.145 52.8913C246.035 53.5798 246.83 53.1895 247.337 52.437C248.829 50.2356 251.166 49.283 253.157 47.834C253.427 47.6859 253.736 47.6402 254.034 47.704C254.493 47.776 254.931 48.0162 255.392 48.0702C256.652 48.2203 257.407 48.9207 257.747 50.2216C257.99 51.1462 258.687 50.7059 259.228 50.6959C260.124 50.6959 260.963 50.2543 261.471 49.5154L262.29 48.323C262.971 47.3319 264.556 46.94 265.445 46.1309C265.852 45.7627 266.402 45.5766 266.857 45.2604C267.147 45.0602 267.629 44.736 267.597 44.5199C267.505 43.7014 268.039 42.9769 267.749 42.0983C267.564 41.512 268.074 41.0577 268.692 40.8735C269.198 40.7255 269.656 40.5013 269.943 41.2158C269.952 41.2334 269.961 41.2509 269.971 41.2684C270.179 41.6638 270.14 42.1602 269.818 42.4696C269.498 42.7772 269.431 43.3067 269.804 43.5482C270.328 43.8873 270.931 43.8228 271.601 43.4832C271.786 43.3932 272.06 43.4572 272.277 43.5172C272.817 43.6633 273.454 43.4378 273.581 42.8925C273.613 42.7541 273.63 42.616 273.622 42.4786C273.557 41.1417 272.824 40.5734 271.527 40.7014C271.333 40.7109 271.184 40.5557 271.111 40.3756L270.882 39.8115C270.515 38.9084 270.863 37.8832 271.702 37.3883C272.317 37.0257 272.938 36.643 273.522 36.2045C274.33 35.5753 275.06 34.8353 275.692 34.0031C276.249 33.2942 276.979 32.7691 277.798 32.4881C278.984 32.0458 280.096 31.3774 281.284 30.9531C281.958 30.713 282.726 30.787 283.445 30.677C283.84 30.6393 284.225 30.5261 284.583 30.3427C285.292 29.9165 285.962 29.5322 286.745 30.1426C286.796 30.1778 286.853 30.2014 286.913 30.212C286.973 30.2227 287.034 30.2202 287.093 30.2046C287.984 29.9245 288.865 29.6043 289.763 29.3441C290.159 29.232 290.603 29.3041 290.997 29.188C291.565 29.0478 292.114 28.8271 292.629 28.5316C293.132 28.2134 293.565 28.0252 294.092 28.3975C294.218 28.4875 294.385 28.6396 294.498 28.6096C295.9 28.2414 296.563 29.3481 297.377 30.1906C297.508 30.3267 297.815 30.3227 298.032 30.3007C298.174 30.2716 298.315 30.2351 298.454 30.1915C298.644 30.132 298.707 29.9007 298.593 29.7379C298.566 29.7001 298.54 29.6622 298.513 29.6245C298.317 29.3442 297.818 27.0652 298.156 27.1227C298.311 27.1487 298.606 26.5383 298.767 26.186C299.126 25.4035 299.61 25.0573 300.5 25.0053C301.634 24.9359 302.759 24.6973 303.918 24.4729C304.461 24.3678 304.922 24.6966 304.91 25.2495C304.902 25.6699 304.935 26.0985 305.287 26.4039C305.511 26.5985 305.616 26.9576 305.406 27.168C305.254 27.3201 305.267 27.5586 305.375 27.7441C305.48 27.9239 305.498 28.0994 305.414 28.3113C305.134 29.0111 305.3 29.8446 305.773 30.4317C306.077 30.8099 306.225 31.3214 306.151 32.0318C306.094 32.5862 306.364 32.9945 307.04 32.7183C307.457 32.549 307.853 33.0693 307.858 33.5196C307.86 33.7601 307.86 33.9951 307.848 34.2292C307.809 34.8456 306.496 35.5341 305.68 35.464C305.337 35.4251 304.993 35.5103 304.701 35.7062C303.563 36.6188 302.493 37.2412 301.081 36.1445C300.424 35.6362 299.686 36.1825 299.231 36.8089C298.894 37.2732 298.728 37.8736 298.45 38.3939C298.327 38.6251 298.192 38.8501 298.044 39.0878C297.819 39.4511 297.264 39.4049 297.058 39.0306C296.892 38.7304 296.522 38.7202 296.189 38.8017C295.634 38.9374 295.384 38.3828 295.186 37.7865C295.157 37.6993 295.011 37.5787 294.981 37.6655C294.161 39.6668 294.163 39.6668 296.326 40.079C296.483 40.109 296.713 40.2251 296.751 40.3552C297.205 41.8582 297.836 43.3091 297.384 44.9902C297.263 45.4506 297.092 45.8342 296.872 46.1498C296.321 46.9411 296.04 48.8442 296.794 48.2432C297.322 47.8229 297.996 47.4315 298.585 47.7618C299.153 48.0812 299.721 48.4032 300.276 48.7506C300.531 48.9119 300.784 49.0607 301.032 49.1733C301.835 49.5372 302.757 49.7958 303.596 50.0675C304.292 50.2956 304.797 50.5558 304.645 51.4844C304.64 51.5138 304.638 51.5439 304.64 51.5747C304.656 52.0232 304.651 52.4833 304.257 52.6972C301.4 53.8399 301.094 56.5537 300.672 59.2234C300.561 59.9279 300.302 60.6083 300.071 61.2867C299.453 63.1319 299.701 65.0552 299.583 66.9484C299.527 67.915 299.514 68.9117 299.27 69.8303C299.068 70.5848 298.933 71.1912 299.423 71.8596C299.777 72.3426 299.107 73.049 298.53 72.8894C298.447 72.8665 298.367 72.8393 298.289 72.8062C297.236 72.3639 295.212 73.0824 294.644 74.129C293.97 75.3365 293.648 76.7353 293.719 78.1436C293.722 78.1898 293.725 78.2359 293.726 78.2821C293.745 78.7943 293.135 78.9039 292.846 78.4806C292.568 78.0744 291.947 78.1358 291.757 78.5897C291.654 78.8379 291.555 79.0814 291.463 79.327C291.443 79.3798 291.427 79.4342 291.421 79.4902C291.404 79.642 291.42 79.7964 291.469 79.9408C291.641 80.5509 290.863 80.9462 290.376 81.3519C290.159 81.5325 289.99 81.8097 289.829 82.1262C289.372 83.0328 289.498 83.7273 290.112 84.5538C290.506 85.0861 290.536 85.9427 290.667 86.6651C290.927 87.988 291.125 89.3269 291.408 90.6457C291.498 91.0778 292.215 90.8533 292.587 90.6153C292.847 90.4486 293.15 90.4537 293.457 90.4798C293.92 90.519 294.379 90.8061 294.482 91.2588C294.73 92.3526 294.796 93.5218 295.969 94.1201C295.998 94.1348 296.033 94.1314 296.059 94.1115L296.248 93.9639C296.301 93.9226 296.369 93.9914 296.327 94.0438C296.305 94.0711 296.313 94.1115 296.344 94.1281C296.743 94.3441 297.182 94.5109 297.514 94.8104C297.793 95.0646 298.145 95.5509 298.082 95.8371C297.888 96.7102 296.881 97.2264 296.844 98.12C296.785 99.5682 297.537 101.094 298.737 101.673C299.597 102.085 299.575 102.818 299.292 103.602C299.042 104.198 298.311 104.476 297.853 104.93C297.569 105.211 297.366 105.627 297.34 106.104C297.258 107.647 297.486 109.09 298.82 110.062C299.357 110.463 299.847 110.801 298.82 111.335C298.387 111.557 298.243 112.374 297.921 112.886C297.286 113.887 297.654 114.577 298.223 115.552C298.755 116.47 298.778 117.837 298.739 118.994C298.689 120.257 298.297 121.504 298.049 122.756C297.976 123.147 297.464 123.278 297.162 123.02C296.549 122.496 295.963 122.028 295.612 121.412C294.372 119.222 292.542 117.645 290.917 115.862C288.345 113.052 286.125 109.89 284.313 106.456C283.668 105.229 283.331 103.936 283.614 102.437C283.935 100.72 284.006 97.56 284.448 95.8694C284.668 95.0304 284.79 94.1515 284.931 93.2834C285.02 92.7351 285.048 92.1727 285.094 91.6163C285.105 91.4923 285.129 91.3162 285.066 91.2461C284.254 90.3315 284.67 89.3289 284.839 88.3282C285.065 86.9954 285.287 85.6585 285.424 84.3116C285.481 83.7433 285.152 83.0968 285.292 82.5765C285.542 81.6559 286.032 80.8094 286.388 79.9208C286.595 79.4775 286.448 78.9647 286.298 78.4989C286.226 78.2762 286.149 78.0556 286.066 77.8374C286.034 77.7434 286.016 77.5893 285.958 77.5693C284.889 77.195 285.033 76.0003 284.561 75.2278C283.867 74.0975 283.714 73.8345 283.821 72.9459C283.863 72.6013 283.466 72.3693 283.205 72.598C283.161 72.6361 283.164 72.7442 283.12 72.7722C281.664 73.6828 282.807 74.7735 283.003 75.7401C283.068 76.0623 283.603 76.2544 283.856 76.5666C284.238 77.0368 283.593 77.7128 283.22 78.19C283.009 78.4602 282.943 78.8542 282.877 79.2764C282.641 80.8556 282.333 82.4211 281.955 83.9673C281.875 84.296 281.426 84.3286 281.297 84.0157C281.221 83.83 281.005 83.7522 280.805 83.759C280.149 83.7813 279.574 83.0927 279.478 82.1242C279.433 81.6673 279.332 81.2137 279.249 80.7604C279.234 80.6803 279.169 80.6187 279.088 80.6092C279.008 80.5997 278.931 80.644 278.898 80.7183L278.73 81.1015C278.601 81.3958 278.298 81.5711 277.978 81.5511C276.966 81.4879 276.868 81.6606 276.037 82.8907C275.79 83.2097 275.486 83.4723 275.145 83.6632C274.727 83.9254 274.01 85.7045 274.242 86.1668C274.527 86.7292 274.63 87.2435 274.353 87.8559C274.245 88.138 274.245 88.4544 274.353 88.7365C274.791 89.7691 274.31 90.6437 274.075 91.5963C273.904 92.3982 273.853 93.2246 273.925 94.0439C273.943 94.3192 273.995 94.5917 274.058 94.8535C274.179 95.3487 274.772 95.5138 275.206 95.2467C275.833 94.8585 276.336 95.1086 276.566 95.759C276.762 96.3054 276.686 96.8517 275.937 96.9278C275.798 96.9418 275.681 97.1499 275.548 97.256C275.274 97.4721 275.017 97.8083 274.714 97.8564C273.91 98.0105 273.385 98.2987 273.374 99.3073C273.374 99.5735 272.972 99.8677 272.71 100.088C272.34 100.398 271.938 100.656 271.544 100.928C271.15 101.201 270.759 101.541 270.321 101.679C270.251 101.701 270.091 101.398 269.929 101.091C269.807 100.861 269.86 100.572 270.062 100.408C270.309 100.207 270.323 99.8279 270.074 99.6288C269.341 99.0437 269.119 99.2194 268.546 100.162C268.435 100.344 267.943 100.252 267.621 100.308C266.881 100.442 265.943 100.35 265.46 100.804C264.637 101.574 264.478 103.424 263.499 103.982C263.005 104.263 262.509 104.538 262.007 104.797C261.745 104.927 261.444 104.978 261.146 105.024C260.858 105.068 260.639 105.293 260.591 105.58C260.587 105.605 260.582 105.63 260.578 105.656C260.492 106.165 259.885 106.388 259.491 106.054C259.268 105.866 258.949 105.845 258.702 105.998C257.421 106.79 255.981 107.596 254.689 108.613C254.147 109.035 253.703 109.587 253.392 110.226C253.081 110.864 252.91 111.572 252.894 112.294C252.874 112.806 252.533 113.294 252.348 113.807C252.213 114.177 251.978 114.557 251.978 114.923C252.095 117.525 250.561 119.526 249.839 121.836C249.686 122.294 249.56 122.762 249.46 123.237C249.051 125.402 248.535 127.494 247.286 129.353C246.99 129.791 246.742 130.266 246.515 130.756C245.852 132.187 246.488 133.963 247.842 133.155C248.529 132.741 248.977 132.837 249.308 133.648C249.399 133.865 249.497 134.078 249.602 134.288C249.847 134.782 250.47 134.564 250.744 134.086C250.811 133.97 250.896 133.862 251.004 133.765C251.221 133.571 251.492 133.815 251.412 134.095C251.337 134.355 251.564 134.603 251.83 134.549L251.844 134.546C252.126 134.49 252.362 134.761 252.266 135.032C252.26 135.051 252.253 135.07 252.246 135.089C252.117 135.454 252.5 135.737 252.769 135.459C253.324 134.885 253.684 134.242 253.803 133.667C253.917 133.119 254.096 132.491 254.575 132.202C254.878 132.018 255.18 131.834 255.477 131.644C255.98 131.322 257.028 131.708 257.649 132.321C258.007 132.673 258.504 132.879 258.965 133.087C259.607 133.377 260.353 133.487 260.897 133.914C260.994 133.989 261.048 134.128 261.082 134.304C261.227 135.062 261.329 135.827 261.665 136.521C261.771 136.74 261.882 136.956 262 137.168C262.168 137.438 262.503 137.591 262.794 137.775C262.871 137.823 262.973 137.817 263.041 137.755C263.094 137.706 263.115 137.63 263.096 137.559C262.785 136.459 262.579 135.303 262.111 134.286C261.625 133.239 261.445 132.766 261.766 132.461C262.318 131.937 263.054 131.476 262.869 130.737C262.738 130.214 262.461 129.786 261.992 129.486C261.668 129.28 261.464 128.902 261.663 128.573C261.885 128.206 262.44 128.151 262.675 128.509C262.965 128.951 263.243 129.374 263.526 129.789C263.855 130.317 264.214 130.822 264.601 131.302C265.736 132.593 266.256 134.178 266.552 135.863C266.593 136.211 266.71 136.542 266.895 136.83C267.079 137.118 267.325 137.354 267.612 137.518C267.946 137.752 268.24 138.047 268.482 138.389C270.089 140.39 271.673 142.391 273.292 144.378C273.69 144.859 274.101 145.332 274.528 145.815C274.862 146.191 274.457 146.733 273.99 146.546C273.065 146.178 272.156 146.53 271.757 147.372C271.701 147.488 271.599 147.633 271.625 147.733C272.127 149.624 271.524 151.831 272.893 153.448C273.651 154.343 274.63 155.029 275.544 155.762C276.004 156.114 276.606 156.203 276.823 156.74L277.551 158.54C277.58 158.614 277.553 158.698 277.486 158.74C277.417 158.784 277.326 158.769 277.273 158.708C277.15 158.568 277.025 158.429 276.919 158.277C276.349 157.465 275.648 157.243 274.797 157.665C274.044 158.039 274.416 158.734 274.462 159.306C274.557 160.473 273.535 160.521 273.035 159.462C272.751 158.862 272.537 158.222 272.399 157.559C272.258 156.875 271.833 156.26 271.553 155.604C271.421 155.352 271.335 155.076 271.3 154.789C271.248 153.31 270.8 152.069 269.623 151.187C269.416 151.003 269.264 150.757 269.187 150.48C268.631 148.749 268.111 147 267.532 145.277C267.347 144.727 266.977 144.25 266.753 143.712C266.585 143.336 266.482 142.928 266.452 142.511C266.42 141.725 266.183 141.122 265.565 140.642C264.894 140.12 264.256 139.544 263.576 138.952C263.328 138.736 262.946 138.861 262.917 139.189C262.894 139.878 262.89 140.566 262.904 141.254C262.919 141.809 262.877 142.395 263.027 142.912C263.678 145.155 264.472 147.354 265.062 149.618C265.617 151.735 265.948 153.835 265.291 156.114C264.688 158.213 264.551 160.481 264.337 162.688C264.096 165.142 263.31 167.413 262.579 169.715C262.249 170.754 262.024 171.828 261.696 172.867C261.128 174.668 260.614 176.511 259.905 178.256C259.11 180.196 257.783 181.674 256.356 182.833C255.912 183.194 255.332 183.334 254.765 183.257L253.476 183.081C253.297 183.056 253.161 182.961 253.129 182.783C253.084 182.535 252.824 182.338 252.595 182.441C251.562 182.904 251.035 183.748 250.994 184.956C250.985 185.234 250.789 185.48 250.512 185.517C250.291 185.547 250.113 185.712 250.065 185.93C250.064 185.938 250.062 185.946 250.06 185.953C249.954 186.443 249.31 186.562 249.036 186.143L248.636 185.532C248.479 185.292 248.438 184.981 248.608 184.75C248.657 184.685 248.709 184.622 248.766 184.564C249.656 183.81 249.852 182.723 249.623 181.583C249.273 179.829 248.625 178.234 247.852 176.671C247.785 176.539 247.72 176.311 247.781 176.215C248.213 175.527 248.572 174.718 249.162 174.236C249.595 173.88 250.34 173.94 250.951 173.86C251.321 173.809 251.726 173.932 252.061 173.813C252.32 173.723 252.644 173.413 252.69 173.139C252.828 172.269 252.912 171.391 252.942 170.509C253.007 169.088 253.162 167.65 253.029 166.245C252.927 165.181 252.704 164.139 252.994 163.221C253.201 162.565 253.347 161.822 253.003 161.225L252.951 161.135C252.562 160.461 251.349 159.877 251.073 160.605C250.664 161.674 249.721 161.958 249.012 162.576C248.893 162.68 248.688 162.752 248.657 162.878C248.137 164.958 246.188 164.596 244.904 165.346C244.419 165.63 243.44 164.606 243.174 163.793C243.028 163.345 242.756 162.944 242.574 162.508Z" fill="#D3D3D3"/>
<path d="M104.352 52.2548C104.37 52.2 104.356 52.1395 104.315 52.099C103.996 51.7837 103.636 51.4957 103.388 51.1238C103.157 50.7738 102.86 50.2379 102.964 49.924C103.089 49.5478 103.57 49.3038 103.915 49.0105C103.937 48.9914 103.969 48.9881 103.995 49.0028C104.056 49.038 104.124 48.9695 104.088 48.9088L103.856 48.5114C103.793 48.4049 103.648 48.3848 103.559 48.4706L103.372 48.6504C103.132 48.8827 102.721 48.7292 102.69 48.3962C102.653 47.9859 102.624 47.5804 102.647 47.1784C102.679 46.6164 102.925 46.1267 102.759 45.5888C102.497 44.7427 102.76 43.8697 103.52 43.2551C104.15 42.7438 105.654 43.1774 106.203 42.5789C106.383 42.3822 106.52 42.1519 106.577 41.8566C106.663 41.4155 106.977 40.9876 107.418 40.8976C107.724 40.791 108.015 40.6374 108.281 40.4416C108.439 40.3277 108.587 39.9437 108.652 39.9657C109.332 40.2168 109.902 39.898 110.442 39.6337C110.675 39.5197 110.974 38.6339 110.79 38.4507C110.716 38.3773 110.702 38.2634 110.756 38.1745C110.785 38.1263 110.814 38.0782 110.843 38.0301C110.903 37.9308 110.996 37.8553 111.106 37.8216L113.089 37.2192C113.357 37.1377 113.611 37.0158 113.843 36.8577L114.817 36.1917C114.96 36.0945 115.03 35.9292 115.077 35.7635C115.178 35.4046 115.512 35.412 115.951 35.5611C116.122 35.6191 116.287 35.4357 116.197 35.2791C116.149 35.1959 116.172 35.09 116.25 35.0342L116.65 34.7481C116.71 34.7048 116.703 34.6126 116.637 34.5794C116.592 34.5572 116.571 34.5056 116.587 34.4587L116.835 33.7442C116.949 33.4156 117.381 33.3432 117.595 33.6169C117.751 33.8155 118.042 33.8423 118.231 33.6754L118.654 33.3032C118.723 33.2427 118.823 33.2351 118.9 33.2847L119.198 33.476C119.258 33.5149 119.334 33.457 119.313 33.3884C119.301 33.3519 119.318 33.3127 119.353 33.2957C119.906 33.021 120.441 32.637 121.022 32.525C122.095 32.3251 123.2 32.3151 124.288 32.1811C124.683 32.1058 125.074 32 125.455 31.8647C125.501 31.8486 125.529 31.8041 125.526 31.7561C125.521 31.6741 125.607 31.6105 125.685 31.636C125.782 31.6677 125.875 31.7027 125.926 31.7752C126.877 33.0869 128.249 32.701 129.515 32.903C130.781 33.1049 131.717 32.489 132.753 32.0771C133.631 31.7292 134.319 32.1651 134.919 32.629C135.31 32.931 135.347 33.4769 134.982 34.1087C134.046 35.7265 132.699 36.2484 131.036 36.2504C129.409 36.2504 127.776 36.2204 126.156 36.3444C124.94 36.4633 123.733 36.6826 122.547 37.0002C122.203 37.0862 121.88 37.4902 121.647 37.8261C121.328 38.286 120.042 38.6779 119.521 38.626C119.007 38.5997 118.497 38.7389 118.057 39.0259C117.501 39.3758 117.084 39.9317 116.574 40.3617C116.346 40.5551 115.991 40.4327 115.78 40.644C114.954 41.4692 114.07 42.2722 112.778 42.3673C112.695 42.3673 112.607 42.4833 112.537 42.5673C111.718 43.4831 110.773 44.167 109.757 44.8489C108.882 45.4308 108.357 46.8265 107.968 47.9723C107.391 49.6673 107.09 51.43 107.744 53.1781C107.893 53.5763 107.721 54.0416 107.323 54.1903C107.054 54.2911 106.75 54.217 106.561 54C106.151 53.5298 105.724 53.0262 105.244 52.5895C105.072 52.4357 104.761 52.4573 104.477 52.445C104.381 52.4409 104.321 52.3456 104.352 52.2548Z" fill="#D3D3D3"/>
<path d="M221.061 43.9331C220.79 44.0461 220.613 44.2697 220.584 44.5618C220.543 44.9681 220.218 45.3321 219.812 45.3696C219.201 45.4259 218.65 45.3648 218.287 44.5605C218.2 44.3605 217.833 44.3425 217.673 44.1605C217.221 43.6475 216.794 43.1088 216.394 42.5468C216.264 42.3273 216.149 42.0972 216.052 41.8586C215.998 41.7283 215.964 41.5907 215.951 41.4505C215.887 40.7833 215.954 40.1082 216.149 39.4694C216.266 39.0847 216.428 38.719 216.629 38.3804C216.928 37.8772 217.574 37.7594 218.106 38.004L218.581 38.2225C219.169 38.4926 219.851 38.1083 219.937 37.4675C220.015 36.8878 220.59 36.5189 221.126 36.7535C221.146 36.7622 221.166 36.771 221.186 36.7798C221.836 37.1338 222.411 37.5017 223.148 36.8438C223.36 36.6438 223.964 36.9558 224.387 37.0438C225.162 37.1986 225.735 37.8719 225.709 38.6621C225.703 38.8447 225.694 39.0271 225.682 39.2094C225.643 39.5413 225.398 39.8433 225.261 40.1652C224.969 40.8519 224.774 41.9215 224.151 42.3319C224.074 42.3825 223.997 42.4124 223.919 42.4128C222.848 42.4128 222.19 43.0347 221.484 43.6966C221.368 43.7978 221.224 43.8651 221.061 43.9331Z" fill="#D3D3D3"/>
<path d="M165.675 27.471C165.598 27.1267 165.396 26.8322 165.131 26.5996C164.986 26.4725 164.866 26.3556 164.882 26.3258C165.211 25.7359 165.641 25.208 165.995 24.6101C166.241 24.2301 166.413 23.7422 166.745 23.4943C167.539 22.8988 168.703 22.8731 169.669 23.3261C169.793 23.3846 169.864 23.4855 169.844 23.6216C169.803 23.9083 170.119 24.1403 170.357 23.9752L170.64 23.7783C170.824 23.6505 171.076 23.6636 171.224 23.8313C172.344 25.0951 171.79 26.5539 171.533 27.9935C171.428 28.5646 171.413 29.1508 171.49 29.7272C171.627 30.665 170.858 31.5648 169.981 31.3869C169.796 31.3489 169.574 31.3489 169.444 31.2329C168.504 30.3971 167.362 29.9591 166.332 29.3232C165.94 29.0832 165.856 28.2819 165.675 27.471Z" fill="#D3D3D3"/>
<path d="M1.39552 108.884C0.333412 108.274 1.73656 106.979 2.07281 105.802C2.2941 105.026 1.7375 104.153 1.01961 103.26C0.940832 103.162 0.956879 103.018 1.05648 102.942C1.10582 102.903 1.16884 102.888 1.23023 102.898L4.43153 103.451C4.53101 103.468 4.62582 103.402 4.64429 103.303C4.67161 103.156 4.85292 103.101 4.95587 103.209C6.27148 104.592 7.28998 106.032 6.95529 107.762C6.83 108.409 6.93619 109.118 7.43003 109.555L8.18775 110.225C8.61972 110.608 8.51868 111.307 7.9962 111.552C7.65995 111.709 7.26121 111.614 7.0194 111.332C6.71913 110.982 6.40536 110.646 6.07891 110.325C5.73337 110.057 5.33809 109.874 4.9205 109.789C3.94558 109.523 2.94102 109.297 1.94201 109.085C1.72947 109.04 1.54873 108.972 1.39552 108.884Z" fill="#D3D3D3"/>
<path d="M167.234 22.89C166.26 23.1087 166.047 24.307 165.24 24.8951C164.689 25.2964 163.875 24.9345 163.473 24.3843C163.448 24.3499 163.423 24.3154 163.398 24.2808C163.228 24.0148 163.007 23.6809 163.04 23.4009C163.068 23.157 163.395 22.927 163.626 22.7471C163.748 22.6666 163.871 22.5893 163.995 22.5152C164.247 22.3659 164.259 21.994 164.008 21.845C163.795 21.7188 163.765 21.4227 163.943 21.2509C164.27 20.935 164.586 20.6056 164.89 20.2635C165.1 20.0075 165.368 19.4996 165.261 19.3217C164.759 18.4218 165.446 18.1339 165.891 17.7359C166.563 17.1264 167.265 16.5557 167.993 16.0262C168.119 15.9383 168.629 16.2002 168.751 16.4262C169.243 17.3278 169.68 18.2629 170.06 19.2257C170.158 19.4796 169.989 19.8796 169.874 20.1875C169.713 20.6434 169.331 21.0834 169.342 21.5193C169.364 22.3951 168.972 22.5751 168.286 22.6791C167.935 22.7384 167.585 22.8113 167.234 22.89Z" fill="#D3D3D3"/>
<path d="M174.737 29.3752C174.668 29.6268 174.999 29.8278 175.181 29.6413C175.284 29.536 175.456 29.5459 175.545 29.6632C175.993 30.2541 176.399 30.8302 176.858 31.3477C177.52 32.0835 177.229 33.9472 176.323 34.2272C175.285 34.5571 174.204 34.7391 173.172 35.081C172.723 35.231 172.368 35.6669 171.93 35.8809C171.65 36.0188 171.12 36.1448 171.016 36.0068C170.813 35.7389 170.675 35.221 170.785 34.915C171.307 33.4333 171.932 31.9936 172.495 30.5298C172.621 30.2079 172.579 29.7999 172.738 29.508C173.011 28.9493 173.369 28.4437 173.797 28.0123C173.971 27.8503 174.512 28.0123 174.797 28.1802C174.923 28.2602 174.877 28.7561 174.823 29.0441C174.796 29.1549 174.767 29.2653 174.737 29.3752Z" fill="#D3D3D3"/>
<path d="M8.95117 52.9717C9.80561 52.5558 10.4339 52.2338 11.0919 51.9399C11.179 51.9019 11.3329 51.9779 11.4348 52.0399C12.1762 52.4918 12.9046 52.9517 13.633 53.4056L12.4505 53.5536L12.8935 54.2935C14.1019 53.5336 14.2724 53.6476 14.3762 55.0653C14.4522 56.2171 14.5912 57.3629 14.7024 58.5007C14.2039 58.7447 13.7757 59.0406 13.3031 59.1486C13.1523 59.1525 13.0027 59.1184 12.8663 59.049C12.7299 58.9795 12.6103 58.8767 12.5172 58.7487C11.3273 56.893 10.1874 54.9934 8.95117 52.9717Z" fill="#D3D3D3"/>
<path d="M276.941 24.4828C275.918 25.0371 275.057 25.8871 274.628 24.805C274.236 23.8127 274.302 22.5857 274.914 21.7173C275.54 20.8274 276.17 20.2595 277.267 20.3175C278.213 20.3635 278.8 21.0314 278.441 21.9932C278.102 22.8951 277.981 23.9309 276.941 24.4828Z" fill="#D3D3D3"/>
<path d="M227.21 36.9434C227.271 36.7465 227.516 36.7098 227.663 36.8548C227.81 37.0001 228.056 36.9625 228.171 36.7905C228.498 36.299 228.841 36.0585 229.235 36.0635C229.899 36.0719 230.725 35.9124 231.385 35.8416C231.659 35.8123 231.952 35.8564 232.243 35.8892C232.68 35.9383 233.153 36.1593 233.206 36.596C233.303 37.3979 232.824 38.1162 231.869 38.644C230.438 39.4439 229.029 39.112 227.624 38.644C227.143 38.4714 226.985 37.6657 227.21 36.9434Z" fill="#D3D3D3"/>
<path d="M131.914 5.12236C132.009 4.91179 132.286 4.89011 132.456 5.04678C132.669 5.24317 132.933 5.13186 132.828 4.86182C132.718 4.57748 132.585 4.31233 132.733 4.14952C132.861 4.00849 133.087 4.06609 133.259 4.14714L135.038 4.98441C135.114 5.02015 135.205 4.99716 135.255 4.92953C135.311 4.85373 135.297 4.74753 135.221 4.69208C135.009 4.5375 134.776 4.38989 134.624 4.20665C134.229 3.73335 135.119 3.78044 135.723 3.65711C135.962 3.60837 136.183 3.39197 136.383 2.95229C136.417 2.8763 136.986 2.95229 137.171 3.12426C137.528 3.45595 137.029 4.03282 136.609 4.28093C135.93 4.68272 135.531 5.32531 135.481 6.04868C135.416 6.99238 135.308 7.80713 134.435 7.44148C134.36 7.4097 134.282 7.38774 134.203 7.38259C134.052 7.37287 133.9 7.40756 133.75 7.39227L132.861 7.30172C132.587 7.27378 132.428 6.9786 132.554 6.73393C132.648 6.55225 132.584 6.33236 132.41 6.22527C132.006 5.97699 131.658 5.6893 131.914 5.12236Z" fill="#D3D3D3"/>
<path d="M124.472 5.15004C124.294 5.08538 124.267 4.84622 124.424 4.74092C124.516 4.67876 124.552 4.55964 124.502 4.46018C124.347 4.15332 124.165 3.88218 124.229 3.73203C124.309 3.59143 124.417 3.47153 124.546 3.38069C124.674 3.28986 124.818 3.23028 124.97 3.20612C125.711 3.12014 126.47 3.15413 127.22 3.12214C127.406 3.12214 127.684 3.07815 127.724 2.97217C128.14 1.88041 128.738 2.0226 129.398 2.36105C129.659 2.49514 129.736 2.83532 129.574 3.08054C129.477 3.22709 129.467 3.41089 129.542 3.5694C129.548 3.58241 129.555 3.59549 129.561 3.60867C129.73 3.96317 129.502 4.3789 129.112 4.42849L126.869 4.7142C126.502 4.76087 126.233 5.06039 125.925 5.26478C125.57 5.50082 125.066 5.36692 124.472 5.15004Z" fill="#D3D3D3"/>
<path d="M93.5832 54.0616C91.778 54.0616 91.1163 53.6356 91.1311 52.5298C91.1404 51.8939 92.334 50.9161 93.1106 50.9121C94.1337 50.9121 94.6341 51.606 94.6693 52.9677C94.6953 53.9256 94.3042 54.2515 93.5832 54.0616Z" fill="#D3D3D3"/>
<path d="M288.363 159.625C288.265 159.912 287.716 159.942 287.774 159.644C287.947 158.741 288.193 157.855 288.405 156.959C288.632 156.007 289.785 155.348 290.196 154.46C290.285 154.267 290.355 154.045 290.408 153.797C290.468 153.514 290.979 153.895 291.041 154.177C291.082 154.363 291.102 154.537 291.038 154.663C290.69 155.347 290.189 155.941 289.789 156.597C289.437 157.162 289.121 157.751 288.842 158.361C288.663 158.754 288.52 159.164 288.363 159.625Z" fill="#D3D3D3"/>
<path d="M139.205 10.5201C138.664 10.2009 138.841 9.43807 139.402 9.15395L140.588 8.55246C140.945 8.37157 141.602 8.37394 141.595 8.77405C141.595 9.6339 141.108 10.2638 140.407 10.6357C140.057 10.819 139.635 10.7737 139.205 10.5201Z" fill="#D3D3D3"/>
<path d="M129.196 51.2621C130.199 50.7166 131.783 51.9279 130.866 52.608C130.556 52.8386 130.091 52.8121 129.461 52.5699C128.968 52.3699 128.757 51.5001 129.196 51.2621Z" fill="#D3D3D3"/>
<path d="M124.665 2.17211C124.569 2.13478 124.487 2.05817 124.473 1.95653C124.47 1.94045 124.467 1.92437 124.464 1.90829C124.36 1.39209 124.779 0.933459 125.306 0.954706C125.652 0.968704 126.071 0.892717 126.418 0.998699C126.764 1.10468 127.192 1.31464 127.307 1.59859C127.476 2.0199 126.651 2.06925 126.197 2.06659C125.709 2.06372 125.157 2.36448 124.665 2.17211Z" fill="#D3D3D3"/>
<path d="M297.226 123.903C297.333 123.971 297.375 124.106 297.326 124.223L297.074 124.822C296.972 125.065 296.976 125.337 297.034 125.594C297.218 126.407 297.04 127.277 296.36 128.036C296.146 128.278 295.596 127.958 295.663 127.644C295.666 127.629 295.671 127.615 295.678 127.603C295.901 127.226 296.044 126.8 296.096 126.356C296.148 125.913 296.107 125.462 295.978 125.037C295.908 124.79 296.487 124.339 296.884 123.945C296.975 123.854 297.118 123.834 297.226 123.903Z" fill="#D3D3D3"/>
<path d="M185.849 54.5633C186.44 54.5193 187.688 55.3151 187.717 55.8471C187.711 56.0067 187.672 56.1628 187.604 56.3047C187.535 56.4466 187.44 56.5708 187.323 56.6689C187.198 56.7503 187.059 56.8025 186.915 56.8222C186.771 56.8418 186.624 56.8284 186.485 56.7829C185.614 56.425 185.528 56.053 185.849 54.5633Z" fill="#D3D3D3"/>
<path d="M291.593 84.7188C291.637 84.0549 292.513 83.5621 292.907 84.0977C293.035 84.2637 292.842 84.7316 292.757 85.0535C292.711 85.2265 292.663 85.3991 292.616 85.5717C292.339 86.5714 291.557 86.6342 291.561 85.5968C291.562 85.3278 291.572 85.0349 291.593 84.7188Z" fill="#D3D3D3"/>
<path d="M286.197 163.188C286.014 164.003 285.157 164.672 285.339 163.857C285.485 163.213 285.635 162.567 285.792 161.894C285.909 161.394 286.283 160.994 286.774 160.845L287.16 160.728C287.191 160.719 287.223 160.719 287.254 160.729C287.352 160.761 287.392 160.88 287.333 160.965C286.846 161.668 286.379 162.378 286.197 163.188Z" fill="#D3D3D3"/>
<path d="M293.29 148.778C293.398 148.818 293.46 148.93 293.436 149.042L292.93 151.416C292.867 151.711 292.54 151.865 292.272 151.727C292.061 151.617 291.969 151.364 292.061 151.144C292.383 150.375 292.691 149.639 292.998 148.905C293.045 148.791 293.174 148.735 293.29 148.778Z" fill="#D3D3D3"/>
<path d="M222.646 47.2082C222.515 46.6479 223.158 46.1113 223.655 46.4028C223.857 46.5219 223.908 46.7067 223.889 47.0689C223.866 47.4982 223.509 47.9227 223.103 47.7821C222.867 47.7006 222.718 47.5133 222.646 47.2082Z" fill="#D3D3D3"/>
<path d="M214.332 42.3888C214.144 41.9569 214.864 41.0802 214.946 41.5439C215.018 42.0695 215.056 42.5997 215.061 43.1308C215.062 43.232 214.984 43.3159 214.883 43.3242C214.8 43.331 214.722 43.2844 214.688 43.208C214.577 42.9521 214.463 42.6902 214.332 42.3888Z" fill="#D3D3D3"/>
<path d="M138.259 2.51476C137.889 2.56113 137.617 2.1771 137.784 1.84405C137.896 1.61865 138.168 1.52352 138.396 1.62926L139.129 1.96786C139.221 2.01057 139.276 2.10748 139.264 2.20858C139.252 2.3161 139.167 2.40072 139.06 2.4142L138.259 2.51476Z" fill="#D3D3D3"/>
<path d="M129.532 6.69561C129.886 6.68777 130.085 7.07889 129.974 7.41538L129.97 7.42735C129.877 7.70591 129.596 7.87546 129.306 7.82651C129.018 7.77766 128.789 7.52001 128.864 7.23701C128.97 6.83875 129.211 6.70271 129.532 6.69561Z" fill="#D3D3D3"/>
<path d="M137.792 7.24339C138.199 7.16908 138.522 7.62761 138.178 7.85894C137.99 7.98566 137.801 8.00576 137.608 7.93721C137.245 7.80825 137.412 7.31255 137.792 7.24339Z" fill="#D3D3D3"/>
<path d="M295.181 143.914C295.249 143.585 295.711 143.535 295.768 143.867C295.787 143.981 295.777 144.093 295.734 144.213C295.604 144.584 295.102 144.299 295.181 143.914Z" fill="#D3D3D3"/>
<path d="M130.33 5.46385C130.407 5.4392 130.486 5.49108 130.495 5.57084C130.54 5.99909 130.585 6.42302 130.632 6.84263C130.639 6.90918 130.717 6.94147 130.77 6.89976C130.85 6.83579 130.952 6.94083 130.886 7.01916C130.836 7.07779 130.783 7.13969 130.728 7.20561C130.668 7.27605 130.553 7.24571 130.536 7.15498C130.423 6.55257 130.333 6.07602 130.245 5.60725C130.233 5.5448 130.27 5.48337 130.33 5.46385Z" fill="#D3D3D3"/>
<path d="M134.889 54.6459C135.213 54.7231 135.312 55.1351 135.059 55.351C134.862 55.5184 134.562 55.4631 134.438 55.2369C134.269 54.9277 134.546 54.5642 134.889 54.6459Z" fill="#D3D3D3"/>
<path d="M141.844 4.79667C142.068 5.19776 141.197 5.46929 140.977 5.06535C140.969 5.04917 140.961 5.03273 140.954 5.01598C140.776 4.56822 141.608 4.37598 141.844 4.79667Z" fill="#D3D3D3"/>
<path d="M218.001 50.291C217.922 50.3999 217.767 50.4181 217.664 50.3303L216.636 49.4461C216.551 49.3725 216.536 49.2454 216.604 49.1549C216.677 49.0562 216.818 49.0389 216.913 49.1169L217.961 49.9777C218.055 50.0551 218.073 50.1924 218.001 50.291Z" fill="#D3D3D3"/>
<path d="M134.153 12.1252C134.153 12.4277 133.8 12.5926 133.568 12.3984C133.361 12.2251 133.414 11.8936 133.665 11.794C133.899 11.7013 134.153 11.8736 134.153 12.1252Z" fill="#D3D3D3"/>
<path d="M296.671 131.151C296.724 131.614 296.105 131.442 296.061 130.977C296.048 130.843 296.036 130.712 296.024 130.584C296.014 130.476 296.094 130.381 296.202 130.373C296.283 130.367 296.36 130.412 296.397 130.485C296.508 130.699 296.643 130.914 296.671 131.151Z" fill="#D3D3D3"/>
</svg>
