<svg width="308" height="187" viewBox="0 0 308 187" fill="none" xmlns="http://www.w3.org/2000/svg">
<path d="M242.574 162.042C242.228 161.208 241.604 160.519 240.761 160.197C240.214 159.989 239.68 159.789 239.144 159.595C238.998 159.543 238.811 159.621 238.642 159.631C238.224 159.657 237.717 159.851 237.406 159.669C236.744 159.289 236.143 159.285 235.454 159.487C234.018 159.911 234.018 159.887 233.337 158.466C232.997 157.692 232.615 156.94 232.192 156.215C231.358 154.88 230.436 153.612 229.602 152.275C229.141 151.546 228.823 150.707 228.336 150C227.849 149.294 227.226 148.653 226.648 147.998C225.953 147.209 225.15 146.975 224.191 147.456C224.056 147.524 223.821 147.412 223.653 147.349C222.855 147.067 222.074 146.699 221.247 146.517C220.842 146.428 220.37 146.673 219.931 146.777C219.306 146.927 218.679 147.075 218.057 147.249C216.728 147.622 215.52 148.226 214.602 149.366C214.358 149.668 214.047 149.924 213.862 150.265C213.605 150.887 214.04 151.487 214.68 151.695C214.752 151.718 214.794 151.739 214.793 151.756C214.745 152.527 215.948 152.994 215.252 153.879C213.733 155.815 213.607 158.283 212.996 160.566C212.937 160.784 212.845 161.08 212.93 161.243C213.485 162.29 212.783 162.744 212.158 163.263C211.69 163.651 211.233 164.064 210.807 164.49C210.456 164.845 210.15 165.565 209.823 165.567C209.005 165.567 208.096 165.433 207.393 165.023C206.639 164.566 205.761 164.408 204.91 164.576C204.18 164.706 203.432 164.633 202.734 164.366C200.86 163.547 199.291 164.056 198.362 166.06C198.067 166.695 197.675 166.989 197.066 167.207C195.512 167.77 194.004 168.485 192.441 169.009C191.765 169.231 190.986 169.209 190.266 169.141C189.114 169.05 187.968 168.881 186.836 168.635C186.39 168.535 185.964 168.172 185.6 167.834C184.876 167.177 184.349 166.214 183.229 166.232C183.198 166.229 183.169 166.213 183.148 166.188C182.058 164.668 180.33 164.927 178.868 164.538C178.165 164.352 177.273 164.672 176.54 164.971C175.128 165.547 173.824 165.059 172.516 164.676C171.666 164.426 170.449 162.274 170.373 161.285C170.345 160.93 170.153 160.424 169.896 160.284C167.81 159.178 165.69 158.143 163.582 157.08C163.206 156.894 162.75 157.006 162.496 157.34C161.783 158.277 161.02 159.22 160.453 160.282C160.172 160.81 160.359 161.777 160.599 162.432C160.943 163.375 160.746 164.692 159.933 165.217C158.924 165.872 157.622 165.73 156.488 165.327C155.685 165.042 154.837 164.908 153.982 164.939C153.196 164.951 152.393 164.62 151.621 164.358C151.436 164.294 151.292 163.91 151.218 163.643C150.739 161.891 150.674 161.827 148.911 161.747C148.35 161.722 148.148 161.712 147.98 161.495C147.712 161.149 147.437 160.801 147.026 160.65C146.634 160.506 146.207 160.534 145.822 160.698C145.732 160.737 145.64 160.772 145.547 160.802C145.08 160.961 144.605 161.088 144.124 161.183C143.709 161.265 143.286 161.29 142.865 161.259C142.487 161.222 142.18 161.195 142.03 161.507C141.919 161.738 141.927 162.025 141.75 162.21C141.663 162.301 141.556 162.368 141.439 162.404C141.244 162.438 141.071 162.467 140.916 162.496C139.001 162.846 137.343 164.174 135.397 164.122C135.268 164.122 135.133 164.358 135.003 164.488C134.83 164.677 134.622 164.822 134.391 164.914C134.161 165.006 133.915 165.043 133.671 165.021C133.426 164.999 133.189 164.92 132.976 164.788C132.763 164.657 132.579 164.477 132.437 164.26C132.432 164.253 132.428 164.247 132.424 164.241C131.713 163.171 130.542 162.597 129.274 162.392C128.129 162.192 127.918 161.191 127.531 160.214C126.886 158.668 126.155 157.165 125.342 155.715C124.972 155.02 124.341 154.726 123.512 154.976C121.17 155.683 119.997 155.074 119.033 152.747C118.909 152.449 118.535 152.347 118.262 152.52L117.821 152.799C117.231 153.173 116.449 152.835 116.316 152.149C116.13 151.185 115.96 150.309 115.798 149.43C115.393 147.205 115.082 144.955 114.571 142.758C114.307 141.621 113.709 140.57 113.239 139.491C112.982 138.899 112.697 138.322 112.404 137.708C112.313 137.517 112.362 137.289 112.523 137.152L112.615 137.074C112.817 136.902 112.814 136.396 112.558 136.468C111.55 136.746 110.565 137.208 109.544 137.329C108.317 137.473 107.114 138.838 105.801 137.481C105.763 137.443 105.716 137.415 105.661 137.396C105.067 137.182 104.236 137.007 104.504 136.435C104.604 136.223 104.777 136.019 104.92 135.806C105.075 135.575 105.051 135.277 104.887 135.052C104.655 134.731 104.391 134.524 104.054 134.572C103.668 134.627 103.193 134.511 103.186 134.121C103.243 133.32 102.827 133.268 102.216 133.182C101.778 133.122 101.312 132.74 101.006 132.363C100.856 132.177 101.03 131.676 101.084 131.322C101.239 130.321 101.434 129.32 101.541 128.319C101.56 128.155 101.16 127.754 101.04 127.79C100.366 127.99 100.14 127.53 99.7776 127.085C99.1504 126.319 98.4343 125.782 97.3092 126.104C96.3952 126.367 95.396 126.381 94.4375 126.351C93.44 126.286 92.447 126.156 91.4639 125.962C91.1602 125.904 90.8675 125.792 90.598 125.63C89.4529 124.973 87.7487 125.386 86.4833 125.011C85.7002 124.778 84.9117 124.59 84.1019 124.468C82.9156 124.288 81.7728 123.901 80.7743 123.236C80.5138 123.063 80.2434 122.897 79.9639 122.753C79.8213 122.679 79.527 122.939 79.2098 123.207C79.009 123.377 78.9872 123.692 79.1755 123.875C79.4156 124.11 79.2695 124.503 79.0229 124.73C78.6764 125.05 78.8741 125.528 79.257 126.092C79.5507 126.526 78.9646 127.017 78.5133 126.752C78.2917 126.621 78.0742 126.5 77.8526 126.387C77.2235 126.066 76.7424 126.387 76.5573 127.031C76.0595 128.667 75.8516 128.843 74.2189 128.638C74.1957 128.635 74.1716 128.633 74.1483 128.634C73.8506 128.645 73.6856 128.961 73.8108 129.231C74.1866 130.042 74.5477 130.819 74.9036 131.59C75.2634 132.369 75.2369 133.337 74.5801 133.89C74.1616 134.242 73.7595 134.396 73.376 134.404C71.7952 134.436 69.8442 133.627 68.9801 132.303C68.5563 131.652 67.9513 131.102 68.2621 130.101C68.4157 129.61 67.2222 128.813 66.6153 128.989C66.0084 129.166 65.753 129.039 65.4829 128.403C65.0832 127.456 63.4993 127.131 62.5815 127.642C62.0911 127.914 61.5804 128.012 61.227 127.342C60.9713 126.856 60.6924 126.388 60.4042 125.891C60.2771 125.672 59.9932 125.602 59.7795 125.737C59.5064 125.911 59.146 125.742 59.1073 125.421C58.9763 124.334 58.8642 123.272 58.6624 122.228C58.5625 121.715 58.2923 121.007 57.9093 120.827C57.3679 120.579 57.0239 120.267 56.8886 119.819C56.7364 119.314 56.3879 118.812 55.8646 118.748C55.1782 118.616 54.5527 118.436 54.4065 117.501C54.2715 116.638 53.5128 116.456 52.9799 116.742C52.1657 117.175 51.4626 116.964 50.7188 116.742C50.2136 116.59 49.8121 116.468 49.4346 117.08C49.3027 117.295 49.043 117.417 48.7171 117.455C47.7838 117.564 47.0017 118.007 46.3445 118.678C45.7731 119.262 44.7674 118.588 44.5999 117.789C44.5886 117.735 44.5774 117.681 44.5662 117.628C44.3932 116.801 43.5385 116.278 42.7323 116.528C42.4663 116.61 42.2171 116.698 41.9758 116.804C41.4136 117.053 40.9692 117.412 40.7011 117.89C40.3046 118.597 39.8759 119.335 39.1447 119.685C38.3065 120.086 37.8106 120.552 38.1862 121.748C38.5871 123.01 38.7756 124.217 39.1657 125.483C39.2551 125.773 39.287 126.106 39.2409 126.497C39.1317 127.42 39.1003 128.355 39.067 129.286C39.0553 129.635 39.0135 129.945 38.8711 130.153C38.606 130.542 38.0961 130.972 38.1757 131.435C38.2226 131.708 38.084 131.897 37.8483 132.042L35.988 133.186C35.8272 133.285 35.6313 133.126 35.6952 132.948C35.7063 132.917 35.7173 132.887 35.7282 132.857C35.767 132.749 35.6734 132.645 35.5605 132.663C35.3015 132.707 34.9018 132.886 34.8037 132.772C33.9414 131.752 33.0107 132.149 32.0689 132.543C31.6501 132.718 31.232 132.895 30.8133 133.073C29.6509 133.566 28.9435 134.758 29.0673 136.015C29.0945 136.29 29.1222 136.571 29.1505 136.858C29.2074 137.434 28.9439 138.012 28.4403 138.298C26.8656 139.183 26.7435 140.778 26.6824 142.396C26.6278 143.162 26.6278 143.931 26.6824 144.697C26.775 145.568 26.2587 145.956 25.6832 146.164C25.0004 146.387 24.2924 146.506 23.5794 146.519C23.3259 146.531 22.965 146.266 22.817 146.016C22.5698 145.629 22.4182 145.179 22.3766 144.711C22.3193 142.923 21.581 141.395 20.8741 139.845C20.7835 139.645 20.678 139.275 20.7557 139.205C21.8659 138.204 20.8871 137.27 20.5355 136.51C20.1654 135.709 19.4882 134.956 18.4871 134.816C17.9764 134.744 17.7618 134.433 17.6489 133.829C17.2529 131.724 16.5924 129.766 15.0769 128.177C14.235 127.294 13.7502 126.032 13.0211 125.011C12.724 124.595 12.2385 124.336 11.8222 124.018C11.7791 123.985 11.7194 123.984 11.6751 124.015C11.5914 124.074 11.476 124.01 11.4804 123.907C11.4993 123.469 11.4948 123.029 11.4668 122.59C11.2559 120.989 10.8766 119.387 10.7989 117.785C10.7322 116.424 9.77005 115.302 10.0809 113.843C10.1616 113.466 9.95877 113.021 9.7871 112.598C9.69087 112.36 9.79205 112.097 10.0118 111.966L10.6477 111.585C10.6954 111.556 10.7208 111.476 10.7489 111.524C11.7407 113.176 12.1533 113.28 13.8945 112.403C14.1869 112.255 14.5958 112.367 14.8808 112.203C15.1657 112.039 15.5284 111.743 15.6024 111.436C15.7431 110.842 16.5073 110.446 17.0838 110.649C17.9167 110.942 18.8028 110.961 19.6207 111.235C19.7168 111.267 19.8223 111.225 19.8631 111.133C19.8999 111.049 19.8699 110.948 19.7923 110.899L19.0711 110.447C18.387 110.018 18.1875 108.879 18.8969 108.493C18.9875 108.444 19.0788 108.411 19.1718 108.399C19.9619 108.301 20.7983 108.557 21.6013 108.733C21.8086 108.779 21.9566 109.094 22.1453 109.268C23.2352 110.285 24.4305 109.812 24.7581 108.287C24.9276 107.489 25.2984 106.456 26.087 106.249C26.2982 106.193 26.568 106.221 26.9082 106.325C27.4746 106.499 27.6999 105.492 27.5021 104.933C27.3727 104.568 27.2527 104.233 27.1284 103.898C26.7867 102.98 26.4363 102.063 26.0774 101.147C26.0459 101.065 25.9571 100.947 25.8923 100.947C24.9024 100.861 25.0412 100.044 25.1799 99.4572C25.4519 98.2979 25.0079 97.8074 24.029 97.5311C23.7755 97.459 23.559 97.0786 23.4036 96.7923C22.6387 95.3521 22.6549 93.64 23.2538 92.1233C23.2612 92.1045 23.2685 92.0858 23.2759 92.0671C23.6496 91.1221 22.7928 90.6814 22.4882 89.9868C22.3439 89.6577 22.5029 89.297 22.7187 89.0097L23.2062 88.3607C23.3106 88.2216 23.4831 88.1514 23.655 88.178C23.805 88.2011 23.9604 88.1531 24.0506 88.031C24.7717 87.0551 24.488 85.3455 23.485 84.5869C23.2419 84.4034 23.0133 84.1979 22.7668 83.9695C22.3622 83.5946 21.8172 83.4318 21.2794 83.3095C20.5392 83.0813 20.4374 82.6809 20.8704 81.9761C21.407 81.1031 21.9066 80.2022 22.4988 79.3732C22.9687 78.7185 23.609 79.173 23.8218 79.5615C23.9372 79.7859 24.0713 79.9513 24.2194 80.0765C24.9236 80.6718 26.2503 79.8103 26.2045 78.8893C26.1767 78.3278 25.8994 77.8231 25.9919 77.2685C26.0579 76.8728 26.121 76.5183 26.2106 76.1637C26.3623 75.5631 26.5714 74.9804 26.7657 74.3918C26.7842 74.3337 26.886 74.2877 26.8823 74.2436C26.7639 72.792 28.0795 72.5398 28.7456 71.7729C29.8059 70.5556 29.5838 68.9979 28.1202 68.3472C27.9162 68.2727 27.8413 68.0055 27.9474 67.816C28.4551 66.9088 27.64 66.1469 27.4874 65.3019C27.4226 64.9395 27.4078 64.483 27.5595 64.1766C27.9814 63.3197 28.4977 62.5128 28.9917 61.6979C29.088 61.5671 29.2162 61.4679 29.3618 61.4116C30.0676 61.0911 30.4752 60.5896 30.5833 59.8831C30.6521 59.4334 30.9574 58.9823 31.399 58.8731C31.709 58.7964 32.021 58.7481 32.3391 58.8606C32.5961 58.9515 33.0588 58.8375 32.9737 58.5785C32.7054 57.7656 33.094 57.5474 33.7361 57.3492C34.2097 57.203 34.7852 56.9488 35.0313 56.5483C35.5032 55.7675 36.1637 55.6313 36.8983 55.5192C37.0519 55.4904 37.1942 55.4131 37.3073 55.2969C38.251 54.3219 38.5489 54.3439 39.5721 55.1508C39.6176 55.1869 39.665 55.2204 39.7141 55.2517C40.3887 55.6823 41.1337 55.0228 41.1091 54.2229C41.1013 53.9701 41.1264 53.7319 41.2239 53.5091C41.3567 53.2053 41.3788 52.816 41.1273 52.5999C40.8006 52.3194 40.8979 51.7073 41.3215 51.6303C41.4073 51.6147 41.4875 51.6116 41.565 51.6269C44.6699 52.2276 47.7323 51.685 50.7909 51.2585C52.9096 50.9622 52.8985 50.8781 53.226 48.5716C53.2943 48.094 53.3654 47.6165 53.4412 47.1221C53.5314 46.5336 54.0006 46.0585 54.5934 46.0048C55.1171 45.9587 55.4594 45.7225 55.563 45.1258C55.6019 44.8309 55.7159 44.5536 55.8924 44.325C56.2468 43.9368 56.5865 43.5767 56.6993 43.0593C56.767 42.749 56.7229 42.4087 56.8849 42.1356C56.9654 42 57.0733 41.886 57.2006 41.8022C58.1961 41.2176 59.3082 40.8211 60.2223 40.1244C60.844 39.6499 61.2862 38.837 61.6693 38.0921C62.1318 37.1972 62.3983 36.2221 63.2587 35.5734C63.8878 35.1009 64.4263 34.6524 65.2627 34.7285C65.8974 34.7865 66.3932 34.4822 66.4913 33.6753C66.5746 32.9846 66.7948 32.3098 66.8614 31.6191C66.9539 30.592 67.5035 29.9392 68.2399 29.3826C68.9933 28.8108 69.8836 28.4439 70.8267 28.5152L73.373 28.7078C73.4903 28.7167 73.5963 28.7811 73.6581 28.8812L73.6669 28.8955C73.7845 29.0861 74.0474 29.1208 74.2105 28.9673C74.3886 28.7998 74.6685 28.8632 74.7472 29.0946C74.8356 29.3542 74.9276 29.5968 75.0937 29.739C75.1233 29.7645 75.1564 29.7853 75.1925 29.8025C75.7687 30.0769 76.3586 30.311 76.5203 30.9283C76.5615 31.0741 76.6014 31.2195 76.6444 31.375C76.7313 31.6895 76.4505 31.9863 76.1326 31.9127C75.8181 31.8398 75.5694 32.1212 75.7328 32.3995C75.8859 32.6601 76.0441 32.8984 76.1039 33.1282C76.2196 33.5731 76.0364 34.1265 76.2902 34.5098C76.5049 34.8342 76.7104 35.1413 76.9219 35.4413C77.2734 35.9398 77.8082 36.4203 78.0025 37.003C78.2449 37.7297 78.2116 38.5587 78.317 39.3415C78.5169 40.8031 78.8722 42.2627 78.8907 43.7243C78.8907 44.8202 79.8312 45.8669 79.1725 46.9895C79.1066 47.1018 79.0256 47.2165 79.0358 47.3463C79.046 47.4757 79.139 47.5794 79.2112 47.6873C79.8155 48.5893 78.9456 49.1057 78.6742 49.841C77.9932 51.687 76.5074 51.8652 75.0622 52.0073C74.2703 52.0854 73.4413 51.649 72.6197 51.5308C71.6502 51.3927 71.2449 50.7039 70.8323 49.867C70.3401 48.8659 69.6388 47.991 69.1207 47.0059C68.7876 46.3672 68.6267 45.6264 68.3806 44.9356C68.2951 44.706 68.1937 44.4838 68.0771 44.2709C68.016 44.1568 67.8347 44.0166 67.8569 43.9706C68.523 42.5931 66.7282 41.8342 67.0205 40.5088C66.883 41.0372 66.7438 41.5675 66.6045 42.0961C66.5929 42.1404 66.549 42.1681 66.504 42.1598C66.4361 42.1471 66.3811 42.2145 66.4071 42.2785C66.4937 42.4918 66.5816 42.7077 66.6734 42.9344C66.7455 43.1123 66.6579 43.3147 66.4791 43.3844C66.3415 43.438 66.2533 43.5733 66.2597 43.7208C66.2881 44.3736 66.3146 45.0019 66.3406 45.6186C66.3777 46.4968 65.8676 47.3066 65.0593 47.6521C64.6767 47.8156 64.3511 48.0886 64.1212 48.4355C63.6399 49.1617 63.1216 49.9355 62.6222 50.726C62.2318 51.3506 61.9783 51.9493 62.687 52.62C62.9016 52.8202 62.8461 53.481 62.7591 53.8914C62.587 54.6923 62.8997 56.1719 63.4993 56.5944C63.8823 56.8627 64.3541 57.0448 64.7372 56.5123C65.1232 55.9798 65.1828 55.3083 64.9485 54.6938C64.8807 54.516 64.8402 54.3538 64.8519 54.1957C64.9019 53.526 64.8731 52.7733 65.2108 52.2631C65.6957 51.5307 66.9988 52.1664 67.3801 52.9577C67.946 54.1321 67.632 55.6547 68.4933 56.6333C68.5037 56.6451 68.5142 56.6568 68.5249 56.6684C68.6219 56.7764 68.7332 56.8697 68.8554 56.9545C69.4887 57.3939 70.4071 56.9457 70.5862 56.1959C70.923 54.7944 71.5743 54.1937 72.9288 54.1537C74.0501 54.1197 75.1751 54.1717 76.2983 54.1317C77.1145 54.1043 77.9135 54.3465 78.2643 55.084C78.4332 55.4392 78.6029 55.7997 78.7704 56.1639C78.8351 56.31 78.7537 56.5263 78.7574 56.7105C78.7611 56.8947 78.7389 57.207 78.8203 57.2451C78.9092 57.2845 79.005 57.3023 79.101 57.2971C79.2932 57.2867 79.4509 57.1546 79.5993 57.032C80.2643 56.4824 80.9053 55.8994 81.52 55.2849C81.7051 55.1027 81.7254 54.6562 81.6866 54.3519C81.5811 53.519 81.8716 52.9384 82.5322 52.5339C82.5839 52.4967 82.6334 52.456 82.6802 52.4118C84.0471 51.2939 85.6467 50.3146 85.0448 48.0988C85.0012 47.9383 85.1717 47.6466 85.28 47.7727C86.0886 48.7958 86.9194 49.8009 87.6855 50.8581C88.3257 51.7411 88.1758 53.2887 87.3876 53.9995C87.2025 54.1697 86.6992 54.2418 86.5456 54.1016C86.4608 54.0255 86.3769 53.9587 86.294 53.9006C84.9659 52.9695 83.7739 55.0354 83.6757 56.6544C83.6589 56.9214 83.7333 57.1858 83.8848 57.3972C84.1303 57.6546 84.4096 57.8712 84.7138 58.0399C85.5372 58.5745 86.2699 58.6967 86.9601 57.7176C87.1726 57.4209 87.4523 57.1817 87.7535 56.9439C88.1661 56.618 88.7231 56.6775 89.1892 56.9207C89.688 57.181 90.2817 56.6374 90.8371 56.7269C91.411 56.8194 91.9651 56.9066 92.5223 56.9548C93.5308 57.0408 94.5429 57.0449 95.5532 57.0849C96.2545 57.1129 96.9595 57.1109 97.6571 57.175C97.7168 57.1805 97.7764 57.1861 97.8359 57.192C98.8424 57.2915 99.2674 58.5152 98.5743 59.2516L98.3185 59.5235C98.1682 59.6831 97.9437 59.7494 97.7308 59.6969L97.3948 59.6141C97.3176 59.5951 97.2374 59.6318 97.2013 59.7026C97.1625 59.779 97.186 59.8723 97.2563 59.9212C97.7606 60.2718 98.2631 60.6289 98.7748 60.9676C98.8875 61.0422 99.0116 61.1163 99.1458 61.0998C99.2133 61.0916 99.2785 61.0682 99.3372 61.0312C100.41 60.4125 101.993 60.7509 102.827 61.7099C103.031 61.9442 103.443 62.0503 103.767 62.0683C104.478 62.1084 105.194 62.0443 105.908 62.0423C106.733 62.0423 107.098 62.4682 107.117 63.2339C107.123 63.4849 107.059 63.6747 106.831 63.78C106.165 64.0877 106.887 64.5289 107.604 64.3736C107.869 64.3163 108.14 64.2827 108.414 64.2494C108.998 64.1784 109.424 63.7034 109.486 63.1182C109.555 62.4682 109.623 61.8338 109.688 61.2252C109.757 60.5691 109.667 59.9057 109.416 59.2955C109.165 58.6854 108.916 58.0821 108.695 57.4673C108.423 56.7105 109.033 56.266 109.418 55.8796C109.751 55.5352 110.199 55.7715 110.343 56.296C110.573 57.157 110.858 58.0179 110.946 58.8989C110.971 59.1368 110.888 59.3866 110.769 59.669C110.651 59.952 110.937 60.1975 111.201 60.0405C111.338 59.9591 111.513 59.9871 111.618 60.1065C112.79 61.438 114.05 62.7621 115.167 64.2147C115.732 64.9475 116.052 65.8465 116.736 66.5713C117.393 67.264 117.695 68.3852 118.032 69.3643C118.349 70.2884 118.54 71.2857 118.777 72.2568C118.802 72.36 118.891 72.4348 118.997 72.4425C119.077 72.4482 119.155 72.4146 119.206 72.3524L119.777 71.6503C120.391 70.8956 120.237 69.798 120.173 68.8271C120.145 68.4017 120.228 67.9579 120.398 67.4923C120.434 67.3951 120.439 67.2859 120.418 67.1715C120.243 66.1821 118.912 64.68 119.725 64.0891C120.205 63.7397 120.686 63.474 120.915 62.9259C121.168 62.32 121.419 61.7188 121.681 61.096C121.767 60.8909 121.673 60.6545 121.47 60.564C121.211 60.4486 121.143 60.1085 121.33 59.8946C121.785 59.3723 122.19 58.8584 122.709 58.5385C124.426 57.4693 126.007 56.292 127.111 54.464C127.993 53.0076 129.958 52.7281 131.477 53.4984C131.553 53.5371 131.629 53.5753 131.706 53.6131C132.792 54.1477 133.229 55.337 132.587 56.4021C131.815 57.6835 130.871 58.8568 130.181 60.1823C129.862 60.848 129.778 61.6169 129.946 62.3446C130.294 63.6541 129.72 64.6031 129.219 65.6302C128.849 66.3831 128.466 67.1299 128.125 67.8987C127.785 68.6676 127.596 69.5745 127.135 70.2613C126.342 71.4486 126.488 72.6239 127.05 73.7291C127.548 74.7081 127.145 75.2387 126.569 75.8694C126.273 76.1938 126.118 76.6703 125.86 77.0347C125.548 77.4892 125.246 77.9797 124.846 78.3341C124.045 79.0449 123.168 79.6576 122.347 80.3363C121.456 81.0766 120.452 82.2278 119.519 81.5413C119.366 81.4291 119.221 81.2883 119.084 81.1212C119.082 81.1184 119.08 81.1154 119.079 81.112C118.895 80.6918 119.075 80.2024 118.659 80.0069C118.107 79.7466 117.435 80.1617 117.595 80.7514C117.717 81.2001 117.954 81.5723 118.407 81.8499C119.332 82.4186 120.258 83.0012 121.223 83.4877C121.408 83.5778 121.849 83.3216 122.038 83.0873C122.387 82.6728 122.702 82.5147 123.259 82.3625C124.184 82.1062 125.383 81.896 125.798 80.6086C125.872 80.3743 126.014 80.04 126.19 79.9879C127.827 79.4894 127.764 77.9477 128.057 76.6202C128.142 76.2358 128.149 75.8194 128.292 75.465C128.64 74.598 129.112 73.9533 130.187 74.1435C130.375 74.1767 130.565 74.1943 130.758 74.2022C131.768 74.2432 132.605 74.9527 132.667 75.9615C132.709 76.6392 132.75 77.303 132.792 77.9573C132.814 78.2946 133.163 78.5087 133.474 78.3766C133.66 78.2978 133.779 78.1135 133.775 77.9117C133.744 76.142 133.752 74.3558 131.893 73.2766C131.509 73.0538 131.16 72.8882 130.834 72.8563C130.384 72.8122 129.894 72.9258 129.478 72.7495C128.853 72.4854 128.527 71.7938 128.717 71.143C129.088 69.8659 129.468 68.5471 129.913 67.252C130.072 66.7915 130.614 66.4952 130.875 66.0507C131.136 65.6062 131.371 65.1217 131.375 64.6492C131.375 63.6481 131.232 62.647 131.156 61.6579C131.111 61.3993 131.31 61.1785 131.471 60.9712C132.068 60.2029 132.552 59.306 133.66 59.1492C134.859 58.977 135.27 58.4484 135.529 57.147C135.628 56.6483 135.774 56.1613 135.904 55.6707C135.927 55.5862 136 55.5247 136.087 55.5179C136.195 55.5096 136.29 55.5861 136.311 55.6917C136.378 56.0205 136.477 56.361 136.426 56.6564C136.189 58.0299 136.241 59.5276 134.988 60.5106C134.803 60.6548 134.988 61.2494 134.874 61.5978C134.596 62.508 134.766 63.4924 135.546 64.0376L136.536 64.7293C137.179 65.1788 138.051 64.6841 137.32 64.3989C136.21 63.9624 135.542 61.6919 136.306 60.7709C136.535 60.4946 137.027 60.4606 137.405 60.3344C137.867 60.1779 138.332 60.0356 138.796 59.8893C138.896 59.8575 138.959 59.7571 138.944 59.6525C138.935 59.5909 138.9 59.5362 138.847 59.5024L138.706 59.411C138.276 59.1323 138.384 58.4743 138.882 58.3488L138.925 58.3378C139.261 58.253 139.6 58.4661 139.669 58.8055L139.7 58.9583C139.771 59.3087 140.082 59.5483 140.431 59.625C141.851 59.9369 142.472 61.3133 143.017 62.699C143.315 63.4538 143.546 64.0345 144.44 64.1166C144.866 64.1569 145.273 64.4524 145.686 64.6785C145.78 64.73 146.02 64.6499 145.933 64.5871C145.128 63.9724 144.875 63.1415 144.995 62.1104C145.017 61.9322 144.758 61.6859 144.59 61.5097C143.86 60.7843 143.476 59.7761 143.612 58.756C143.73 57.865 143.843 57.0324 143.981 56.2039C144.166 55.3373 145.001 54.804 145.884 54.8776L152.038 55.3909C152.785 55.4531 153.68 55.0474 153.516 54.3166C153.41 53.8455 153.029 53.5154 152.702 53.1676C152.482 52.9336 152.582 52.5823 152.87 52.44C153.175 52.289 153.276 51.9019 153.082 51.6214L152.594 50.9143C152.552 50.8537 152.551 50.7738 152.591 50.7122C152.637 50.6426 152.724 50.6131 152.802 50.6405L153.378 50.8417C153.744 50.9698 154.152 50.8589 154.404 50.5641C154.532 50.4144 154.665 50.2593 154.805 50.0938C154.96 49.9108 154.916 49.6335 154.713 49.5059L154.663 49.4749C154.504 49.3745 154.37 48.9876 154.558 49.0061C155.535 49.0461 156.408 48.9 157.239 48.1952C158.016 47.5345 159.001 47.3563 160.048 47.3102C160.91 47.2713 161.766 47.028 162.672 46.788C163.019 46.6959 163.099 46.2245 162.796 46.0303L162.73 45.9879C162.675 45.9528 162.638 45.8968 162.628 45.8326C162.61 45.7161 162.685 45.6056 162.798 45.5732C163.381 45.407 163.969 45.1498 164.535 45.2019C165.334 45.2736 166.109 45.5355 166.804 45.9688C167.749 46.5694 168.438 46.6095 169.231 45.7225C169.331 45.6107 169.429 45.5197 169.527 45.4507C169.799 45.2583 170.401 44.6199 170.269 44.3136C170.19 44.1301 170.332 43.9754 170.53 43.952C171.203 43.8725 171.803 43.8136 172.39 43.6843C172.575 43.6422 172.88 43.2117 172.834 43.0836C172.364 41.8443 173.221 41.0394 173.735 40.2305C174.435 39.1293 175.08 37.8459 176.439 37.4795C176.733 37.3994 177.14 37.6016 177.441 37.7778C177.622 37.8827 177.8 37.9942 177.978 38.1111C178.65 38.5524 178.697 39.5288 178.09 40.0569L177.544 40.5328C177.502 40.5692 177.486 40.6272 177.504 40.6798C177.525 40.7448 177.591 40.7839 177.659 40.7716L178.286 40.6565C178.363 40.6425 178.429 40.7112 178.413 40.7874C178.4 40.8435 178.434 40.8997 178.489 40.9157L179.306 41.1525C179.795 41.2941 180.104 41.7752 180.03 42.2786L179.84 43.5582C179.804 43.8066 180.212 44.1762 180.263 43.9305C180.548 42.561 181.571 42.6311 182.535 42.529C183.013 42.4789 183.481 42.2587 183.957 42.2447C184.432 42.2307 184.987 42.1526 185.287 42.7953C185.403 43.0093 185.527 43.2183 185.658 43.4218C185.784 43.6173 186.063 43.6248 186.099 43.395C186.137 43.1508 186.472 43.0139 186.595 43.2284C187.1 44.1107 187.507 44.8354 187.94 45.5403C188.866 47.0319 188.521 48.6437 188.368 50.2374C188.361 50.696 187.968 51.0264 187.672 51.3765C186.797 52.411 186.22 53.7223 185.002 54.5081C184.145 55.0627 183.666 56.274 182.998 57.173C182.616 57.7141 182.201 58.2272 181.756 58.7087C180.924 59.5736 180.037 60.3785 179.197 61.2354C179.03 61.4582 179.251 61.7161 179.528 61.6904L181.404 61.5167C181.919 61.469 182.35 61.1777 182.647 60.7541C182.89 60.4082 183.221 60.1041 183.827 60.0982C184.053 60.0982 184.277 59.9304 184.502 59.7518C184.656 59.6291 184.629 59.3689 184.449 59.289C184.394 59.2647 184.35 59.2212 184.323 59.1677C184.123 58.7717 183.753 58.2387 183.86 58.08C184.143 57.6795 184.662 57.4313 185.12 57.201C185.586 56.9669 186.047 57.614 186.414 57.9844C186.615 58.1883 186.927 58.3028 187.298 58.3543C187.437 58.3738 187.549 58.3711 187.64 58.3503C188.266 58.2061 188.665 57.7269 189.001 58.2753C189.225 58.6406 189.735 58.8319 190.111 58.6266C190.4 58.4691 190.707 58.3037 191.018 58.1461C191.338 57.9839 191.684 57.7456 192.011 57.7456C193.227 57.7817 194.441 57.8938 195.651 58.0059C195.761 58.0221 195.87 58.0405 195.98 58.0611C196.376 58.1359 196.595 58.5481 196.473 58.932C196.349 59.3203 196.574 59.7372 196.968 59.8425C197.134 59.887 197.3 59.9297 197.468 59.968C198.038 60.0982 198.674 60.0762 199.168 60.3545C199.946 60.7929 200.392 60.0501 201.006 59.954C201.272 59.9134 201.536 59.8505 201.806 59.7783C202.39 59.6223 202.76 59.0837 202.797 58.4804C202.853 57.7456 202.814 56.9668 203.038 56.29C203.461 54.9986 203.867 54.8485 204.977 55.5692C205.961 56.2099 206.872 56.2239 207.897 55.7374C208.182 55.6033 208.652 55.7174 208.961 55.8796C209.642 56.238 210.387 56.5863 210.896 57.155C211.372 57.6835 211.592 58.4844 211.892 59.1812C212.077 59.6117 212.158 60.0962 212.363 60.5146C212.493 60.7777 212.622 61.035 212.682 61.2839C212.846 61.9585 212.844 62.7265 213.049 63.39C213.195 63.866 212.918 64.4638 213.199 64.8754C213.567 65.4152 213.97 65.9021 214.449 66.2785C215.569 67.1585 216.882 65.9839 217.021 64.5664C217.134 63.4155 217.25 62.2313 217.369 61.013C217.389 60.8026 217.614 60.6773 217.804 60.7699C218.02 60.8754 218.015 61.1737 217.884 61.3758C217.696 61.6656 217.909 61.9218 218.279 62.1905C219.471 63.0714 220.355 62.9473 221.297 61.5758C221.763 60.8931 222.204 60.4305 223.048 60.7489C223.135 60.7888 223.23 60.8093 223.325 60.8093C223.516 60.8093 223.681 60.6935 223.84 60.5894C224.926 59.8811 226.085 59.4012 227.376 59.3211C227.395 59.3199 227.414 59.3178 227.433 59.3119C227.552 59.2734 227.563 59.1234 227.52 59.0056C227.353 58.5406 227.235 58.1101 227.017 57.7496C226.769 57.3412 226.358 56.9848 226.04 56.5904C225.899 56.4162 225.669 56.1399 225.716 56.0077C225.949 55.363 225.938 54.5762 226.772 54.2738C227.453 54.0276 227.438 53.5971 226.854 53.0725C226.629 52.8677 226.74 52.4812 227.023 52.3696C227.189 52.3042 227.346 52.2455 227.503 52.1996C228.613 51.9112 229.724 51.6229 230.834 51.3767C231.749 51.1634 232.671 50.985 233.597 50.8419C234.128 50.7599 234.33 51.2822 233.881 51.5772C233.86 51.5908 233.84 51.6045 233.819 51.6183C233.385 51.9106 233.703 52.2436 234.146 51.9638C234.576 51.6917 235.107 52.1201 234.932 52.5983L234.297 54.3309C234.266 54.4149 234.306 54.5085 234.387 54.5451C234.471 54.5826 234.569 54.5476 234.61 54.4658C235.153 53.382 235.711 52.3044 236.233 51.2085C237.209 49.1527 238.777 48.7917 240.292 50.3119C240.521 50.5414 240.444 50.9195 240.158 51.0727L239.937 51.191C239.784 51.2731 239.736 51.4697 239.834 51.6134C239.872 51.67 239.93 51.7109 239.993 51.7364C240.129 51.791 240.273 51.864 240.371 51.8191C240.643 51.697 240.902 51.3046 241.124 51.3386C242.249 51.5068 243.365 51.7651 244.477 52.0214C244.719 52.09 244.946 52.2105 245.145 52.3758C246.035 53.0645 246.83 52.6741 247.337 51.9213C248.829 49.7188 251.166 48.7658 253.157 47.3162C253.427 47.1681 253.736 47.1223 254.034 47.1861C254.493 47.2582 254.931 47.4984 255.392 47.5525C256.652 47.7026 257.407 48.4034 257.747 49.7048C257.99 50.6298 258.687 50.1894 259.228 50.1794C260.124 50.1794 260.963 49.7377 261.471 48.9986L262.29 47.805C262.971 46.8139 264.556 46.4216 265.445 45.6124C265.852 45.244 266.402 45.0578 266.857 44.7414C267.147 44.5412 267.629 44.2168 267.597 44.0006C267.505 43.1817 268.039 42.4569 267.749 41.578C267.564 40.9913 268.074 40.5368 268.692 40.3526C269.198 40.2045 269.656 39.9802 269.943 40.695C269.952 40.7126 269.961 40.7302 269.971 40.7477C270.179 41.1433 270.14 41.6398 269.818 41.9494C269.498 42.2572 269.431 42.7868 269.804 43.0284C270.328 43.3677 270.931 43.3032 271.601 42.9635C271.786 42.8734 272.06 42.9374 272.277 42.9975C272.817 43.1437 273.454 42.9181 273.581 42.3728C273.613 42.2343 273.63 42.096 273.622 41.9584C273.557 40.6209 272.824 40.0523 271.527 40.1804C271.333 40.1899 271.184 40.0347 271.111 39.8545L270.882 39.2899C270.515 38.3864 270.863 37.3609 271.703 36.8657C272.318 36.503 272.938 36.1201 273.522 35.6815C274.33 35.052 275.06 34.3117 275.692 33.4791C276.249 32.7699 276.979 32.2446 277.798 31.9635C278.984 31.521 280.096 30.8522 281.284 30.4278C281.958 30.1875 282.726 30.2616 283.445 30.1515C283.84 30.1138 284.225 30.0006 284.583 29.8171C285.292 29.3906 285.962 29.0062 286.745 29.6169C286.796 29.6521 286.853 29.6757 286.913 29.6864C286.973 29.697 287.034 29.6945 287.093 29.679C287.984 29.3987 288.865 29.0783 289.763 28.818C290.159 28.7059 290.603 28.778 290.997 28.6618C291.565 28.5216 292.114 28.3008 292.629 28.0051C293.132 27.6868 293.565 27.4986 294.092 27.871C294.218 27.9611 294.385 28.1133 294.498 28.0832C295.9 27.7148 296.563 28.822 297.377 29.6649C297.508 29.8011 297.815 29.7971 298.032 29.7751C298.174 29.7459 298.315 29.7095 298.454 29.6658C298.644 29.6062 298.707 29.3749 298.593 29.2121C298.566 29.1743 298.54 29.1365 298.513 29.0987C298.317 28.8182 297.818 26.5381 298.156 26.5956C298.311 26.6216 298.606 26.011 298.767 25.6586C299.126 24.8757 299.61 24.5293 300.5 24.4773C301.634 24.4078 302.759 24.1692 303.918 23.9448C304.461 23.8395 304.922 24.1686 304.91 24.7219C304.902 25.1423 304.935 25.571 305.287 25.8764C305.511 26.0712 305.616 26.4305 305.406 26.6409C305.254 26.7931 305.267 27.0317 305.375 27.2173C305.48 27.3971 305.498 27.5727 305.414 27.7847C305.134 28.4849 305.301 29.3188 305.773 29.9064C306.077 30.2847 306.225 30.7964 306.151 31.507C306.094 32.0616 306.364 32.47 307.04 32.1937C307.457 32.0244 307.853 32.5448 307.858 32.9951C307.86 33.2358 307.86 33.471 307.848 33.7054C307.809 34.322 306.496 35.0108 305.68 34.9407C305.337 34.9017 304.993 34.987 304.701 35.183C303.563 36.096 302.493 36.7187 301.081 35.6215C300.424 35.1129 299.686 35.6595 299.231 36.2862C298.894 36.7507 298.728 37.3513 298.45 37.8719C298.327 38.1032 298.192 38.3282 298.044 38.5661C297.819 38.9295 297.264 38.8832 297.058 38.5089C296.892 38.2086 296.522 38.1984 296.189 38.2799C295.634 38.4156 295.384 37.8606 295.186 37.2641C295.157 37.177 295.011 37.0563 294.981 37.1431C294.161 39.1453 294.163 39.1453 296.326 39.5577C296.483 39.5878 296.713 39.7039 296.751 39.834C297.205 41.3377 297.836 42.7893 297.384 44.4711C297.263 44.9319 297.092 45.3158 296.872 45.6316C296.32 46.423 296.039 48.3267 296.794 47.7259C297.322 47.3054 297.997 46.9137 298.585 47.2443C299.154 47.5638 299.721 47.8858 300.276 48.2332C300.531 48.3946 300.784 48.5434 301.032 48.656C301.835 49.0202 302.757 49.2788 303.596 49.5507C304.292 49.7789 304.797 50.0392 304.645 50.9682C304.64 50.9977 304.638 51.0279 304.64 51.0587C304.656 51.5073 304.651 51.9675 304.257 52.1815C301.4 53.3248 301.094 56.0398 300.672 58.7107C300.561 59.4154 300.302 60.0962 300.071 60.7749C299.453 62.6209 299.701 64.545 299.583 66.4391C299.527 67.4062 299.514 68.4033 299.27 69.3223C299.068 70.0771 298.933 70.6838 299.423 71.3525C299.777 71.8358 299.106 72.5424 298.529 72.3826C298.447 72.3597 298.367 72.3326 298.289 72.2995C297.236 71.857 295.212 72.5758 294.644 73.623C293.97 74.8309 293.648 76.2304 293.719 77.6393C293.722 77.6855 293.725 77.7318 293.726 77.778C293.745 78.2903 293.135 78.3998 292.846 77.9764C292.568 77.5702 291.947 77.6315 291.757 78.0855C291.654 78.3339 291.555 78.5775 291.463 78.8233C291.443 78.8761 291.427 78.9304 291.421 78.9865C291.404 79.1383 291.42 79.2928 291.469 79.4373C291.641 80.0476 290.862 80.4432 290.375 80.8494C290.159 81.0301 289.99 81.3072 289.829 81.6237C289.372 82.5307 289.498 83.2255 290.112 84.0524C290.506 84.5849 290.536 85.4419 290.667 86.1647C290.927 87.4881 291.125 88.8276 291.408 90.147C291.498 90.5791 292.215 90.3547 292.587 90.1166C292.847 89.9498 293.15 89.9549 293.457 89.981C293.92 90.0202 294.379 90.3074 294.482 90.76C294.73 91.8544 294.796 93.0243 295.969 93.623C295.998 93.6377 296.033 93.6342 296.059 93.6143L296.248 93.4667C296.301 93.4254 296.369 93.4942 296.327 93.5467C296.305 93.574 296.313 93.6143 296.344 93.631C296.743 93.8471 297.182 94.0139 297.514 94.3136C297.793 94.5678 298.145 95.0544 298.082 95.3407C297.888 96.214 296.881 96.7306 296.844 97.6244C296.785 99.0733 297.537 100.6 298.737 101.179C299.597 101.592 299.575 102.324 299.292 103.109C299.042 103.705 298.311 103.983 297.852 104.438C297.569 104.719 297.366 105.135 297.34 105.612C297.258 107.156 297.486 108.599 298.82 109.572C299.357 109.973 299.847 110.311 298.82 110.846C298.387 111.068 298.243 111.885 297.921 112.397C297.286 113.398 297.654 114.089 298.223 115.064C298.755 115.983 298.778 117.351 298.739 118.508C298.689 119.771 298.297 121.019 298.049 122.272C297.976 122.663 297.464 122.794 297.162 122.536C296.549 122.012 295.963 121.543 295.612 120.927C294.372 118.736 292.542 117.159 290.917 115.375C288.345 112.564 286.125 109.4 284.313 105.964C283.668 104.737 283.331 103.444 283.614 101.944C283.935 100.225 284.006 97.0645 284.448 95.3729C284.668 94.5336 284.79 93.6543 284.931 92.7859C285.02 92.2373 285.048 91.6747 285.094 91.1181C285.105 90.9939 285.129 90.8177 285.066 90.7477C284.254 89.8327 284.67 88.8296 284.839 87.8285C285.065 86.495 285.287 85.1576 285.424 83.8101C285.481 83.2415 285.152 82.5948 285.292 82.0742C285.542 81.1532 286.032 80.3063 286.388 79.4173C286.595 78.9738 286.448 78.4608 286.298 77.9948C286.226 77.7719 286.149 77.5513 286.066 77.333C286.034 77.2389 286.016 77.0847 285.958 77.0647C284.889 76.6903 285.033 75.495 284.561 74.7222C283.867 73.5913 283.714 73.3283 283.821 72.439C283.863 72.0944 283.466 71.8625 283.205 72.0913C283.161 72.1293 283.164 72.2374 283.12 72.2655C281.664 73.1765 282.807 74.2677 283.003 75.2347C283.068 75.5571 283.603 75.7493 283.856 76.0616C284.238 76.5321 283.592 77.2084 283.219 77.6861C283.009 77.9564 282.943 78.3504 282.877 78.7726C282.641 80.3525 282.333 81.9187 281.955 83.4656C281.875 83.7944 281.426 83.8269 281.297 83.514C281.221 83.3282 281.005 83.2504 280.805 83.2572C280.149 83.2795 279.574 82.5905 279.478 81.6217C279.433 81.1646 279.332 80.7108 279.249 80.2572C279.234 80.1771 279.169 80.1155 279.088 80.106C279.008 80.0965 278.931 80.1408 278.898 80.2151L278.73 80.5985C278.601 80.8929 278.298 81.0683 277.977 81.0483C276.966 80.9851 276.867 81.158 276.037 82.3885C275.79 82.7077 275.486 82.9704 275.145 83.1614C274.727 83.4237 274.01 85.2036 274.242 85.6661C274.527 86.2287 274.63 86.7433 274.353 87.356C274.245 87.6381 274.245 87.9548 274.353 88.2369C274.791 89.2701 274.31 90.145 274.075 91.0981C273.904 91.9002 273.853 92.7271 273.925 93.5467C273.943 93.8222 273.995 94.095 274.058 94.3569C274.179 94.8521 274.772 95.0172 275.206 94.75C275.833 94.3616 276.336 94.6119 276.566 95.2626C276.762 95.8092 276.686 96.3558 275.937 96.4319C275.798 96.4459 275.681 96.6541 275.548 96.7602C275.274 96.9765 275.017 97.3128 274.714 97.3609C273.91 97.5151 273.385 97.8034 273.374 98.8125C273.374 99.0788 272.972 99.3731 272.71 99.5933C272.34 99.9037 271.938 100.162 271.544 100.434C271.15 100.707 270.759 101.047 270.321 101.185C270.251 101.207 270.091 100.904 269.929 100.597C269.807 100.367 269.86 100.078 270.062 99.9139C270.309 99.7125 270.323 99.3333 270.074 99.1341C269.341 98.5488 269.119 98.7245 268.546 99.6674C268.435 99.8496 267.943 99.7575 267.621 99.8136C266.881 99.9477 265.943 99.8556 265.46 100.31C264.637 101.081 264.478 102.931 263.498 103.49C263.004 103.771 262.509 104.045 262.007 104.304C261.745 104.435 261.444 104.486 261.146 104.532C260.858 104.576 260.639 104.801 260.591 105.088C260.587 105.113 260.582 105.138 260.578 105.164C260.492 105.673 259.885 105.896 259.491 105.562C259.268 105.374 258.949 105.353 258.702 105.506C257.421 106.299 255.981 107.105 254.689 108.123C254.147 108.545 253.703 109.097 253.392 109.736C253.081 110.374 252.91 111.083 252.894 111.805C252.874 112.317 252.533 112.806 252.348 113.318C252.213 113.689 251.978 114.069 251.978 114.436C252.095 117.038 250.561 119.041 249.839 121.351C249.686 121.809 249.56 122.278 249.46 122.753C249.051 124.919 248.535 127.011 247.286 128.871C246.99 129.31 246.742 129.785 246.515 130.276C245.852 131.707 246.488 133.483 247.842 132.675C248.529 132.261 248.977 132.357 249.308 133.168C249.399 133.385 249.497 133.599 249.602 133.809C249.847 134.302 250.47 134.085 250.744 133.607C250.811 133.49 250.896 133.383 251.003 133.286C251.22 133.091 251.492 133.335 251.412 133.616C251.337 133.876 251.564 134.123 251.83 134.07L251.844 134.067C252.126 134.011 252.362 134.282 252.266 134.553C252.26 134.572 252.253 134.591 252.246 134.61C252.117 134.976 252.5 135.258 252.769 134.98C253.325 134.406 253.684 133.762 253.804 133.187C253.917 132.639 254.096 132.011 254.575 131.722C254.878 131.538 255.18 131.354 255.477 131.164C255.98 130.841 257.028 131.228 257.649 131.841C258.007 132.193 258.504 132.399 258.965 132.607C259.607 132.898 260.353 133.008 260.897 133.434C260.994 133.51 261.048 133.649 261.082 133.826C261.227 134.583 261.329 135.348 261.664 136.042C261.77 136.262 261.882 136.477 262 136.69C262.168 136.96 262.503 137.114 262.794 137.297C262.871 137.346 262.973 137.34 263.041 137.277C263.094 137.228 263.115 137.152 263.096 137.082C262.785 135.981 262.579 134.824 262.111 133.807C261.626 132.759 261.445 132.286 261.766 131.982C262.318 131.456 263.054 130.996 262.869 130.257C262.738 129.733 262.461 129.304 261.992 129.005C261.668 128.798 261.464 128.421 261.663 128.092C261.884 127.724 262.44 127.669 262.676 128.028C262.965 128.47 263.243 128.893 263.526 129.308C263.855 129.836 264.214 130.342 264.601 130.821C265.736 132.113 266.256 133.699 266.552 135.384C266.593 135.732 266.71 136.064 266.895 136.352C267.079 136.64 267.325 136.876 267.612 137.04C267.946 137.275 268.24 137.569 268.482 137.911C270.089 139.913 271.673 141.916 273.292 143.904C273.69 144.385 274.102 144.858 274.529 145.341C274.862 145.717 274.457 146.259 273.99 146.072C273.065 145.704 272.156 146.056 271.757 146.899C271.701 147.015 271.599 147.159 271.625 147.259C272.127 149.151 271.524 151.36 272.893 152.978C273.651 153.873 274.63 154.559 275.544 155.292C276.004 155.645 276.606 155.734 276.823 156.271L277.551 158.072C277.58 158.146 277.553 158.23 277.486 158.272C277.417 158.315 277.326 158.301 277.273 158.24C277.15 158.099 277.025 157.96 276.919 157.809C276.349 156.996 275.648 156.774 274.797 157.196C274.044 157.571 274.416 158.265 274.462 158.838C274.557 160.006 273.535 160.054 273.035 158.994C272.751 158.393 272.537 157.754 272.399 157.09C272.258 156.405 271.833 155.791 271.553 155.134C271.421 154.882 271.335 154.606 271.3 154.319C271.248 152.839 270.8 151.598 269.623 150.715C269.416 150.531 269.264 150.285 269.187 150.008C268.631 148.277 268.111 146.527 267.532 144.803C267.347 144.252 266.977 143.776 266.753 143.237C266.585 142.86 266.482 142.453 266.452 142.036C266.42 141.249 266.183 140.646 265.565 140.166C264.894 139.643 264.256 139.067 263.576 138.475C263.328 138.259 262.946 138.384 262.917 138.712C262.894 139.401 262.89 140.09 262.904 140.778C262.919 141.333 262.877 141.92 263.027 142.436C263.678 144.681 264.472 146.881 265.062 149.145C265.617 151.264 265.948 153.364 265.291 155.645C264.688 157.745 264.551 160.013 264.337 162.222C264.096 164.676 263.31 166.949 262.579 169.251C262.249 170.291 262.024 171.366 261.696 172.405C261.128 174.207 260.614 176.051 259.905 177.797C259.11 179.738 257.783 181.216 256.356 182.376C255.912 182.737 255.332 182.877 254.765 182.799L253.476 182.623C253.297 182.599 253.161 182.503 253.129 182.325C253.084 182.078 252.824 181.88 252.595 181.983C251.562 182.447 251.035 183.291 250.994 184.5C250.985 184.778 250.789 185.024 250.512 185.061C250.291 185.091 250.113 185.256 250.065 185.474C250.064 185.482 250.062 185.489 250.06 185.497C249.954 185.986 249.31 186.106 249.036 185.687L248.636 185.076C248.479 184.836 248.438 184.525 248.608 184.294C248.657 184.228 248.709 184.166 248.766 184.108C249.656 183.353 249.852 182.266 249.623 181.124C249.273 179.37 248.625 177.775 247.852 176.211C247.785 176.079 247.72 175.851 247.781 175.755C248.213 175.066 248.572 174.257 249.162 173.774C249.595 173.418 250.34 173.478 250.951 173.398C251.321 173.348 251.726 173.47 252.061 173.352C252.32 173.262 252.644 172.951 252.69 172.677C252.828 171.807 252.912 170.928 252.942 170.046C253.007 168.625 253.162 167.185 253.029 165.78C252.927 164.716 252.704 163.673 252.994 162.755C253.201 162.098 253.348 161.355 253.003 160.758L252.951 160.667C252.562 159.994 251.348 159.41 251.073 160.137C250.664 161.207 249.721 161.491 249.012 162.11C248.893 162.214 248.688 162.286 248.657 162.412C248.137 164.492 246.188 164.13 244.904 164.881C244.419 165.165 243.44 164.14 243.174 163.327C243.028 162.878 242.756 162.478 242.574 162.042Z" fill="#2871FF"/>
<path d="M104.35 51.7396C104.368 51.6848 104.354 51.6243 104.313 51.5837C103.994 51.2683 103.634 50.9801 103.386 50.6081C103.155 50.258 102.858 49.7218 102.962 49.4077C103.087 49.0314 103.568 48.7873 103.913 48.4939C103.935 48.4748 103.967 48.4714 103.993 48.4862C104.054 48.5214 104.122 48.4529 104.086 48.3922L103.854 47.9947C103.791 47.888 103.646 47.868 103.557 47.9538L103.37 48.1337C103.13 48.366 102.719 48.2126 102.688 47.8795C102.651 47.4689 102.622 47.0632 102.645 46.661C102.677 46.0987 102.923 45.6088 102.757 45.0707C102.495 44.2242 102.758 43.3508 103.518 42.7359C104.148 42.2245 105.652 42.6581 106.201 42.0594C106.381 41.8625 106.518 41.632 106.575 41.3364C106.661 40.8953 106.976 40.4673 107.416 40.3773C107.722 40.2707 108.013 40.117 108.28 39.9212C108.437 39.8071 108.585 39.423 108.65 39.445C109.33 39.6962 109.899 39.3774 110.44 39.1131C110.673 38.9989 110.972 38.1127 110.788 37.9293C110.714 37.8559 110.7 37.742 110.754 37.6531C110.783 37.6048 110.812 37.5567 110.841 37.5087C110.901 37.4093 110.994 37.3337 111.105 37.3L113.087 36.6974C113.355 36.6158 113.609 36.4938 113.841 36.3355L114.816 35.6693C114.958 35.5721 115.028 35.4068 115.075 35.2411C115.176 34.882 115.51 34.8893 115.949 35.0384C116.12 35.0965 116.285 34.913 116.195 34.7563C116.147 34.6731 116.17 34.5672 116.248 34.5113L116.648 34.225C116.708 34.1817 116.701 34.0896 116.635 34.0563C116.59 34.0342 116.569 33.9825 116.585 33.9356L116.833 33.2206C116.947 32.892 117.379 32.8197 117.593 33.0933C117.749 33.292 118.04 33.3188 118.229 33.1519L118.652 32.7796C118.721 32.719 118.821 32.7114 118.898 32.7611L119.196 32.9524C119.256 32.9913 119.332 32.9334 119.311 32.8648C119.299 32.8283 119.316 32.789 119.351 32.772C119.904 32.4972 120.439 32.113 121.02 32.001C122.093 31.801 123.198 31.791 124.286 31.6569C124.682 31.5816 125.072 31.4758 125.453 31.3404C125.499 31.3243 125.527 31.2798 125.524 31.2317C125.519 31.1498 125.606 31.0861 125.684 31.1117C125.781 31.1433 125.873 31.1783 125.924 31.2508C126.875 32.5632 128.247 32.1771 129.513 32.3791C130.779 32.5812 131.715 31.965 132.751 31.5529C133.629 31.2048 134.317 31.6409 134.917 32.1051C135.308 32.4071 135.345 32.9533 134.98 33.5855C134.044 35.2039 132.697 35.726 131.034 35.728C129.407 35.728 127.774 35.698 126.154 35.8221C124.938 35.9411 123.731 36.1604 122.546 36.4782C122.201 36.5643 121.878 36.9684 121.645 37.3045C121.326 37.7646 120.04 38.1567 119.519 38.1047C119.005 38.0784 118.495 38.2177 118.055 38.5048C117.499 38.8549 117.082 39.411 116.572 39.8412C116.344 40.0347 115.989 39.9122 115.778 40.1236C114.952 40.9491 114.068 41.7526 112.776 41.8477C112.693 41.8477 112.605 41.9637 112.535 42.0477C111.716 42.964 110.771 43.6482 109.755 44.3304C108.88 44.9125 108.356 46.3089 107.966 47.4552C107.389 49.1511 107.088 50.9148 107.742 52.6638C107.891 53.0619 107.72 53.5272 107.322 53.6759C107.052 53.7767 106.748 53.7026 106.559 53.4855C106.149 53.0151 105.722 52.5113 105.242 52.0745C105.07 51.9206 104.759 51.9422 104.475 51.9299C104.379 51.9258 104.319 51.8305 104.35 51.7396Z" fill="#2871FF"/>
<path d="M221.061 43.413C220.79 43.5261 220.613 43.7498 220.584 44.0419C220.543 44.4485 220.218 44.8127 219.811 44.8502C219.201 44.9064 218.65 44.8452 218.287 44.0407C218.2 43.8406 217.833 43.8226 217.673 43.6406C217.221 43.1273 216.794 42.5883 216.394 42.0261C216.264 41.8064 216.149 41.5762 216.052 41.3375C215.998 41.2072 215.964 41.0697 215.951 40.9295C215.887 40.2619 215.954 39.5865 216.149 38.9473C216.266 38.5625 216.428 38.1965 216.629 37.8578C216.928 37.3544 217.574 37.2366 218.106 37.4813L218.581 37.6996C219.168 37.97 219.851 37.5856 219.937 36.9445C220.015 36.3646 220.591 35.9955 221.127 36.2304C221.146 36.2391 221.166 36.2478 221.186 36.2566C221.836 36.6106 222.411 36.9787 223.148 36.3206C223.36 36.1205 223.964 36.4326 224.387 36.5206C225.162 36.6755 225.735 37.3489 225.709 38.1391C225.703 38.3219 225.694 38.5047 225.682 38.6872C225.643 39.0193 225.398 39.3214 225.261 39.6435C224.969 40.3305 224.775 41.4005 224.151 41.8111C224.074 41.8618 223.997 41.8917 223.919 41.8921C222.848 41.8921 222.19 42.5142 221.484 43.1764C221.368 43.2776 221.224 43.3449 221.061 43.413Z" fill="#2871FF"/>
<path d="M165.675 26.9434C165.598 26.5991 165.396 26.3047 165.131 26.072C164.986 25.9448 164.865 25.8278 164.882 25.798C165.211 25.2078 165.641 24.6796 165.995 24.0815C166.241 23.7014 166.413 23.2133 166.745 22.9652C167.539 22.3695 168.703 22.3438 169.669 22.797C169.793 22.8554 169.864 22.9563 169.844 23.0925C169.803 23.3793 170.119 23.6114 170.357 23.4461L170.64 23.2494C170.824 23.1215 171.076 23.1347 171.224 23.3024C172.344 24.5668 171.79 26.0262 171.533 27.4664C171.428 28.0378 171.413 28.6243 171.49 29.2009C171.627 30.1391 170.858 31.0394 169.981 30.8613C169.796 30.8233 169.574 30.8233 169.444 30.7073C168.504 29.871 167.362 29.4329 166.332 28.7968C165.94 28.5565 165.855 27.7547 165.675 26.9434Z" fill="#2871FF"/>
<path d="M1.39567 108.394C0.333111 107.784 1.73712 106.488 2.07294 105.309C2.29388 104.534 1.73734 103.661 1.01956 102.767C0.940799 102.669 0.956846 102.525 1.05643 102.448C1.1058 102.41 1.16887 102.395 1.2303 102.405L4.43148 102.958C4.53099 102.975 4.62582 102.909 4.64428 102.81C4.6716 102.663 4.85298 102.608 4.95594 102.716C6.27157 104.1 7.29006 105.541 6.95525 107.271C6.82994 107.919 6.93615 108.627 7.43004 109.064L8.18812 109.736C8.61999 110.118 8.51895 110.818 7.99651 111.062C7.66011 111.22 7.26113 111.124 7.01925 110.843C6.71903 110.493 6.40531 110.156 6.07891 109.835C5.73337 109.567 5.33809 109.384 4.9205 109.299C3.94558 109.032 2.94102 108.806 1.94201 108.594C1.72954 108.549 1.54885 108.482 1.39567 108.394Z" fill="#2871FF"/>
<path d="M167.234 22.3608C166.26 22.5797 166.047 23.7781 165.24 24.3667C164.689 24.7685 163.875 24.4061 163.473 23.8555C163.448 23.8213 163.423 23.7868 163.398 23.7523C163.228 23.4862 163.007 23.1521 163.04 22.872C163.068 22.628 163.395 22.3979 163.626 22.2178C163.748 22.1374 163.871 22.06 163.995 21.9859C164.247 21.8365 164.259 21.4645 164.008 21.3154C163.795 21.1891 163.765 20.8929 163.943 20.721C164.27 20.4049 164.586 20.0754 164.89 19.7332C165.1 19.4771 165.368 18.969 165.261 18.7909C164.759 17.8907 165.446 17.6026 165.891 17.2045C166.563 16.5946 167.265 16.0237 167.993 15.494C168.119 15.406 168.629 15.6681 168.751 15.8941C169.243 16.7961 169.68 17.7317 170.06 18.6949C170.158 18.949 169.989 19.3491 169.874 19.6571C169.713 20.1133 169.331 20.5534 169.342 20.9895C169.364 21.8657 168.972 22.0458 168.286 22.1498C167.935 22.2092 167.585 22.2821 167.234 22.3608Z" fill="#2871FF"/>
<path d="M174.737 28.8488C174.668 29.1003 174.999 29.3013 175.181 29.1147C175.284 29.0094 175.456 29.0193 175.545 29.1367C175.993 29.7279 176.399 30.3041 176.858 30.8218C177.52 31.558 177.229 33.4225 176.323 33.7026C175.285 34.0327 174.204 34.2148 173.172 34.5568C172.723 34.7069 172.368 35.143 171.93 35.3571C171.65 35.4951 171.12 35.6211 171.016 35.4831C170.813 35.215 170.675 34.6969 170.785 34.3908C171.307 32.9084 171.932 31.468 172.495 30.0036C172.621 29.6815 172.579 29.2734 172.738 28.9813C173.011 28.4224 173.369 27.9166 173.797 27.4849C173.971 27.3229 174.512 27.4849 174.797 27.653C174.923 27.733 174.877 28.2291 174.823 28.5172C174.796 28.6282 174.767 28.7387 174.737 28.8488Z" fill="#2871FF"/>
<path d="M8.95117 52.4556C9.80561 52.0395 10.4339 51.7174 11.0919 51.4233C11.179 51.3853 11.3329 51.4613 11.4348 51.5233C12.1762 51.9754 12.9046 52.4356 13.633 52.8897L12.4505 53.0377L12.8935 53.7779C14.1019 53.0177 14.2724 53.1317 14.3762 54.5501C14.4522 55.7024 14.5912 56.8488 14.7024 57.9871C14.2039 58.2311 13.7757 58.5272 13.3031 58.6352C13.1523 58.6391 13.0027 58.605 12.8663 58.5355C12.7299 58.4661 12.6103 58.3632 12.5172 58.2351C11.3273 56.3786 10.1874 54.4781 8.95117 52.4556Z" fill="#2871FF"/>
<path d="M276.943 23.9544C275.92 24.509 275.058 25.359 274.63 24.2765C274.237 23.2838 274.304 22.0564 274.916 21.1876C275.542 20.2974 276.172 19.7292 277.269 19.7873C278.215 19.8333 278.802 20.5015 278.443 21.4637C278.103 22.366 277.983 23.4022 276.943 23.9544Z" fill="#2871FF"/>
<path d="M227.212 36.4204C227.273 36.2235 227.518 36.1868 227.665 36.3318C227.812 36.4772 228.058 36.4396 228.172 36.2675C228.5 35.7759 228.842 35.5353 229.237 35.5401C229.901 35.5483 230.727 35.3889 231.387 35.3182C231.661 35.2889 231.954 35.333 232.245 35.3657C232.682 35.4149 233.155 35.636 233.208 36.0728C233.305 36.8751 232.826 37.5937 231.871 38.1219C230.44 38.9221 229.031 38.59 227.626 38.1219C227.145 37.9492 226.987 37.1431 227.212 36.4204Z" fill="#2871FF"/>
<path d="M131.914 4.58522C132.009 4.37462 132.286 4.35293 132.456 4.50965C132.669 4.70609 132.933 4.5948 132.828 4.32474C132.718 4.04026 132.585 3.77496 132.733 3.61204C132.861 3.47089 133.087 3.52853 133.259 3.60964L135.038 4.4472C135.114 4.48298 135.205 4.45997 135.255 4.39229C135.311 4.31648 135.297 4.21028 135.221 4.15481C135.009 4.00023 134.777 3.85261 134.624 3.6694C134.229 3.19591 135.12 3.24341 135.724 3.11922C135.962 3.0702 136.183 2.8537 136.383 2.41422C136.417 2.3382 136.986 2.41421 137.171 2.58626C137.529 2.91818 137.029 3.49525 136.609 3.7436C135.929 4.14583 135.53 4.78918 135.481 5.51333C135.417 6.45676 135.308 7.2721 134.436 6.90574C134.36 6.87378 134.283 6.85169 134.203 6.8465C134.052 6.83674 133.899 6.87147 133.749 6.85616L132.862 6.76561C132.588 6.73765 132.428 6.44233 132.554 6.19752C132.648 6.01575 132.584 5.79579 132.409 5.68863C132.005 5.44024 131.658 5.15242 131.914 4.58522Z" fill="#2871FF"/>
<path d="M124.472 4.61234C124.294 4.54764 124.267 4.30841 124.424 4.20303C124.516 4.14084 124.552 4.02169 124.502 3.9222C124.347 3.61519 124.165 3.34391 124.229 3.19369C124.309 3.05303 124.417 2.93307 124.546 2.8422C124.674 2.75132 124.818 2.69171 124.97 2.66755C125.711 2.58152 126.47 2.61553 127.22 2.58353C127.406 2.58353 127.684 2.53951 127.724 2.43349C128.14 1.3413 128.738 1.48348 129.398 1.82204C129.659 1.95623 129.736 2.29655 129.574 2.54192C129.477 2.68854 129.467 2.87238 129.542 3.03096C129.548 3.04397 129.555 3.05705 129.561 3.07023C129.73 3.42495 129.502 3.84086 129.112 3.89051L126.869 4.17626C126.503 4.22297 126.233 4.5227 125.925 4.7272C125.57 4.96324 125.066 4.82929 124.472 4.61234Z" fill="#2871FF"/>
<path d="M93.5852 53.5464C91.7799 53.5464 91.1182 53.1202 91.1331 52.0139C91.1423 51.3778 92.3359 50.3995 93.1125 50.3955C94.1356 50.3955 94.6361 51.0897 94.6713 52.4521C94.6972 53.4103 94.3062 53.7364 93.5852 53.5464Z" fill="#2871FF"/>
<path d="M288.363 159.157C288.265 159.444 287.716 159.474 287.774 159.176C287.947 158.272 288.193 157.386 288.405 156.49C288.632 155.538 289.785 154.877 290.196 153.989C290.285 153.797 290.355 153.574 290.408 153.327C290.468 153.044 290.979 153.424 291.041 153.707C291.082 153.893 291.102 154.067 291.038 154.193C290.69 154.877 290.189 155.471 289.789 156.128C289.437 156.692 289.121 157.282 288.842 157.892C288.663 158.286 288.52 158.696 288.363 159.157Z" fill="#2871FF"/>
<path d="M139.205 9.9846C138.663 9.66523 138.841 8.90264 139.401 8.6185L140.588 8.01652C140.945 7.83554 141.602 7.83797 141.595 8.23815C141.595 9.09838 141.108 9.72856 140.407 10.1007C140.057 10.2841 139.635 10.2386 139.205 9.9846Z" fill="#2871FF"/>
<path d="M129.196 50.7459C130.199 50.2002 131.783 51.4106 130.867 52.0919C130.556 52.3231 130.092 52.2967 129.461 52.0543C128.968 51.8542 128.757 50.984 129.196 50.7459Z" fill="#2871FF"/>
<path d="M124.663 1.63364C124.568 1.59628 124.485 1.51963 124.471 1.41794C124.468 1.40171 124.465 1.38548 124.462 1.36924C124.358 0.853027 124.777 0.394417 125.304 0.415674C125.65 0.429678 126.069 0.353657 126.416 0.459686C126.762 0.565715 127.19 0.775772 127.305 1.05985C127.474 1.48123 126.648 1.53061 126.195 1.52805C125.707 1.5253 125.155 1.82602 124.663 1.63364Z" fill="#2871FF"/>
<path d="M297.226 123.419C297.333 123.487 297.375 123.622 297.326 123.739L297.075 124.338C296.973 124.582 296.976 124.853 297.034 125.11C297.218 125.924 297.041 126.794 296.36 127.554C296.147 127.795 295.596 127.476 295.663 127.161C295.666 127.146 295.671 127.132 295.678 127.12C295.901 126.743 296.044 126.317 296.096 125.873C296.148 125.429 296.108 124.978 295.978 124.553C295.908 124.306 296.488 123.855 296.885 123.46C296.976 123.37 297.118 123.35 297.226 123.419Z" fill="#2871FF"/>
<path d="M185.849 54.0486C186.441 54.0046 187.689 54.8008 187.718 55.333C187.711 55.4927 187.673 55.6489 187.604 55.7908C187.536 55.9328 187.44 56.0571 187.323 56.1552C187.199 56.2366 187.06 56.2889 186.916 56.3085C186.771 56.3282 186.624 56.3148 186.485 56.2692C185.614 55.9111 185.528 55.539 185.849 54.0486Z" fill="#2871FF"/>
<path d="M291.593 84.2165C291.637 83.5523 292.513 83.0593 292.908 83.5951C293.036 83.7612 292.843 84.2293 292.758 84.5514C292.711 84.7244 292.664 84.8971 292.616 85.0697C292.339 86.07 291.557 86.1327 291.561 85.0949C291.562 84.8258 291.572 84.5328 291.593 84.2165Z" fill="#2871FF"/>
<path d="M286.197 162.721C286.014 163.536 285.157 164.206 285.339 163.391C285.485 162.746 285.636 162.1 285.792 161.427C285.909 160.926 286.283 160.526 286.775 160.377L287.161 160.26C287.192 160.251 287.224 160.251 287.255 160.261C287.353 160.294 287.393 160.412 287.334 160.497C286.847 161.201 286.38 161.911 286.197 162.721Z" fill="#2871FF"/>
<path d="M293.291 148.305C293.399 148.345 293.461 148.458 293.437 148.57L292.93 150.945C292.867 151.24 292.541 151.394 292.272 151.255C292.061 151.146 291.969 150.892 292.061 150.673C292.383 149.903 292.692 149.167 292.998 148.433C293.046 148.319 293.175 148.262 293.291 148.305Z" fill="#2871FF"/>
<path d="M222.646 46.6896C222.515 46.1293 223.158 45.593 223.655 45.8842C223.858 46.0033 223.909 46.1883 223.89 46.5511C223.867 46.9803 223.509 47.4048 223.103 47.2644C222.867 47.1829 222.718 46.9953 222.646 46.6896Z" fill="#2871FF"/>
<path d="M214.332 41.8677C214.144 41.4357 214.864 40.5586 214.947 41.0225C215.018 41.5483 215.056 42.0788 215.061 42.6101C215.062 42.7113 214.984 42.7953 214.883 42.8036C214.8 42.8104 214.722 42.7637 214.689 42.6873C214.577 42.4313 214.463 42.1693 214.332 41.8677Z" fill="#2871FF"/>
<path d="M138.259 1.97618C137.89 2.02257 137.617 1.63836 137.784 1.30517C137.897 1.07967 138.168 0.984495 138.397 1.09028L139.129 1.42903C139.222 1.47176 139.277 1.56871 139.265 1.66986C139.253 1.77743 139.168 1.86209 139.061 1.87557L138.259 1.97618Z" fill="#2871FF"/>
<path d="M129.532 6.1585C129.887 6.15066 130.085 6.54195 129.974 6.87859L129.97 6.89057C129.878 7.16925 129.596 7.33888 129.307 7.28991C129.018 7.24104 128.789 6.98327 128.864 6.70015C128.97 6.3017 129.211 6.16561 129.532 6.1585Z" fill="#2871FF"/>
<path d="M137.792 6.70734C138.2 6.63299 138.522 7.09173 138.179 7.32316C137.99 7.44994 137.802 7.47005 137.609 7.40147C137.245 7.27245 137.412 6.77653 137.792 6.70734Z" fill="#2871FF"/>
<path d="M295.182 143.439C295.25 143.11 295.712 143.06 295.768 143.392C295.788 143.506 295.777 143.617 295.735 143.738C295.604 144.109 295.102 143.824 295.182 143.439Z" fill="#2871FF"/>
<path d="M130.33 4.92676C130.407 4.90211 130.486 4.954 130.495 5.0338C130.54 5.46224 130.586 5.88636 130.632 6.30616C130.64 6.37273 130.717 6.40504 130.77 6.36332C130.85 6.29931 130.952 6.4044 130.886 6.48277C130.836 6.54142 130.784 6.60335 130.728 6.6693C130.668 6.73977 130.553 6.70942 130.536 6.61864C130.423 6.01597 130.333 5.5392 130.245 5.07022C130.233 5.00775 130.27 4.94629 130.33 4.92676Z" fill="#2871FF"/>
<path d="M134.889 54.1304C135.213 54.2076 135.312 54.6198 135.059 54.8358C134.863 55.0032 134.562 54.948 134.438 54.7217C134.269 54.4123 134.546 54.0486 134.889 54.1304Z" fill="#2871FF"/>
<path d="M141.844 4.25882C142.069 4.66008 141.197 4.93173 140.978 4.52762C140.969 4.51143 140.961 4.49498 140.954 4.47822C140.775 4.03026 141.608 3.83794 141.844 4.25882Z" fill="#2871FF"/>
<path d="M218 49.775C217.921 49.884 217.765 49.9021 217.663 49.8143L216.634 48.9297C216.549 48.8561 216.535 48.7289 216.602 48.6384C216.675 48.5397 216.816 48.5224 216.911 48.6004L217.959 49.4616C218.054 49.539 218.071 49.6763 218 49.775Z" fill="#2871FF"/>
<path d="M134.153 11.5913C134.153 11.8939 133.8 12.0589 133.568 11.8646C133.361 11.6912 133.414 11.3595 133.665 11.2599C133.899 11.1671 134.153 11.3395 134.153 11.5913Z" fill="#2871FF"/>
<path d="M296.673 130.67C296.727 131.133 296.107 130.961 296.063 130.496C296.05 130.361 296.038 130.231 296.026 130.102C296.016 129.995 296.096 129.9 296.204 129.892C296.285 129.885 296.362 129.931 296.399 130.004C296.51 130.217 296.645 130.432 296.673 130.67Z" fill="#2871FF"/>
<path d="M25.1653 125.608C24.532 124.55 23.6847 117.787 23.6847 117.154C23.6847 116.521 23.4737 112.082 28.7624 110.602C38.7009 107.642 44.1978 94.1278 44.834 89.252C45.4701 84.3763 50.9642 83.9688 50.9642 83.9688C50.9642 83.9688 52.0599 87.9751 52.9073 89.3532C53.9516 91.1294 54.7828 92.6194 55.8434 94.2838C56.8094 95.7997 57.8288 95.4255 58.8236 96.1076C59.8183 96.7897 61.7759 100.833 62.4323 102.035C63.0887 103.238 60.1364 105.426 60.0265 107.284C59.9166 109.142 58.8236 112.313 57.8375 112.423C56.8515 112.533 51.7328 109.425 49.8538 108.348C47.9981 107.284 45.687 104.472 45.687 104.472" stroke="white" stroke-miterlimit="10" stroke-linecap="round"/>
<path d="M50.957 65.2637C50.957 65.2637 54.0106 71.0441 58.0733 72.4892C62.136 73.9343 62.6623 73.6684 63.8391 77.073C65.016 80.4777 65.3659 83.7937 66.7307 85.0644C67.8239 86.0822 75.6427 90.5558 77.476 92.1367C79.3092 93.7176 83.1117 97.3709 84.8149 104.906C85.6014 108.513 90.5807 108.906 91.107 109.559C91.6333 110.212 97.5206 114.79 100.808 117.016C104.096 119.241 106.24 118.359 107.027 122.682C107.027 125.957 110.311 124.66 112.014 125.839C113.717 127.018 129.641 135.484 133.57 134.166C137.5 132.848 137.812 136.028 139.704 137.29C141.602 138.444 144.339 138.574 145.386 138.444C147.144 138.226 147.331 132.201 150.608 131.414C153.884 130.628 154.147 126.438 155.72 126.568C157.293 126.698 159.252 128.025 160.513 130.351C161.774 132.676 163.042 135.29 165.418 137.441C167.456 139.075 167.456 139.075 170.609 140.967C173.131 142.229 175.023 143.491 176.284 144.753C176.915 145.384 173.937 148.97 173.937 150.016C173.937 151.062 181.146 152.244 182.456 148.707C183.766 145.169 184.552 147.657 184.422 148.97C184.292 150.282 185.732 152.669 188.352 151.082C190.972 149.496 193.727 151.371 194.774 151.608C195.821 151.845 198.967 150.409 199.111 147.657C198.348 144.23 199.609 141.075 199.609 141.075C200.87 138.552 209.698 130.351 212.221 129.089L217.265 126.565C217.265 126.565 222.956 124.151 224.832 124.781C226.709 125.412 227.89 128.879 229.247 129.72C230.697 130.619 234.629 133.675 235.349 136.01C236.069 138.345 239.336 140.444 242.489 139.814C245.011 139.183 247.017 139.787 248.726 139.16C250.435 138.533 255.917 135.206 255.738 134.218C255.559 133.23 245.723 126.719 246.264 123.395" stroke="white" stroke-miterlimit="10" stroke-linecap="round"/>
<path d="M254.244 135.805C253.972 136.432 256.369 148.538 256.372 150.649C256.369 152.954 256.369 152.954 257.631 154.847C258.892 156.74 256.999 158.632 256.999 159.263" stroke="white" stroke-miterlimit="10" stroke-linecap="round"/>
<path d="M258.185 126.037C257.555 126.216 254.683 128.193 253.064 127.924C251.445 127.656 249.834 128.771 249.834 128.771" stroke="white" stroke-miterlimit="10"/>
<path d="M210.3 145.114C210.3 145.114 207.341 144.243 205.624 142.921C203.908 141.598 200.246 140.967 200.246 140.967" stroke="white" stroke-miterlimit="10" stroke-linecap="round"/>
<path d="M206.938 92.875C207.386 93.0542 210.893 96.3808 211.162 98.1756C211.431 99.9704 212.42 105.632 214.039 106.803C215.659 107.973 218.891 111.653 219.163 112.82C219.435 113.988 220.511 116.867 221.141 119.468C221.771 122.069 224.825 124.67 224.825 124.67" stroke="white" stroke-miterlimit="10" stroke-linecap="round"/>
<path d="M132.776 125.826C132.776 126.031 132.143 129.611 132.143 130.873C132.143 132.135 133.404 134.658 133.404 134.658" stroke="white" stroke-miterlimit="10" stroke-linecap="round"/>
<path d="M130.053 143.411C130.258 142.66 130.883 140.138 132.169 138.631C133.405 137.183 133.405 134.659 133.405 134.659" stroke="white" stroke-miterlimit="10" stroke-linecap="round"/>
<path d="M123.494 92.4277C123.494 92.4277 120.162 93.3471 118.27 94.2834C116.379 95.2197 114.764 96.2288 113.226 96.8068C111.687 97.3849 107.599 99.4538 105.473 99.7428C103.348 100.032 98.7331 96.6619 96.7089 95.2197C94.6848 93.7775 93.6777 93.0216 93.6777 93.0216" stroke="white" stroke-miterlimit="10" stroke-linecap="round" stroke-linejoin="round"/>
<path d="M132.144 108.793C132.144 108.793 131.209 108.702 128.502 109.474C125.796 110.245 118.901 106.269 117.428 105.528C114.866 104.241 107.255 100.945 105.751 100.121C105.731 100.11 105.709 100.105 105.686 100.106C105.663 100.107 105.642 100.114 105.623 100.127C105.604 100.14 105.59 100.158 105.581 100.179C105.572 100.2 105.569 100.223 105.572 100.245C105.743 101.312 105.029 104.377 104.43 107.066C103.582 110.875 100.807 116.893 100.807 116.893" stroke="white" stroke-miterlimit="10" stroke-linecap="round" stroke-linejoin="round"/>
<path d="M76.0714 121.779C75.8053 121.852 75.6495 122.128 75.7233 122.394C75.7971 122.66 76.0726 122.816 76.3387 122.742L76.0714 121.779ZM89.895 117.625L89.8196 118.12C89.9642 118.142 90.1113 118.099 90.2219 118.004C90.3326 117.908 90.3959 117.769 90.395 117.622L89.895 117.625ZM90.533 112.859L90.997 113.045L91.0017 113.033L90.533 112.859ZM91.6112 109.429C91.6056 109.153 91.3772 108.934 91.1011 108.94C90.8251 108.945 90.6058 109.174 90.6114 109.45L91.6112 109.429ZM76.2051 122.26C76.3387 122.742 76.3388 122.742 76.3389 122.742C76.339 122.742 76.3391 122.742 76.3392 122.742C76.3395 122.742 76.3398 122.742 76.3402 122.742C76.3411 122.742 76.3423 122.741 76.3439 122.741C76.347 122.74 76.3516 122.739 76.3575 122.737C76.3693 122.734 76.3866 122.729 76.409 122.722C76.4539 122.709 76.5195 122.691 76.6031 122.666C76.7704 122.617 77.0104 122.544 77.3028 122.452C77.8871 122.267 78.6834 122.001 79.5297 121.675C80.3743 121.35 81.2776 120.963 82.0724 120.534C82.855 120.111 83.5821 119.623 84.0283 119.081L83.2562 118.445C82.9376 118.833 82.3527 119.246 81.5974 119.654C80.8543 120.055 79.994 120.425 79.1705 120.742C78.3486 121.058 77.5725 121.318 77.0013 121.499C76.716 121.589 76.4824 121.659 76.3207 121.707C76.2398 121.73 76.177 121.749 76.1346 121.761C76.1134 121.767 76.0973 121.771 76.0867 121.774C76.0814 121.776 76.0774 121.777 76.0749 121.778C76.0736 121.778 76.0726 121.778 76.0721 121.778C76.0718 121.778 76.0716 121.779 76.0715 121.779C76.0714 121.779 76.0714 121.779 76.0714 121.779C76.0714 121.779 76.0714 121.779 76.2051 122.26ZM84.0283 119.081C84.3221 118.724 84.7973 118.46 85.4059 118.281C86.0095 118.103 86.6982 118.022 87.3613 117.997C88.0215 117.972 88.6387 118.003 89.092 118.04C89.3181 118.059 89.5021 118.079 89.6287 118.094C89.692 118.102 89.7408 118.108 89.7733 118.113C89.7895 118.115 89.8017 118.117 89.8095 118.118C89.8134 118.119 89.8162 118.119 89.8179 118.119C89.8187 118.119 89.8193 118.12 89.8196 118.12C89.8197 118.12 89.8198 118.12 89.8198 118.12C89.8198 118.12 89.8198 118.12 89.8198 118.12C89.8197 118.12 89.8196 118.12 89.895 117.625C89.9704 117.131 89.9703 117.131 89.9702 117.131C89.9701 117.131 89.9699 117.131 89.9698 117.131C89.9695 117.131 89.9691 117.131 89.9687 117.131C89.9679 117.131 89.9667 117.13 89.9653 117.13C89.9624 117.13 89.9585 117.129 89.9534 117.128C89.9432 117.127 89.9287 117.125 89.9099 117.122C89.8725 117.117 89.8183 117.11 89.7495 117.102C89.6118 117.085 89.4148 117.063 89.1743 117.043C88.6942 117.004 88.035 116.971 87.3233 116.998C86.6143 117.025 85.8355 117.112 85.1233 117.322C84.4161 117.53 83.7273 117.873 83.2562 118.445L84.0283 119.081ZM89.895 117.625C90.395 117.622 90.395 117.622 90.395 117.622C90.395 117.622 90.395 117.622 90.395 117.622C90.395 117.622 90.395 117.622 90.395 117.622C90.395 117.622 90.395 117.622 90.395 117.621C90.395 117.62 90.395 117.618 90.395 117.615C90.395 117.61 90.395 117.601 90.395 117.59C90.395 117.568 90.3951 117.535 90.3955 117.492C90.3962 117.405 90.398 117.28 90.4022 117.123C90.4106 116.81 90.4284 116.376 90.4663 115.892C90.5435 114.908 90.6996 113.783 90.9968 113.045L90.0692 112.672C89.71 113.564 89.5471 114.823 89.4694 115.814C89.4298 116.319 89.4113 116.771 89.4026 117.096C89.3982 117.259 89.3963 117.391 89.3955 117.483C89.3951 117.529 89.395 117.565 89.395 117.589C89.395 117.601 89.395 117.611 89.395 117.617C89.395 117.621 89.395 117.623 89.395 117.625C89.395 117.626 89.395 117.627 89.395 117.627C89.395 117.628 89.395 117.628 89.395 117.628C89.395 117.628 89.395 117.628 89.395 117.628C89.395 117.628 89.395 117.628 89.895 117.625ZM91.0017 113.033C91.4294 111.88 91.6362 110.658 91.6112 109.429L90.6114 109.45C90.6339 110.553 90.4482 111.65 90.0643 112.685L91.0017 113.033Z" fill="white"/>
<path d="M84.4685 103.41C84.4685 103.41 82.5485 106.633 81.0159 107.725C79.4834 108.818 76.9677 109.367 76.2043 109.913C75.4409 110.459 71.9392 109.257 68.877 109.913C65.8147 110.569 64.233 110.896 62.8913 110.896C61.5496 110.896 57.8281 112.428 57.8281 112.428" stroke="white" stroke-miterlimit="10"/>
<path d="M62.4238 102.035C62.4238 102.035 65.3021 101.584 66.5633 102.035C67.8244 102.485 67.8569 104.569 69.7162 105.009C71.5755 105.448 71.8302 106.192 72.9233 107.284C73.9584 108.23 75.0548 109.106 76.2052 109.908" stroke="white" stroke-miterlimit="10"/>
<path d="M58.8145 96.1067C58.8145 96.1067 66.5784 95.5835 68.8773 93.6182C71.1761 91.6529 77.4769 92.017 77.4769 92.017L77.4075 90.8841C77.3381 89.7482 76.7511 83.8869 76.2046 81.8089C75.6581 79.7308 76.861 77.7626 77.954 76.2337C79.047 74.7048 80.0331 71.3203 78.94 68.4735C77.847 65.6266 80.3598 64.1035 80.3598 64.1035" stroke="white" stroke-miterlimit="10" stroke-linecap="round"/>
<path d="M76.2051 109.908C76.2051 109.908 86.8664 114.879 89.8766 117.668" stroke="white" stroke-miterlimit="10"/>
<path d="M84.1662 49.0923C80.1498 48.0374 77.611 50.7831 75.7083 53.5317C73.8056 56.2802 69.0865 57.6934 66.406 59.2398C63.4112 60.8478 50.9648 65.156 50.9648 65.156C50.9648 65.156 53.0815 77.8382 50.9648 83.9683C48.8482 90.0984 47.3705 99.821 45.679 104.471C43.9874 109.122 41.249 114.827 41.6625 118.419C42.076 122.012 43.0534 125.818 41.6191 126.876" stroke="white" stroke-miterlimit="10" stroke-linecap="round" stroke-linejoin="round"/>
</svg>
