<svg width="308" height="187" viewBox="0 0 308 187" fill="none" xmlns="http://www.w3.org/2000/svg"><path d="M242.574 162.042c-.346-.834-.97-1.523-1.813-1.845-.547-.208-1.081-.408-1.617-.602-.146-.052-.333.026-.502.036-.418.026-.925.22-1.236.038-.662-.38-1.263-.384-1.952-.182-1.436.424-1.436.4-2.117-1.021a22.119 22.119 0 00-1.145-2.251c-.834-1.335-1.756-2.603-2.59-3.94-.461-.729-.779-1.568-1.266-2.275-.487-.706-1.11-1.347-1.688-2.002-.695-.789-1.498-1.023-2.457-.542-.135.068-.37-.044-.538-.107-.798-.282-1.579-.65-2.406-.832-.405-.089-.877.156-1.316.26-.625.15-1.252.298-1.874.472-1.329.373-2.537.977-3.455 2.117-.244.302-.555.558-.74.899-.257.622.178 1.222.818 1.43.072.023.114.044.113.061-.048.771 1.155 1.238.459 2.123-1.519 1.936-1.645 4.404-2.256 6.687-.059.218-.151.514-.066.677.555 1.047-.147 1.501-.772 2.02-.468.388-.925.801-1.351 1.227-.351.355-.657 1.075-.984 1.077-.818 0-1.727-.134-2.43-.544a3.474 3.474 0 00-2.483-.447c-.73.13-1.478.057-2.176-.21-1.874-.819-3.443-.31-4.372 1.694-.295.635-.687.929-1.296 1.147-1.554.563-3.062 1.278-4.625 1.802-.676.222-1.455.2-2.175.132a25.672 25.672 0 01-3.43-.506c-.446-.1-.872-.463-1.236-.801-.724-.657-1.251-1.62-2.371-1.602a.122.122 0 01-.081-.044c-1.09-1.52-2.818-1.261-4.28-1.65-.703-.186-1.595.134-2.328.433-1.412.576-2.716.088-4.024-.295-.85-.25-2.067-2.402-2.143-3.391-.028-.355-.22-.861-.477-1.001-2.086-1.106-4.206-2.141-6.314-3.204a.878.878 0 00-1.086.26c-.713.937-1.476 1.88-2.043 2.942-.281.528-.094 1.495.146 2.15.344.943.147 2.26-.666 2.785-1.009.655-2.311.513-3.445.11a6.754 6.754 0 00-2.506-.388c-.786.012-1.589-.319-2.361-.581-.185-.064-.329-.448-.403-.715-.479-1.752-.544-1.816-2.307-1.896-.561-.025-.763-.035-.931-.252-.268-.346-.543-.694-.954-.845a1.629 1.629 0 00-1.204.048c-.09.039-.182.074-.275.104-.467.159-.942.286-1.423.381a4.708 4.708 0 01-1.259.076c-.378-.037-.685-.064-.835.248-.111.231-.103.518-.28.703a.728.728 0 01-.311.194c-.195.034-.368.063-.523.092-1.915.35-3.573 1.678-5.519 1.626-.129 0-.264.236-.394.366a1.665 1.665 0 01-.612.426 1.56 1.56 0 01-1.415-.126 1.728 1.728 0 01-.552-.547c-.711-1.07-1.882-1.644-3.15-1.849-1.145-.2-1.356-1.201-1.743-2.178a43.255 43.255 0 00-2.189-4.499c-.37-.695-1.001-.989-1.83-.739-2.342.707-3.515.098-4.479-2.229-.124-.298-.498-.4-.771-.227l-.441.279a.993.993 0 01-1.505-.65c-.186-.964-.356-1.84-.518-2.719-.405-2.225-.716-4.475-1.227-6.672-.264-1.137-.862-2.188-1.332-3.267-.257-.592-.542-1.169-.835-1.783a.466.466 0 01.119-.556l.092-.078c.202-.172.199-.678-.057-.606-1.008.278-1.993.74-3.014.861-1.227.144-2.43 1.509-3.743.152a.361.361 0 00-.14-.085c-.594-.214-1.425-.389-1.157-.961.1-.212.273-.416.416-.629a.655.655 0 00-.033-.754c-.232-.321-.496-.528-.833-.48-.386.055-.861-.061-.868-.451.057-.801-.359-.853-.97-.939-.438-.06-.904-.442-1.21-.819-.15-.186.024-.687.078-1.041.155-1.001.35-2.002.457-3.003.019-.164-.381-.565-.501-.529-.674.2-.9-.26-1.262-.705-.628-.766-1.344-1.303-2.469-.981-.914.263-1.913.277-2.871.247a23.124 23.124 0 01-2.974-.389 2.642 2.642 0 01-.866-.332c-1.145-.657-2.85-.244-4.115-.619a17.441 17.441 0 00-2.381-.543c-1.186-.18-2.33-.567-3.328-1.232a8.571 8.571 0 00-.81-.483c-.143-.074-.437.186-.754.454a.456.456 0 00-.034.668c.24.235.093.628-.153.855-.347.32-.149.798.234 1.362.294.434-.292.925-.744.66a12.04 12.04 0 00-.66-.365c-.63-.321-1.11 0-1.296.644-.498 1.636-.705 1.812-2.338 1.607a.418.418 0 00-.07-.004c-.298.011-.463.327-.338.597.376.811.737 1.588 1.093 2.359.36.779.333 1.747-.324 2.3-.418.352-.82.506-1.204.514-1.58.032-3.532-.777-4.396-2.101-.424-.651-1.029-1.201-.718-2.202.154-.491-1.04-1.288-1.647-1.112-.607.177-.862.05-1.132-.586-.4-.947-1.984-1.272-2.902-.761-.49.272-1 .37-1.354-.3-.256-.486-.535-.954-.823-1.451a.447.447 0 00-.625-.154.438.438 0 01-.672-.316c-.13-1.087-.243-2.149-.445-3.193-.1-.513-.37-1.221-.753-1.401-.541-.248-.885-.56-1.02-1.008-.153-.505-.501-1.007-1.024-1.071-.687-.132-1.312-.312-1.459-1.247-.134-.863-.893-1.045-1.426-.759-.814.433-1.517.222-2.261 0-.505-.152-.907-.274-1.284.338-.132.215-.392.337-.718.375-.933.109-1.715.552-2.373 1.223-.57.584-1.577-.09-1.744-.889l-.034-.161c-.173-.827-1.028-1.35-1.834-1.1-.266.082-.515.17-.756.276-.562.249-1.007.608-1.275 1.086-.396.707-.825 1.445-1.556 1.795-.839.401-1.334.867-.959 2.063.401 1.262.59 2.469.98 3.735.09.29.121.623.075 1.014-.11.923-.14 1.858-.174 2.789-.012.349-.053.659-.196.867-.265.389-.775.819-.695 1.282.047.273-.092.462-.328.607l-1.86 1.144a.2.2 0 01-.293-.238l.033-.091c.039-.108-.055-.212-.168-.194-.259.044-.658.223-.756.109-.863-1.02-1.793-.623-2.735-.229-.419.175-.837.352-1.256.53a2.888 2.888 0 00-1.746 2.942l.084.843c.056.576-.207 1.154-.71 1.44-1.575.885-1.697 2.48-1.759 4.098a16.182 16.182 0 000 2.301c.093.871-.423 1.259-.999 1.467a7.194 7.194 0 01-2.104.355c-.253.012-.614-.253-.762-.503a2.906 2.906 0 01-.44-1.305c-.058-1.788-.796-3.316-1.503-4.866-.09-.2-.196-.57-.118-.64 1.11-1.001.131-1.935-.22-2.695-.37-.801-1.048-1.554-2.049-1.694-.51-.072-.725-.383-.838-.987-.396-2.105-1.057-4.063-2.572-5.652-.842-.883-1.327-2.145-2.056-3.166-.297-.416-.783-.675-1.199-.993a.125.125 0 00-.147-.003.124.124 0 01-.195-.108c.02-.438.015-.878-.013-1.317-.211-1.601-.59-3.203-.668-4.805-.067-1.361-1.029-2.483-.718-3.942.08-.377-.122-.822-.294-1.245a.512.512 0 01.225-.632l.636-.381c.047-.029.073-.109.1-.061.993 1.652 1.405 1.756 3.147.879.292-.148.7-.036.986-.2.285-.164.647-.46.721-.767.141-.594.905-.99 1.482-.787.833.293 1.719.312 2.537.586a.195.195 0 00.242-.102.189.189 0 00-.07-.234l-.722-.452c-.684-.429-.884-1.568-.174-1.954a.792.792 0 01.275-.094c.79-.098 1.626.158 2.43.334.207.046.355.361.543.535 1.09 1.017 2.285.544 2.613-.981.17-.798.54-1.831 1.329-2.038.211-.056.481-.028.821.076.567.174.792-.833.594-1.392-.13-.365-.25-.7-.374-1.035-.341-.918-.692-1.835-1.05-2.751-.032-.082-.12-.2-.186-.2-.99-.086-.85-.903-.712-1.49.272-1.16-.172-1.65-1.151-1.926-.253-.072-.47-.452-.625-.739-.765-1.44-.75-3.152-.15-4.669l.022-.056c.374-.945-.483-1.386-.788-2.08-.144-.33.015-.69.23-.977l.488-.65a.471.471 0 01.449-.182.408.408 0 00.396-.147c.72-.976.437-2.686-.566-3.444a9.393 9.393 0 01-.718-.618c-.405-.374-.95-.537-1.488-.66-.74-.228-.842-.628-.409-1.333.537-.873 1.037-1.774 1.629-2.603.47-.654 1.11-.2 1.323.188.115.225.25.39.397.515.705.596 2.031-.266 1.985-1.187-.027-.561-.305-1.066-.212-1.62.066-.396.129-.75.219-1.105.151-.6.36-1.184.555-1.772.018-.058.12-.104.116-.148-.118-1.452 1.197-1.704 1.864-2.471 1.06-1.217.838-2.775-.626-3.426-.204-.074-.279-.341-.173-.531.508-.907-.307-1.67-.46-2.514-.064-.363-.08-.819.073-1.125.421-.857.938-1.664 1.432-2.48a.836.836 0 01.37-.285c.706-.32 1.113-.822 1.221-1.529.07-.45.374-.9.816-1.01.31-.077.622-.125.94-.012.257.09.72-.023.635-.282-.269-.813.12-1.032.762-1.23.474-.146 1.05-.4 1.295-.8.472-.782 1.133-.918 1.867-1.03a.77.77 0 00.41-.222c.943-.975 1.24-.953 2.264-.146.046.036.093.07.142.1.675.431 1.42-.228 1.395-1.028a1.623 1.623 0 01.115-.714c.133-.304.155-.693-.097-.91-.326-.28-.23-.892.194-.969a.648.648 0 01.244-.003c3.105.6 6.167.058 9.226-.369 2.119-.296 2.108-.38 2.435-2.686.068-.478.14-.956.215-1.45.09-.588.56-1.063 1.152-1.117.524-.046.866-.283.97-.88.039-.294.153-.571.33-.8.354-.388.694-.748.806-1.266.068-.31.024-.65.186-.923.08-.136.188-.25.316-.334.995-.584 2.107-.98 3.021-1.678.622-.474 1.064-1.287 1.447-2.032.463-.895.73-1.87 1.59-2.519.629-.472 1.167-.92 2.004-.845.634.058 1.13-.246 1.228-1.053.084-.69.304-1.365.37-2.056.093-1.027.642-1.68 1.379-2.236.753-.572 1.644-.94 2.587-.868l2.546.193a.368.368 0 01.285.173l.009.014c.117.191.38.226.543.072a.324.324 0 01.537.128c.089.26.18.502.347.644a.44.44 0 00.099.063c.576.275 1.166.509 1.327 1.126l.124.447a.433.433 0 01-.511.538c-.315-.073-.564.208-.4.487.153.26.311.498.37.728.117.445-.067.998.187 1.382.215.324.42.631.632.931.351.499.886.98 1.08 1.562.243.727.21 1.556.315 2.339.2 1.461.555 2.92.574 4.382 0 1.096.94 2.143.281 3.266-.065.112-.146.227-.136.356.01.13.103.233.175.341.605.902-.265 1.419-.537 2.154-.68 1.846-2.167 2.024-3.612 2.166-.792.078-1.62-.358-2.442-.476-.97-.138-1.375-.827-1.788-1.664-.492-1.001-1.193-1.876-1.711-2.861-.333-.639-.494-1.38-.74-2.07a5.059 5.059 0 00-.304-.665c-.061-.114-.242-.254-.22-.3.666-1.378-1.129-2.137-.837-3.462-.137.528-.276 1.059-.415 1.587a.087.087 0 01-.101.064.087.087 0 00-.097.119l.266.655a.344.344 0 01-.194.45.345.345 0 00-.22.337c.03.653.056 1.28.082 1.898a2.114 2.114 0 01-1.282 2.033 2.131 2.131 0 00-.938.783c-.481.727-1 1.5-1.499 2.291-.39.625-.644 1.223.065 1.894.215.2.16.861.072 1.271-.172.801.14 2.28.74 2.703.383.269.855.45 1.238-.082.386-.532.446-1.204.212-1.818a1.166 1.166 0 01-.097-.498c.05-.67.021-1.423.359-1.933.485-.732 1.788-.097 2.17.695.565 1.174.251 2.697 1.112 3.675l.032.035c.097.108.208.202.33.287.634.439 1.552-.01 1.731-.76.337-1.4.988-2.001 2.343-2.041 1.121-.034 2.246.018 3.37-.022.816-.028 1.614.215 1.965.952.17.355.339.716.506 1.08.065.146-.016.362-.013.547.004.184-.018.496.063.534a.61.61 0 00.281.052c.192-.01.35-.142.498-.265a27.468 27.468 0 001.921-1.747c.185-.182.205-.629.167-.933-.106-.833.185-1.414.845-1.818a1.43 1.43 0 00.148-.122c1.367-1.118 2.967-2.097 2.365-4.313-.044-.16.127-.452.235-.326.809 1.023 1.64 2.028 2.406 3.085.64.883.49 2.43-.298 3.142-.186.17-.689.242-.842.102a2.684 2.684 0 00-.252-.201c-1.328-.932-2.52 1.134-2.618 2.753a1.15 1.15 0 00.209.743c.245.258.525.474.829.643.823.535 1.556.657 2.246-.322.213-.297.492-.536.794-.774.412-.326.97-.267 1.435-.023.499.26 1.093-.284 1.648-.194.574.092 1.128.18 1.685.228 1.009.086 2.02.09 3.031.13.701.028 1.407.026 2.104.09l.179.017c1.006.1 1.431 1.323.738 2.06l-.255.271a.607.607 0 01-.588.174l-.336-.083a.171.171 0 00-.139.307c.505.35 1.007.708 1.519 1.047.112.074.237.148.37.132a.464.464 0 00.192-.069c1.073-.618 2.656-.28 3.49.679.204.234.616.34.94.358.711.04 1.427-.024 2.141-.026.825 0 1.19.426 1.209 1.192.006.25-.058.44-.286.546-.666.308.056.749.773.594.265-.058.536-.091.81-.125.584-.07 1.01-.546 1.072-1.13l.202-1.894a3.977 3.977 0 00-.272-1.93c-.251-.61-.5-1.213-.721-1.828-.272-.756.338-1.201.723-1.587.333-.345.781-.108.925.416.23.861.515 1.722.603 2.603.025.238-.058.488-.177.77-.118.283.168.529.432.372a.33.33 0 01.417.066c1.172 1.331 2.432 2.655 3.549 4.108.565.733.885 1.632 1.569 2.356.657.693.959 1.814 1.296 2.793.317.924.508 1.922.745 2.893a.244.244 0 00.22.185.248.248 0 00.209-.09l.571-.702c.614-.754.46-1.852.396-2.823-.028-.425.055-.87.225-1.335a.604.604 0 00.02-.32c-.175-.99-1.506-2.492-.693-3.083.48-.35.961-.615 1.19-1.163.253-.606.504-1.207.766-1.83a.41.41 0 00-.211-.532.427.427 0 01-.14-.67c.455-.522.86-1.036 1.379-1.355 1.717-1.07 3.298-2.247 4.402-4.075.882-1.456 2.847-1.736 4.366-.966.076.04.152.077.229.115 1.086.535 1.523 1.724.881 2.79-.772 1.28-1.716 2.454-2.406 3.78a3.305 3.305 0 00-.235 2.162c.348 1.31-.226 2.258-.727 3.285-.37.753-.753 1.5-1.094 2.269-.34.769-.529 1.675-.99 2.362-.793 1.188-.647 2.363-.085 3.468.498.98.095 1.51-.481 2.14-.296.325-.451.801-.709 1.166-.312.454-.614.945-1.014 1.3-.801.71-1.678 1.323-2.499 2.001-.891.74-1.895 1.892-2.828 1.205a2.416 2.416 0 01-.44-.429c-.184-.42-.004-.91-.42-1.105-.552-.26-1.224.155-1.064.744.122.45.359.821.812 1.099.925.569 1.851 1.151 2.816 1.638.185.09.626-.166.815-.4.349-.415.664-.573 1.221-.725.925-.257 2.124-.467 2.539-1.754.074-.235.216-.569.392-.621 1.637-.499 1.574-2.04 1.867-3.368.085-.384.092-.8.235-1.155.348-.867.82-1.512 1.895-1.322.188.034.378.051.571.06 1.01.04 1.847.75 1.909 1.758.042.678.083 1.342.125 1.996a.49.49 0 00.983-.045c-.031-1.77-.023-3.556-1.882-4.635-.384-.223-.733-.389-1.059-.42-.45-.045-.94.069-1.356-.108a1.337 1.337 0 01-.761-1.606c.371-1.277.751-2.596 1.196-3.891.159-.46.701-.757.962-1.201.261-.445.496-.93.5-1.402 0-1-.143-2.002-.219-2.991-.045-.259.154-.48.315-.687.597-.768 1.081-1.665 2.189-1.822 1.199-.172 1.61-.7 1.869-2.002.099-.499.245-.986.375-1.476a.207.207 0 01.183-.153.214.214 0 01.224.174c.067.328.166.669.115.964-.237 1.374-.185 2.872-1.438 3.855-.185.144 0 .738-.114 1.087-.278.91-.108 1.894.672 2.44l.99.691c.643.45 1.515-.045.784-.33-1.11-.437-1.778-2.707-1.014-3.628.229-.276.721-.31 1.099-.437.462-.156.927-.298 1.391-.445a.216.216 0 00.051-.387l-.141-.091a.587.587 0 01.176-1.062l.043-.011a.608.608 0 01.744.468l.031.152c.071.35.382.59.731.667 1.42.312 2.041 1.688 2.586 3.074.298.755.529 1.335 1.423 1.418.426.04.833.335 1.246.561.094.052.334-.028.247-.09-.805-.616-1.058-1.446-.938-2.478.022-.178-.237-.424-.405-.6-.73-.726-1.114-1.734-.978-2.754a77.11 77.11 0 01.369-2.552c.185-.867 1.02-1.4 1.903-1.326l6.154.513c.747.062 1.642-.344 1.478-1.074-.106-.471-.487-.802-.814-1.15-.22-.233-.12-.585.168-.727a.559.559 0 00.212-.819l-.488-.707a.181.181 0 01.208-.274l.576.202a.942.942 0 001.026-.278l.401-.47a.394.394 0 00-.092-.588l-.05-.031c-.159-.1-.293-.487-.105-.469.977.04 1.85-.106 2.681-.81.777-.661 1.762-.84 2.809-.886.862-.039 1.718-.282 2.624-.522.347-.092.427-.563.124-.758l-.066-.042a.225.225 0 01-.102-.155.235.235 0 01.17-.26c.583-.166 1.171-.423 1.737-.371a5.158 5.158 0 012.269.767c.945.6 1.634.64 2.427-.247.1-.111.198-.202.296-.271.272-.193.874-.831.742-1.137-.079-.184.063-.339.261-.362.673-.08 1.273-.138 1.86-.268.185-.042.49-.472.444-.6-.47-1.24.387-2.045.901-2.854.7-1.1 1.345-2.384 2.704-2.75.294-.08.701.122 1.002.298.181.105.359.216.537.333.672.441.719 1.418.112 1.946l-.546.476a.136.136 0 00-.04.147.137.137 0 00.155.092l.627-.115a.11.11 0 01.127.13.109.109 0 00.076.129l.817.237c.489.141.798.622.724 1.126l-.19 1.28c-.036.248.372.617.423.372.285-1.37 1.308-1.3 2.272-1.402.478-.05.946-.27 1.422-.284.475-.014 1.03-.092 1.33.55.116.214.24.423.371.627.126.195.405.203.441-.027.038-.244.373-.381.496-.167.505.883.912 1.607 1.345 2.312.926 1.492.581 3.104.428 4.697-.007.459-.4.79-.696 1.14-.875 1.034-1.452 2.345-2.67 3.131-.857.555-1.336 1.766-2.004 2.665a15.055 15.055 0 01-1.242 1.536c-.832.865-1.719 1.67-2.559 2.526-.167.223.054.481.331.455l1.876-.173c.515-.048.946-.34 1.243-.763.243-.346.574-.65 1.18-.656.226 0 .45-.168.675-.346.154-.123.127-.383-.053-.463a.26.26 0 01-.126-.121c-.2-.396-.57-.93-.463-1.088.283-.4.802-.649 1.26-.879.466-.234.927.413 1.294.783.201.204.513.319.884.37.139.02.251.017.342-.004.626-.144 1.025-.623 1.361-.075.224.366.734.557 1.11.352.289-.158.596-.323.907-.48.32-.163.666-.401.993-.401 1.216.036 2.43.148 3.64.26.11.016.219.035.329.055.396.075.615.487.493.871a.717.717 0 00.495.91c.166.045.332.088.5.126.57.13 1.206.108 1.7.386.778.439 1.224-.304 1.838-.4.266-.04.53-.104.8-.176.584-.156.954-.694.991-1.298.056-.734.017-1.513.241-2.19.423-1.291.829-1.441 1.939-.72.984.64 1.895.654 2.92.167.285-.134.755-.02 1.064.143.681.358 1.426.706 1.935 1.275.476.529.696 1.33.996 2.026.185.43.266.915.471 1.334.13.263.259.52.319.769.164.675.162 1.443.367 2.106.146.476-.131 1.074.15 1.485.368.54.771 1.027 1.25 1.403 1.12.88 2.433-.294 2.572-1.712l.348-3.553a.303.303 0 01.435-.243c.216.105.211.404.08.606-.188.29.025.546.395.815 1.192.88 2.076.756 3.018-.615.466-.683.907-1.145 1.751-.827.087.04.182.06.277.06.191 0 .356-.115.515-.22 1.086-.708 2.245-1.188 3.536-1.268a.24.24 0 00.057-.01c.119-.038.13-.188.087-.305-.167-.465-.285-.896-.503-1.256-.248-.409-.659-.765-.977-1.16-.141-.174-.371-.45-.324-.582.233-.645.222-1.432 1.056-1.734.681-.246.666-.677.082-1.202-.225-.204-.114-.59.169-.702.166-.066.323-.124.48-.17a95.794 95.794 0 013.331-.823 37.191 37.191 0 012.763-.535c.531-.082.733.44.284.735l-.062.041c-.434.293-.116.626.327.346a.534.534 0 01.786.634l-.635 1.733a.17.17 0 00.313.135c.543-1.084 1.101-2.162 1.623-3.258.976-2.055 2.544-2.416 4.059-.896.229.23.152.608-.134.76l-.221.119a.292.292 0 00-.103.422.345.345 0 00.159.123c.136.055.28.128.378.083.272-.122.531-.514.753-.48 1.125.168 2.241.426 3.353.682.242.069.469.19.668.355.89.689 1.685.298 2.192-.455 1.492-2.202 3.829-3.155 5.82-4.605.27-.148.579-.194.877-.13.459.072.897.312 1.358.367 1.26.15 2.015.85 2.355 2.152.243.925.94.484 1.481.474.896 0 1.735-.441 2.243-1.18l.819-1.194c.681-.991 2.266-1.383 3.155-2.193.407-.368.957-.554 1.412-.87.29-.2.772-.525.74-.741-.092-.82.442-1.544.152-2.423-.185-.587.325-1.041.943-1.225.506-.148.964-.373 1.251.342l.028.053c.208.395.169.892-.153 1.201-.32.308-.387.838-.014 1.08.524.339 1.127.274 1.797-.066.185-.09.459-.026.676.035.54.146 1.177-.08 1.304-.625.032-.139.049-.277.041-.415-.065-1.337-.798-1.906-2.095-1.778-.194.01-.343-.145-.416-.325l-.229-.565a1.953 1.953 0 01.821-2.424 19.517 19.517 0 001.819-1.184 11.95 11.95 0 002.17-2.203 4.577 4.577 0 012.106-1.515c1.186-.443 2.298-1.112 3.486-1.536.674-.24 1.442-.166 2.161-.277.395-.037.78-.15 1.138-.334.709-.426 1.379-.81 2.162-.2a.427.427 0 00.348.062c.891-.28 1.772-.6 2.67-.861.396-.112.84-.04 1.234-.156a6.319 6.319 0 001.632-.657c.503-.318.936-.506 1.463-.134.126.09.293.242.406.212 1.402-.368 2.065.739 2.879 1.582.131.136.438.132.655.11.142-.03.283-.066.422-.11.19-.059.253-.29.139-.453l-.08-.113c-.196-.28-.695-2.56-.357-2.503.155.026.45-.585.611-.937.359-.783.843-1.13 1.733-1.182 1.134-.07 2.259-.308 3.418-.532.543-.105 1.004.224.992.777-.008.42.025.849.377 1.154.224.195.329.554.119.765-.152.152-.139.39-.031.576a.6.6 0 01.039.568c-.28.7-.113 1.534.359 2.121.304.379.452.89.378 1.601-.057.555.213.963.889.687.417-.17.813.35.818.801.002.24.002.476-.01.71-.039.617-1.352 1.306-2.168 1.236a1.456 1.456 0 00-.979.242c-1.138.913-2.208 1.536-3.62.438-.657-.508-1.395.038-1.85.665-.337.465-.503 1.065-.781 1.586-.123.231-.258.456-.406.694-.225.363-.78.317-.986-.057-.166-.3-.536-.31-.869-.23-.555.137-.805-.418-1.003-1.015-.029-.087-.175-.208-.205-.12-.82 2.001-.818 2.001 1.345 2.414.157.03.387.146.425.276.454 1.504 1.085 2.955.633 4.637-.121.46-.292.845-.512 1.16-.552.792-.833 2.696-.078 2.095.528-.42 1.203-.812 1.791-.482.569.32 1.136.642 1.691.99.255.16.508.31.756.422.803.364 1.725.623 2.564.895.696.228 1.201.488 1.049 1.417a.39.39 0 00-.005.09c.016.45.011.91-.383 1.123-2.857 1.144-3.163 3.859-3.585 6.53-.111.704-.37 1.385-.601 2.064-.618 1.846-.37 3.77-.488 5.664-.056.967-.069 1.964-.313 2.883-.202.755-.337 1.362.153 2.03.354.484-.317 1.19-.894 1.03a1.966 1.966 0 01-.24-.083c-1.053-.442-3.077.277-3.645 1.324a7.487 7.487 0 00-.918 4.155c.019.512-.591.622-.88.198a.624.624 0 00-1.089.11 23.05 23.05 0 00-.294.737.66.66 0 00-.042.164c-.017.151-.001.306.048.45.172.61-.607 1.006-1.094 1.412-.216.181-.385.458-.546.775-.457.907-.331 1.602.283 2.428.394.533.424 1.39.555 2.113.26 1.323.458 2.663.741 3.982.09.432.807.208 1.179-.03.26-.167.563-.162.87-.136.463.04.922.326 1.025.779.248 1.094.314 2.264 1.487 2.863a.085.085 0 00.09-.009l.189-.147c.053-.042.121.027.079.08a.056.056 0 00.017.084c.399.216.838.383 1.17.683.279.254.631.74.568 1.027-.194.873-1.201 1.39-1.238 2.283-.059 1.45.693 2.976 1.893 3.555.86.413.838 1.145.555 1.93-.25.596-.981.874-1.44 1.329a1.797 1.797 0 00-.512 1.174c-.082 1.544.146 2.987 1.48 3.96.537.401 1.027.739 0 1.274-.433.222-.577 1.039-.899 1.551-.635 1.001-.267 1.692.302 2.667.532.919.555 2.287.516 3.444-.05 1.263-.442 2.511-.69 3.764-.073.391-.585.522-.887.264-.613-.524-1.199-.993-1.55-1.609-1.24-2.191-3.07-3.768-4.695-5.552a45.09 45.09 0 01-6.604-9.411c-.645-1.227-.982-2.52-.699-4.02.321-1.719.392-4.88.834-6.571.22-.84.342-1.719.483-2.587.089-.549.117-1.111.163-1.668.011-.124.035-.3-.028-.37-.812-.915-.396-1.918-.227-2.92.226-1.333.448-2.67.585-4.018.057-.569-.272-1.215-.132-1.736.25-.92.74-1.768 1.096-2.657.207-.443.06-.956-.09-1.422a13.775 13.775 0 00-.232-.662c-.032-.094-.05-.248-.108-.268-1.069-.375-.925-1.57-1.397-2.343-.694-1.13-.847-1.394-.74-2.283.042-.345-.355-.576-.616-.348-.044.038-.041.146-.085.175-1.456.91-.313 2.002-.117 2.969.065.322.6.514.853.827.382.47-.264 1.146-.637 1.624-.21.27-.276.664-.342 1.087a52.36 52.36 0 01-.922 4.693.346.346 0 01-.658.048c-.076-.186-.292-.264-.492-.257-.656.022-1.231-.666-1.327-1.635-.045-.457-.146-.911-.229-1.365a.185.185 0 00-.351-.042l-.168.384a.765.765 0 01-.753.45c-1.011-.064-1.11.109-1.94 1.34a2.96 2.96 0 01-.892.772c-.418.263-1.135 2.043-.903 2.505.285.563.388 1.077.111 1.69a1.238 1.238 0 000 .88c.438 1.034-.043 1.909-.278 2.862a8.28 8.28 0 00-.15 2.449c.018.275.07.548.133.81.121.495.714.66 1.148.393.627-.388 1.13-.138 1.36.513.196.546.12 1.093-.629 1.169-.139.014-.256.222-.389.328-.274.216-.531.553-.834.6-.804.155-1.329.443-1.34 1.453 0 .266-.402.56-.664.78-.37.31-.772.569-1.166.841-.394.273-.785.613-1.223.751-.07.022-.23-.281-.392-.588a.55.55 0 01.133-.683.502.502 0 00.012-.78c-.733-.585-.955-.41-1.528.533-.111.183-.603.09-.925.147-.74.134-1.678.042-2.161.496-.823.771-.982 2.621-1.962 3.18-.494.281-.989.555-1.491.814-.262.131-.563.182-.861.228a.666.666 0 00-.555.556l-.013.076a.666.666 0 01-1.087.398.674.674 0 00-.789-.056c-1.281.793-2.721 1.599-4.013 2.617a4.578 4.578 0 00-1.297 1.613 4.983 4.983 0 00-.498 2.069c-.02.512-.361 1.001-.546 1.513-.135.371-.37.751-.37 1.118.117 2.602-1.417 4.605-2.139 6.915-.153.458-.279.927-.379 1.402-.409 2.166-.925 4.258-2.174 6.118-.296.439-.544.914-.771 1.405-.663 1.431-.027 3.207 1.327 2.399.687-.414 1.135-.318 1.466.493.091.217.189.431.294.641.245.493.868.276 1.142-.202.067-.117.152-.224.259-.321.217-.195.489.049.409.33a.361.361 0 00.418.454l.014-.003a.37.37 0 01.422.486l-.02.057c-.129.366.254.648.523.37.556-.574.915-1.218 1.035-1.793.113-.548.292-1.176.771-1.465.303-.184.605-.368.902-.558.503-.323 1.551.064 2.172.677.358.352.855.558 1.316.766.642.291 1.388.401 1.932.827.097.076.151.215.185.392.145.757.247 1.522.582 2.216.106.22.218.435.336.648.168.27.503.424.794.607a.203.203 0 00.247-.02.197.197 0 00.055-.195c-.311-1.101-.517-2.258-.985-3.275-.485-1.048-.666-1.521-.345-1.825.552-.526 1.288-.986 1.103-1.725-.131-.524-.408-.953-.877-1.252-.324-.207-.528-.584-.329-.913.221-.368.777-.423 1.013-.064.289.442.567.865.85 1.28a15.19 15.19 0 001.075 1.513c1.135 1.292 1.655 2.878 1.951 4.563.041.348.158.68.343.968.184.288.43.524.717.688.334.235.628.529.87.871 1.607 2.002 3.191 4.005 4.81 5.993.398.481.81.954 1.237 1.437.333.376-.072.918-.539.731-.925-.368-1.834-.016-2.233.827-.056.116-.158.26-.132.36.502 1.892-.101 4.101 1.268 5.719.758.895 1.737 1.581 2.651 2.314.46.353 1.062.442 1.279.979l.728 1.801a.165.165 0 01-.278.168c-.123-.141-.248-.28-.354-.431-.57-.813-1.271-1.035-2.122-.613-.753.375-.381 1.069-.335 1.642.095 1.168-.927 1.216-1.427.156a8.507 8.507 0 01-.636-1.904c-.141-.685-.566-1.299-.846-1.956a2.376 2.376 0 01-.253-.815c-.052-1.48-.5-2.721-1.677-3.604a1.472 1.472 0 01-.436-.707c-.556-1.731-1.076-3.481-1.655-5.205-.185-.551-.555-1.027-.779-1.566a3.586 3.586 0 01-.301-1.201c-.032-.787-.269-1.39-.887-1.87-.671-.523-1.309-1.099-1.989-1.691-.248-.216-.63-.091-.659.237a38.47 38.47 0 00-.013 2.066c.015.555-.027 1.142.123 1.658.651 2.245 1.445 4.445 2.035 6.709.555 2.119.886 4.219.229 6.5-.603 2.1-.74 4.368-.954 6.577-.241 2.454-1.027 4.727-1.758 7.029-.33 1.04-.555 2.115-.883 3.154-.568 1.802-1.082 3.646-1.791 5.392-.795 1.941-2.122 3.419-3.549 4.579a2.067 2.067 0 01-1.591.423l-1.289-.176c-.179-.024-.315-.12-.347-.298-.045-.247-.305-.445-.534-.342-1.033.464-1.56 1.308-1.601 2.517a.574.574 0 01-.482.561.531.531 0 00-.447.413l-.005.023a.565.565 0 01-1.024.19l-.4-.611c-.157-.24-.198-.551-.028-.782.049-.066.101-.128.158-.186.89-.755 1.086-1.842.857-2.984-.35-1.754-.998-3.349-1.771-4.913-.067-.132-.132-.36-.071-.456.432-.689.791-1.498 1.381-1.981.433-.356 1.178-.296 1.789-.376.37-.05.775.072 1.11-.046.259-.09.583-.401.629-.675.138-.87.222-1.749.252-2.631.065-1.421.22-2.861.087-4.266-.102-1.064-.325-2.107-.035-3.025.207-.657.354-1.4.009-1.997l-.052-.091c-.389-.673-1.603-1.257-1.878-.53-.409 1.07-1.352 1.354-2.061 1.973-.119.104-.324.176-.355.302-.52 2.08-2.469 1.718-3.753 2.469-.485.284-1.464-.741-1.73-1.554-.146-.449-.418-.849-.6-1.285z" fill="#2871FF"/><path d="M104.35 51.74a.152.152 0 00-.037-.156c-.319-.316-.679-.604-.927-.976-.231-.35-.528-.886-.424-1.2.125-.377.606-.62.951-.914a.07.07 0 01.08-.008c.061.035.129-.033.093-.094l-.232-.397a.19.19 0 00-.297-.041l-.187.18a.406.406 0 01-.682-.255 8.316 8.316 0 01-.043-1.218c.032-.562.278-1.052.112-1.59-.262-.847.001-1.72.761-2.335.63-.511 2.134-.078 2.683-.677.18-.197.317-.427.374-.723.086-.44.401-.869.841-.959.306-.106.597-.26.864-.456.157-.114.305-.498.37-.476.68.251 1.249-.068 1.79-.332.233-.114.532-1 .348-1.184a.224.224 0 01-.034-.276l.087-.144a.47.47 0 01.264-.209l1.982-.603c.268-.081.522-.203.754-.361l.975-.667c.142-.097.212-.262.259-.428.101-.359.435-.352.874-.203.171.059.336-.125.246-.282a.187.187 0 01.053-.245l.4-.286a.1.1 0 00-.013-.169.099.099 0 01-.05-.12l.248-.715a.439.439 0 01.76-.128.44.44 0 00.636.059l.423-.372a.204.204 0 01.246-.019l.298.191c.06.04.136-.019.115-.087a.076.076 0 01.04-.093c.553-.275 1.088-.659 1.669-.771 1.073-.2 2.178-.21 3.266-.344a7.88 7.88 0 001.167-.317.107.107 0 00.071-.108c-.005-.082.082-.146.16-.12.097.031.189.066.24.139.951 1.312 2.323.926 3.589 1.128 1.266.202 2.202-.414 3.238-.826.878-.348 1.566.088 2.166.552.391.302.428.848.063 1.48-.936 1.619-2.283 2.141-3.946 2.143-1.627 0-3.26-.03-4.88.094a22.324 22.324 0 00-3.608.656c-.345.086-.668.49-.901.826-.319.46-1.605.853-2.126.8a2.446 2.446 0 00-1.464.4c-.556.35-.973.907-1.483 1.337-.228.194-.583.071-.794.283-.826.825-1.71 1.629-3.002 1.724-.083 0-.171.116-.241.2-.819.916-1.764 1.6-2.78 2.282-.875.583-1.399 1.979-1.789 3.125-.577 1.696-.878 3.46-.224 5.209.149.398-.022.863-.42 1.012a.69.69 0 01-.763-.19c-.41-.47-.837-.975-1.317-1.411-.172-.154-.483-.133-.767-.145a.141.141 0 01-.125-.19zm116.711-8.327a.746.746 0 00-.477.629c-.041.407-.366.77-.773.808-.61.056-1.161-.005-1.524-.81-.087-.2-.454-.217-.614-.4a19.896 19.896 0 01-1.279-1.614c-.13-.22-.245-.45-.342-.689a1.404 1.404 0 01-.101-.408 5.126 5.126 0 01.198-1.982c.117-.385.279-.75.48-1.09.299-.503.945-.62 1.477-.376l.475.219a.967.967 0 001.356-.756c.078-.58.654-.949 1.19-.714.019.01.039.018.059.027.65.354 1.225.722 1.962.064.212-.2.816.112 1.239.2.775.154 1.348.828 1.322 1.618a16.71 16.71 0 01-.027.548c-.039.332-.284.634-.421.957-.292.687-.486 1.757-1.11 2.167a.429.429 0 01-.232.081c-1.071 0-1.729.622-2.435 1.284-.116.102-.26.169-.423.237zm-55.386-16.47a1.65 1.65 0 00-.544-.871c-.145-.127-.266-.244-.249-.274.329-.59.759-1.118 1.113-1.716.246-.38.418-.869.75-1.117.794-.596 1.958-.621 2.924-.168.124.058.195.16.175.296-.041.286.275.518.513.353l.283-.197c.184-.127.436-.114.584.053 1.12 1.265.566 2.724.309 4.164a5.545 5.545 0 00-.043 1.735c.137.938-.632 1.838-1.509 1.66-.185-.038-.407-.038-.537-.154-.94-.836-2.082-1.274-3.112-1.91-.392-.24-.477-1.042-.657-1.854zM1.396 108.394c-1.063-.61.341-1.906.677-3.085.22-.775-.336-1.648-1.053-2.542a.225.225 0 01.036-.319.225.225 0 01.174-.043l3.201.553c.1.017.195-.049.213-.148a.183.183 0 01.312-.094c1.316 1.384 2.334 2.825 2 4.555-.126.648-.02 1.356.474 1.793l.758.672a.801.801 0 01-.191 1.326.829.829 0 01-.978-.219c-.3-.35-.614-.687-.94-1.008a2.803 2.803 0 00-1.159-.536 52.877 52.877 0 00-2.978-.705 1.863 1.863 0 01-.546-.2z" fill="#2871FF"/><path d="M167.234 22.36c-.974.22-1.187 1.418-1.994 2.007-.551.401-1.365.04-1.767-.512l-.075-.103c-.17-.266-.391-.6-.358-.88.028-.244.355-.474.586-.654.122-.08.245-.158.369-.232.252-.15.264-.521.013-.67a.377.377 0 01-.065-.595c.327-.316.643-.646.947-.988.21-.256.478-.764.371-.942-.502-.9.185-1.188.63-1.587.672-.61 1.374-1.18 2.102-1.71.126-.088.636.174.758.4.492.902.929 1.838 1.309 2.8.098.255-.071.655-.186.963-.161.456-.543.896-.532 1.332.022.877-.37 1.057-1.056 1.16-.351.06-.701.133-1.052.212zm7.503 6.489c-.069.251.262.452.444.266a.24.24 0 01.364.022c.448.59.854 1.167 1.313 1.685.662.736.371 2.6-.535 2.88-1.038.33-2.119.513-3.151.855-.449.15-.804.586-1.242.8-.28.138-.81.264-.914.126-.203-.268-.341-.786-.231-1.092.522-1.483 1.147-2.923 1.71-4.387.126-.323.084-.73.243-1.023a5.638 5.638 0 011.059-1.496c.174-.162.715 0 1 .168.126.08.08.576.026.864-.027.111-.056.222-.086.332zM8.951 52.456c.855-.417 1.483-.739 2.14-1.033.088-.038.242.038.344.1.741.452 1.47.913 2.198 1.367l-1.182.148.442.74c1.209-.76 1.38-.646 1.483.772.076 1.152.215 2.299.326 3.437-.498.244-.926.54-1.399.648a.909.909 0 01-.437-.1.986.986 0 01-.349-.3c-1.19-1.856-2.33-3.757-3.566-5.78zm267.992-28.502c-1.023.555-1.885 1.405-2.313.322-.393-.992-.326-2.22.286-3.088.626-.89 1.256-1.459 2.353-1.4.946.045 1.533.713 1.174 1.676-.34.902-.46 1.938-1.5 2.49zM227.212 36.42c.061-.197.306-.233.453-.088.147.145.393.108.507-.065.328-.491.67-.732 1.065-.727.664.008 1.49-.151 2.15-.222.274-.03.567.015.858.048.437.049.91.27.963.707.097.802-.382 1.52-1.337 2.049-1.431.8-2.84.468-4.245 0-.481-.173-.639-.979-.414-1.702zM131.914 4.585c.095-.21.372-.232.542-.075.213.196.477.085.372-.185-.11-.285-.243-.55-.095-.713.128-.141.354-.083.526-.002l1.779.837a.177.177 0 00.217-.055.169.169 0 00-.034-.237c-.212-.155-.444-.302-.597-.486-.395-.473.496-.426 1.1-.55.238-.049.459-.265.659-.705.034-.076.603 0 .788.172.358.332-.142.91-.562 1.158-.68.402-1.079 1.045-1.128 1.77-.064.943-.173 1.758-1.045 1.392a.72.72 0 00-.233-.06c-.151-.01-.304.025-.454.01l-.887-.09a.391.391 0 01-.308-.568.387.387 0 00-.145-.51c-.404-.248-.751-.536-.495-1.103zm-7.442.027a.231.231 0 01-.048-.409.22.22 0 00.078-.28c-.155-.308-.337-.58-.273-.73.08-.14.188-.26.317-.35a.987.987 0 01.424-.175c.741-.086 1.5-.052 2.25-.084.186 0 .464-.044.504-.15.416-1.093 1.014-.95 1.674-.612a.5.5 0 01.176.72.497.497 0 00-.032.489l.019.04a.577.577 0 01-.449.82l-2.243.285c-.366.047-.636.347-.944.551-.355.236-.859.102-1.453-.115zM93.585 53.546c-1.805 0-2.467-.426-2.452-1.532.01-.636 1.203-1.614 1.98-1.619 1.023 0 1.523.695 1.558 2.057.026.958-.365 1.284-1.086 1.094zm194.778 105.611c-.098.287-.647.317-.589.019.173-.904.419-1.79.631-2.686.227-.952 1.38-1.613 1.791-2.501.089-.192.159-.415.212-.662.06-.283.571.097.633.38.041.186.061.36-.003.486-.348.684-.849 1.278-1.249 1.935a15.54 15.54 0 00-.947 1.764c-.179.394-.322.804-.479 1.265zM139.205 9.985c-.542-.32-.364-1.082.196-1.367l1.187-.601c.357-.181 1.014-.179 1.007.221 0 .86-.487 1.49-1.188 1.863-.35.183-.772.138-1.202-.116zm-10.009 40.761c1.003-.546 2.587.665 1.671 1.346-.311.231-.775.205-1.406-.038-.493-.2-.704-1.07-.265-1.308zm-4.533-49.112c-.095-.038-.178-.114-.192-.216l-.009-.049c-.104-.516.315-.975.842-.953.346.014.765-.062 1.112.044.346.106.774.316.889.6.169.421-.657.47-1.11.468-.488-.003-1.04.298-1.532.106zm172.563 121.785a.26.26 0 01.1.32l-.251.599c-.102.244-.099.515-.041.772.184.814.007 1.684-.674 2.444-.213.241-.764-.078-.697-.393a.134.134 0 01.015-.041 3.234 3.234 0 00.3-2.567c-.07-.247.51-.698.907-1.093a.276.276 0 01.341-.041zm-111.377-69.37c.592-.044 1.84.752 1.869 1.284-.007.16-.045.316-.114.458a1.088 1.088 0 01-.281.364.964.964 0 01-.838.114c-.871-.358-.957-.73-.636-2.22zm105.744 30.167c.044-.664.92-1.157 1.315-.62.128.165-.065.633-.15.955l-.142.519c-.277 1-1.059 1.063-1.055.025.001-.27.011-.562.032-.879zm-5.396 78.505c-.183.815-1.04 1.485-.858.67.146-.645.297-1.291.453-1.964.117-.501.491-.901.983-1.05l.386-.117a.156.156 0 01.173.237c-.487.704-.954 1.414-1.137 2.224zm7.094-14.416c.108.04.17.153.146.265l-.507 2.375a.457.457 0 11-.869-.272l.937-2.24a.231.231 0 01.293-.128zM222.646 46.69c-.131-.56.512-1.097 1.009-.806.203.12.254.304.235.667-.023.43-.381.854-.787.713-.236-.081-.385-.269-.457-.574zm-8.314-4.822c-.188-.432.532-1.31.615-.846.071.526.109 1.057.114 1.588a.194.194 0 01-.372.077l-.357-.82zM138.259 1.976a.466.466 0 11.138-.886l.732.339a.235.235 0 01-.068.447l-.802.1zm-8.727 4.183c.355-.008.553.383.442.72l-.004.012a.594.594 0 01-.663.399c-.289-.049-.518-.307-.443-.59.106-.398.347-.534.668-.542zm8.26.548c.408-.074.73.385.387.616a.604.604 0 01-.57.078c-.364-.129-.197-.624.183-.694zm157.39 136.732c.068-.329.53-.379.586-.047a.67.67 0 01-.033.346c-.131.371-.633.086-.553-.299zM130.33 4.927a.127.127 0 01.165.107c.045.428.091.852.137 1.272a.085.085 0 00.138.057c.08-.064.182.041.116.12l-.158.186a.11.11 0 01-.192-.05l-.291-1.549a.126.126 0 01.085-.143zm4.559 49.203a.407.407 0 11-.189.792.407.407 0 01.189-.792zm6.955-49.871c.225.401-.647.673-.866.269a.491.491 0 01-.024-.05c-.179-.448.654-.64.89-.22zM218 49.775a.23.23 0 01-.337.04l-1.029-.885a.215.215 0 01.277-.33l1.048.862a.23.23 0 01.041.313zm-83.847-38.184a.356.356 0 11-.712 0 .356.356 0 01.712 0zm162.52 119.079c.054.463-.566.291-.61-.174l-.037-.394a.193.193 0 01.178-.21.202.202 0 01.195.112c.111.213.246.428.274.666z" fill="#2871FF"/><path d="M25.165 125.608c-.633-1.058-1.48-7.821-1.48-8.454 0-.633-.211-5.072 5.077-6.552 9.939-2.96 15.436-16.474 16.072-21.35.636-4.876 6.13-5.283 6.13-5.283s1.096 4.006 1.943 5.384c1.045 1.776 1.876 3.266 2.936 4.93.966 1.517 1.986 1.142 2.98 1.825.995.682 2.953 4.725 3.61 5.927.656 1.203-2.297 3.391-2.407 5.249-.11 1.858-1.202 5.029-2.189 5.139-.986.11-6.104-2.998-7.983-4.075-1.856-1.064-4.167-3.876-4.167-3.876m5.27-39.208s3.054 5.78 7.116 7.225c4.063 1.445 4.59 1.18 5.766 4.584 1.177 3.405 1.527 6.72 2.892 7.991 1.093 1.018 8.912 5.492 10.745 7.073 1.833 1.58 5.636 5.234 7.339 12.769.786 3.607 5.766 4 6.292 4.653.526.653 6.414 5.231 9.701 7.457 3.288 2.225 5.432 1.343 6.219 5.666 0 3.275 3.284 1.978 4.987 3.157 1.703 1.179 17.627 9.645 21.556 8.327 3.93-1.318 4.242 1.862 6.134 3.124 1.898 1.154 4.635 1.284 5.682 1.154 1.758-.218 1.945-6.243 5.222-7.03 3.276-.786 3.539-4.976 5.112-4.846 1.573.13 3.532 1.457 4.793 3.783 1.261 2.325 2.529 4.939 4.905 7.09 2.038 1.634 2.038 1.634 5.191 3.526 2.522 1.262 4.414 2.524 5.675 3.786.631.631-2.347 4.217-2.347 5.263 0 1.046 7.209 2.228 8.519-1.309 1.31-3.538 2.096-1.05 1.966.263-.13 1.312 1.31 3.699 3.93 2.112 2.62-1.586 5.375.289 6.422.526 1.047.237 4.193-1.199 4.337-3.951-.763-3.427.498-6.582.498-6.582 1.261-2.523 10.089-10.724 12.612-11.986l5.044-2.524s5.691-2.414 7.567-1.784c1.877.631 3.058 4.098 4.415 4.939 1.45.899 5.382 3.955 6.102 6.29.72 2.335 3.987 4.434 7.14 3.804 2.522-.631 4.528-.027 6.237-.654 1.709-.627 7.191-3.954 7.012-4.942-.179-.988-10.015-7.499-9.474-10.823" stroke="#fff" stroke-miterlimit="10" stroke-linecap="round"/><path d="M254.244 135.805c-.272.627 2.125 12.733 2.128 14.844-.003 2.305-.003 2.305 1.259 4.198 1.261 1.893-.632 3.785-.632 4.416" stroke="#fff" stroke-miterlimit="10" stroke-linecap="round"/><path d="M258.185 126.037c-.63.179-3.502 2.156-5.121 1.887-1.619-.268-3.23.847-3.23.847" stroke="#fff" stroke-miterlimit="10"/><path d="M210.3 145.114s-2.959-.871-4.676-2.193c-1.716-1.323-5.378-1.954-5.378-1.954m6.692-48.092c.448.18 3.955 3.506 4.224 5.3.269 1.795 1.258 7.457 2.877 8.628 1.62 1.17 4.852 4.85 5.124 6.017.272 1.168 1.348 4.047 1.978 6.648.63 2.601 3.684 5.202 3.684 5.202m-92.049 1.156c0 .205-.633 3.785-.633 5.047 0 1.262 1.261 3.785 1.261 3.785m-3.351 8.753c.205-.751.83-3.273 2.116-4.78 1.236-1.448 1.236-3.972 1.236-3.972" stroke="#fff" stroke-miterlimit="10" stroke-linecap="round"/><path d="M123.494 92.428s-3.332.92-5.224 1.855c-1.891.937-3.506 1.946-5.044 2.524-1.539.578-5.627 2.647-7.753 2.936-2.125.289-6.74-3.081-8.764-4.523-2.024-1.442-3.031-2.198-3.031-2.198m38.466 15.771s-.935-.091-3.642.681c-2.706.771-9.601-3.205-11.074-3.946-2.562-1.287-10.173-4.583-11.677-5.407a.122.122 0 00-.128.006.125.125 0 00-.051.118c.171 1.067-.543 4.132-1.142 6.821-.848 3.809-3.623 9.827-3.623 9.827" stroke="#fff" stroke-miterlimit="10" stroke-linecap="round" stroke-linejoin="round"/><path d="M76.071 121.779a.5.5 0 10.268.963l-.268-.963zm13.824-4.154l-.075.495a.502.502 0 00.575-.498l-.5.003zm.638-4.766l.464.186.005-.012-.469-.174zm1.078-3.43a.5.5 0 10-1 .021l1-.021zM76.205 122.26l.134.482h.001l.004-.001.014-.004.051-.015.194-.056a39.27 39.27 0 002.927-.991c.844-.325 1.748-.712 2.542-1.141.783-.423 1.51-.911 1.956-1.453l-.772-.636c-.318.388-.903.801-1.659 1.209-.743.401-1.603.771-2.426 1.088a38.901 38.901 0 01-2.85.965l-.186.054-.048.013-.012.004h-.003v.001l.133.481zm7.823-3.179c.294-.357.77-.621 1.378-.8.603-.178 1.292-.259 1.955-.284a14.78 14.78 0 012.268.097l.144.019.037.005.008.001.002.001.075-.495.075-.494h-.001l-.004-.001-.012-.002a15.833 15.833 0 00-2.63-.13c-.709.027-1.488.114-2.2.324-.707.208-1.396.551-1.867 1.123l.772.636zm5.867-1.456l.5-.003v-.13a24.359 24.359 0 01.07-1.6c.078-.984.235-2.109.532-2.847l-.928-.373c-.359.892-.522 2.151-.6 3.142a25.277 25.277 0 00-.074 1.775v.039l.5-.003zm1.107-4.592a9.788 9.788 0 00.61-3.604l-1 .021a8.785 8.785 0 01-.548 3.235l.938.348z" fill="#fff"/><path d="M84.469 103.41s-1.92 3.223-3.453 4.315c-1.533 1.093-4.048 1.642-4.812 2.188-.763.546-4.265-.656-7.327 0-3.062.656-4.644.983-5.986.983-1.341 0-5.063 1.532-5.063 1.532" stroke="#fff" stroke-miterlimit="10"/><path d="M62.424 102.035s2.878-.451 4.14 0c1.26.45 1.293 2.534 3.152 2.974 1.86.439 2.114 1.183 3.207 2.275a31.939 31.939 0 003.282 2.624" stroke="#fff" stroke-miterlimit="10"/><path d="M58.815 96.107s7.763-.523 10.062-2.489c2.3-1.965 8.6-1.601 8.6-1.601l-.07-1.133c-.069-1.136-.656-6.997-1.202-9.075-.547-2.078.656-4.046 1.749-5.575 1.093-1.53 2.08-4.914.986-7.76-1.093-2.847 1.42-4.37 1.42-4.37" stroke="#fff" stroke-miterlimit="10" stroke-linecap="round"/><path d="M76.205 109.908s10.661 4.971 13.672 7.76" stroke="#fff" stroke-miterlimit="10"/><path d="M84.166 49.092c-4.016-1.055-6.555 1.691-8.458 4.44-1.902 2.748-6.621 4.161-9.302 5.708-2.995 1.608-15.441 5.916-15.441 5.916s2.116 12.682 0 18.812c-2.117 6.13-3.595 15.853-5.286 20.503-1.692 4.651-4.43 10.356-4.017 13.948.414 3.593 1.391 7.399-.043 8.457" stroke="#fff" stroke-miterlimit="10" stroke-linecap="round" stroke-linejoin="round"/></svg>