<svg width="308" height="188" viewBox="0 0 308 188" fill="none" xmlns="http://www.w3.org/2000/svg"><path d="M242.574 162.508c-.346-.833-.97-1.522-1.813-1.843a88.946 88.946 0 00-1.617-.602c-.146-.052-.333.026-.502.036-.418.026-.925.22-1.236.038-.662-.381-1.263-.385-1.952-.182-1.436.424-1.436.4-2.117-1.021a22.103 22.103 0 00-1.145-2.25c-.834-1.334-1.756-2.601-2.59-3.938-.461-.729-.779-1.567-1.266-2.274-.487-.706-1.11-1.346-1.688-2.001-.695-.788-1.498-1.023-2.457-.542-.135.068-.37-.044-.538-.106-.798-.282-1.579-.651-2.406-.833-.405-.088-.877.156-1.316.26-.625.15-1.252.299-1.874.473-1.329.372-2.537.976-3.455 2.115-.244.302-.555.558-.74.899-.257.621.178 1.221.818 1.429.072.023.114.044.113.062-.048.77 1.155 1.236.459 2.121-1.519 1.935-1.645 4.403-2.256 6.684-.059.218-.151.515-.066.677.555 1.046-.147 1.501-.772 2.019-.468.388-.925.8-1.351 1.227-.351.354-.657 1.074-.984 1.076-.818 0-1.727-.134-2.43-.544a3.474 3.474 0 00-2.483-.446 4.085 4.085 0 01-2.176-.21c-1.874-.819-3.443-.311-4.372 1.693-.295.634-.687.928-1.296 1.147-1.554.562-3.062 1.276-4.625 1.801-.676.222-1.455.2-2.175.132a25.675 25.675 0 01-3.43-.507c-.446-.1-.872-.462-1.236-.8-.724-.656-1.251-1.619-2.371-1.601a.122.122 0 01-.081-.044c-1.09-1.519-2.818-1.261-4.28-1.649-.703-.186-1.595.134-2.328.432-1.412.576-2.716.088-4.024-.294-.85-.25-2.067-2.402-2.143-3.39-.028-.355-.22-.861-.477-1.001-2.086-1.105-4.206-2.139-6.314-3.202a.878.878 0 00-1.086.26c-.713.936-1.476 1.879-2.043 2.94-.281.528-.094 1.495.146 2.149.344.943.147 2.26-.666 2.784-1.009.655-2.311.513-3.445.11a6.774 6.774 0 00-2.506-.388c-.786.012-1.589-.318-2.361-.58-.185-.064-.329-.449-.403-.715-.479-1.751-.544-1.815-2.307-1.895-.56-.026-.763-.035-.931-.252-.268-.346-.543-.694-.954-.844a1.629 1.629 0 00-1.204.047c-.09.039-.182.074-.275.104-.467.159-.942.286-1.423.381a4.708 4.708 0 01-1.259.076c-.378-.037-.685-.064-.835.248-.111.23-.103.517-.28.702a.718.718 0 01-.311.194l-.523.092c-1.915.35-3.573 1.677-5.519 1.626-.129 0-.264.236-.394.366a1.677 1.677 0 01-.612.426 1.56 1.56 0 01-.72.106 1.598 1.598 0 01-.695-.232 1.75 1.75 0 01-.539-.528l-.013-.019c-.71-1.069-1.882-1.644-3.15-1.849-1.145-.2-1.356-1.2-1.743-2.177a43.322 43.322 0 00-2.189-4.497c-.37-.694-1.001-.989-1.83-.738-2.342.706-3.515.098-4.479-2.228-.124-.298-.498-.4-.771-.227l-.441.279a.993.993 0 01-1.505-.65c-.187-.963-.356-1.839-.518-2.718-.405-2.223-.716-4.473-1.227-6.668-.264-1.137-.862-2.188-1.332-3.266-.257-.592-.542-1.169-.835-1.782a.466.466 0 01.119-.556l.092-.078c.202-.173.199-.678-.057-.606-1.008.278-1.993.74-3.014.86-1.227.144-2.43 1.509-3.743.152a.374.374 0 00-.14-.085c-.595-.213-1.424-.388-1.157-.959.1-.213.273-.417.416-.629a.658.658 0 00-.033-.755c-.232-.32-.496-.527-.833-.479-.386.055-.861-.061-.868-.451.057-.8-.359-.852-.97-.938-.438-.06-.904-.443-1.21-.819-.15-.186.024-.686.078-1.041.155-1 .35-2.001.457-3.002.019-.164-.381-.564-.501-.528-.674.2-.9-.26-1.262-.704-.628-.767-1.344-1.303-2.469-.981-.914.262-1.913.276-2.871.246a23.122 23.122 0 01-2.974-.388 2.642 2.642 0 01-.866-.332c-1.145-.657-2.85-.244-4.115-.619a17.587 17.587 0 00-2.381-.543c-1.187-.179-2.33-.566-3.328-1.231a8.581 8.581 0 00-.81-.483c-.143-.074-.437.186-.754.454a.456.456 0 00-.034.668c.24.234.094.627-.153.854-.347.32-.149.798.234 1.362.294.433-.292.925-.743.659a13.2 13.2 0 00-.661-.365c-.63-.32-1.11 0-1.296.645-.498 1.635-.705 1.81-2.338 1.605a.41.41 0 00-.07-.003c-.298.01-.463.327-.338.597.376.81.737 1.586 1.092 2.357.36.779.334 1.747-.323 2.299-.418.352-.82.506-1.204.514-1.58.032-3.532-.776-4.396-2.1-.424-.65-1.029-1.201-.718-2.201.154-.491-1.04-1.287-1.647-1.111-.607.176-.862.05-1.132-.587-.4-.946-1.984-1.27-2.902-.76-.49.272-1 .37-1.354-.3-.256-.485-.535-.953-.823-1.45a.446.446 0 00-.624-.154.439.439 0 01-.673-.316c-.13-1.087-.243-2.148-.445-3.192-.1-.512-.37-1.22-.753-1.4-.541-.247-.885-.559-1.02-1.007-.153-.505-.501-1.007-1.024-1.071-.687-.132-1.312-.312-1.459-1.247-.134-.862-.893-1.044-1.426-.758-.814.432-1.517.222-2.261 0-.505-.152-.907-.274-1.284.338-.132.215-.392.337-.718.375-.934.109-1.715.551-2.373 1.222-.571.584-1.577-.09-1.744-.889a44.135 44.135 0 00-.034-.161c-.173-.826-1.027-1.349-1.833-1.099a6.786 6.786 0 00-.757.276c-.562.249-1.007.608-1.275 1.085-.396.707-.825 1.445-1.556 1.795-.839.4-1.334.866-.959 2.061.401 1.262.59 2.469.98 3.734.09.29.121.623.075 1.013-.11.923-.14 1.857-.174 2.788-.012.349-.054.659-.196.868-.265.388-.775.817-.695 1.281.047.272-.092.461-.328.606l-1.86 1.144a.2.2 0 01-.293-.238l.033-.092c.039-.107-.055-.212-.168-.193-.259.044-.658.222-.756.108-.863-1.018-1.793-.622-2.735-.228-.42.175-.838.352-1.256.53a2.886 2.886 0 00-1.746 2.94l.084.843c.056.576-.207 1.153-.71 1.439-1.575.884-1.697 2.479-1.759 4.096a16.168 16.168 0 000 2.3c.093.871-.423 1.259-.999 1.467a7.192 7.192 0 01-2.104.354c-.253.012-.614-.252-.762-.502a2.906 2.906 0 01-.44-1.305c-.058-1.787-.796-3.314-1.503-4.863-.09-.2-.196-.571-.118-.641 1.11-1 .131-1.933-.22-2.693-.37-.801-1.048-1.553-2.049-1.693-.51-.072-.725-.383-.838-.987-.396-2.103-1.057-4.061-2.572-5.65-.842-.882-1.327-2.143-2.056-3.164-.297-.416-.783-.674-1.199-.992a.125.125 0 00-.147-.004.124.124 0 01-.195-.107c.02-.439.015-.878-.013-1.316-.211-1.601-.59-3.202-.668-4.803-.067-1.361-1.029-2.482-.718-3.941.08-.376-.122-.821-.294-1.245a.511.511 0 01.225-.631l.636-.381c.047-.028.073-.109.1-.06.993 1.651 1.405 1.755 3.147.878.292-.148.7-.036.986-.2.285-.164.647-.46.721-.767.141-.594.905-.989 1.481-.787.833.293 1.72.312 2.538.586a.194.194 0 00.242-.102.188.188 0 00-.07-.233l-.722-.452c-.684-.429-.883-1.568-.174-1.953a.772.772 0 01.275-.094c.79-.099 1.626.158 2.43.334.207.046.355.36.543.534 1.09 1.017 2.285.544 2.613-.981.17-.797.54-1.829 1.33-2.037.21-.055.48-.027.82.076.566.174.792-.833.594-1.391-.13-.365-.25-.7-.374-1.034-.341-.918-.692-1.835-1.05-2.75-.032-.082-.12-.2-.186-.2-.99-.086-.85-.903-.712-1.49.272-1.158-.172-1.648-1.151-1.924-.253-.073-.47-.453-.625-.739-.765-1.44-.75-3.15-.15-4.667l.022-.056c.373-.944-.483-1.385-.788-2.08-.144-.328.015-.689.23-.976l.488-.649a.471.471 0 01.449-.182.408.408 0 00.396-.147c.72-.976.437-2.685-.566-3.443a9.403 9.403 0 01-.718-.617c-.405-.375-.95-.538-1.488-.66-.74-.228-.842-.628-.409-1.333.537-.872 1.037-1.773 1.629-2.601.47-.655 1.11-.2 1.323.188.115.225.25.39.398.515.704.595 2.03-.266 1.985-1.187-.028-.561-.306-1.066-.213-1.62.066-.396.13-.75.219-1.104.151-.6.36-1.183.555-1.772.018-.058.12-.104.116-.148-.118-1.45 1.197-1.703 1.864-2.47 1.06-1.216.838-2.773-.626-3.423-.204-.075-.279-.342-.172-.531.507-.907-.308-1.669-.46-2.513-.065-.363-.08-.819.072-1.125.421-.857.938-1.663 1.432-2.478a.836.836 0 01.37-.286c.705-.32 1.113-.821 1.221-1.527.07-.45.375-.901.816-1.01.31-.077.622-.125.94-.013.257.091.72-.023.635-.282-.269-.812.12-1.03.762-1.229.474-.146 1.05-.4 1.295-.8.472-.78 1.133-.917 1.867-1.029a.77.77 0 00.41-.222c.943-.974 1.24-.952 2.264-.146a1.7 1.7 0 00.143.102c.674.43 1.419-.23 1.394-1.029a1.623 1.623 0 01.115-.714c.133-.303.155-.693-.097-.909-.326-.28-.23-.892.194-.969a.649.649 0 01.244-.003c3.105.6 6.167.058 9.226-.368 2.119-.297 2.108-.38 2.435-2.686.068-.477.14-.954.215-1.449.09-.588.56-1.063 1.152-1.117.524-.046.866-.282.97-.878.039-.295.153-.572.33-.8.354-.389.694-.749.806-1.266.068-.31.024-.65.186-.923.08-.136.188-.25.316-.334.995-.584 2.107-.98 3.021-1.677.622-.474 1.064-1.286 1.447-2.03.463-.896.73-1.87 1.59-2.519.629-.472 1.167-.92 2.004-.844.634.058 1.13-.246 1.228-1.053.084-.69.304-1.365.37-2.055.093-1.027.642-1.68 1.379-2.235.753-.572 1.643-.939 2.586-.868l2.547.193a.368.368 0 01.285.173l.009.014c.117.191.38.226.543.072a.324.324 0 01.537.128c.089.259.18.502.347.644.03.025.063.046.099.063.576.274 1.166.508 1.327 1.125l.124.447a.433.433 0 01-.511.537c-.315-.072-.563.209-.4.487.153.26.311.499.37.728.117.445-.066.998.187 1.381.215.325.42.632.632.931.351.499.886.979 1.08 1.561.243.727.21 1.555.315 2.338.2 1.46.555 2.92.574 4.38 0 1.096.94 2.142.281 3.264-.065.113-.146.227-.136.357.01.13.103.233.175.34.605.902-.265 1.419-.537 2.154-.68 1.845-2.167 2.023-3.612 2.165-.792.078-1.62-.358-2.442-.476-.97-.138-1.375-.827-1.788-1.663-.492-1.001-1.193-1.876-1.711-2.86-.333-.639-.494-1.379-.74-2.07a5.055 5.055 0 00-.304-.664c-.061-.114-.242-.254-.22-.3.666-1.377-1.129-2.136-.837-3.46-.137.528-.276 1.058-.415 1.586a.087.087 0 01-.101.064.087.087 0 00-.097.119c.087.213.175.428.266.655a.344.344 0 01-.194.45.345.345 0 00-.22.336c.03.652.056 1.28.082 1.896a2.114 2.114 0 01-1.282 2.034 2.13 2.13 0 00-.938.783c-.481.726-1 1.5-1.499 2.29-.39.624-.644 1.222.065 1.892.215.2.16.861.072 1.271-.172.8.14 2.28.74 2.702.383.268.855.45 1.238-.082.386-.532.446-1.204.212-1.818a1.164 1.164 0 01-.097-.497c.05-.67.021-1.423.36-1.933.485-.731 1.787-.096 2.168.694.566 1.174.252 2.697 1.114 3.675l.03.035c.098.108.21.201.332.286.633.44 1.551-.009 1.73-.758.337-1.401.988-2.002 2.343-2.041 1.121-.035 2.246.018 3.37-.022.816-.028 1.615.214 1.965.952.17.355.339.715.506 1.079.065.146-.016.362-.013.546.004.184-.018.496.063.535a.61.61 0 00.281.051c.192-.01.35-.142.498-.265A27.48 27.48 0 0081.52 55.8c.185-.182.205-.628.167-.932-.106-.833.185-1.413.845-1.818a1.43 1.43 0 00.148-.122c1.367-1.117 2.967-2.096 2.365-4.31-.044-.161.127-.453.235-.327.809 1.023 1.64 2.028 2.406 3.084.64.883.49 2.43-.298 3.14-.186.17-.689.242-.842.102a2.677 2.677 0 00-.253-.201c-1.328-.93-2.52 1.135-2.617 2.753-.017.267.057.531.209.743.245.257.525.473.829.642.823.534 1.556.656 2.246-.322.213-.297.492-.536.794-.774.412-.325.97-.266 1.435-.023.499.26 1.093-.283 1.648-.194.574.093 1.128.18 1.685.228 1.009.086 2.02.09 3.031.13.701.028 1.407.026 2.104.09l.18.017c1.005.1 1.43 1.323.737 2.06l-.255.27a.607.607 0 01-.588.174l-.336-.083a.171.171 0 00-.139.307c.505.35 1.007.708 1.519 1.046.112.075.237.149.37.133a.465.465 0 00.192-.07c1.073-.617 2.656-.28 3.49.68.204.233.616.34.94.358.711.04 1.427-.024 2.141-.026.825 0 1.19.425 1.209 1.19.006.251-.058.441-.286.546-.666.308.055.75.772.594a8.95 8.95 0 01.811-.124c.584-.071 1.01-.546 1.072-1.132l.202-1.89a3.975 3.975 0 00-.272-1.93c-.251-.61-.5-1.213-.721-1.827-.272-.757.338-1.201.723-1.587.333-.345.781-.108.925.416.23.86.515 1.721.603 2.601.025.238-.058.488-.176.77-.119.283.167.529.431.372a.33.33 0 01.417.066c1.172 1.33 2.432 2.654 3.549 4.106.565.732.885 1.631 1.569 2.356.657.692.959 1.813 1.296 2.791.317.924.508 1.92.745 2.891a.244.244 0 00.22.186.247.247 0 00.209-.09l.571-.701c.614-.755.46-1.853.396-2.823-.028-.425.055-.869.225-1.334a.604.604 0 00.02-.32c-.175-.99-1.506-2.491-.693-3.082.48-.349.961-.614 1.19-1.162.253-.606.504-1.207.766-1.83a.41.41 0 00-.211-.531.427.427 0 01-.14-.67c.455-.521.861-1.035 1.379-1.355 1.717-1.068 3.298-2.245 4.402-4.072.882-1.456 2.847-1.736 4.365-.966l.23.115c1.086.535 1.523 1.723.881 2.788-.772 1.28-1.716 2.454-2.406 3.778a3.302 3.302 0 00-.235 2.162c.348 1.309-.226 2.257-.727 3.284-.37.752-.753 1.499-1.094 2.267-.34.769-.529 1.675-.99 2.362-.793 1.187-.647 2.361-.085 3.466.498.979.095 1.51-.481 2.14-.296.324-.451.8-.709 1.164-.312.454-.614.945-1.014 1.3-.801.71-1.678 1.322-2.499 2-.891.74-1.895 1.891-2.828 1.205a2.446 2.446 0 01-.435-.42l-.005-.009c-.189-.418-.005-.91-.42-1.105-.553-.26-1.224.155-1.064.744.122.449.359.82.812 1.098.925.569 1.851 1.151 2.816 1.637.185.09.626-.166.815-.4.349-.414.664-.572 1.221-.724.925-.256 2.124-.467 2.539-1.753.074-.235.216-.569.392-.62 1.637-.5 1.574-2.04 1.867-3.367.085-.384.092-.8.235-1.155.348-.866.82-1.51 1.895-1.32.188.033.378.05.572.058 1.01.04 1.846.75 1.908 1.759.042.677.083 1.34.125 1.994a.491.491 0 00.983-.045c-.031-1.77-.023-3.554-1.882-4.633-.385-.223-.733-.389-1.059-.42-.45-.044-.94.07-1.356-.107a1.337 1.337 0 01-.761-1.606c.372-1.277.751-2.595 1.196-3.89.159-.46.701-.756.962-1.2.261-.444.496-.928.5-1.4 0-1.001-.143-2.002-.219-2.99-.045-.26.154-.48.315-.687.597-.768 1.081-1.664 2.189-1.821 1.199-.172 1.61-.7 1.869-2.002.099-.498.245-.985.375-1.475a.207.207 0 01.183-.153.214.214 0 01.224.174c.067.328.166.669.115.964-.237 1.373-.185 2.87-1.438 3.853-.185.144 0 .738-.114 1.086-.278.91-.108 1.894.672 2.439l.99.692c.643.449 1.515-.046.784-.33-1.11-.437-1.778-2.707-1.014-3.627.229-.276.721-.31 1.099-.437.462-.156.927-.298 1.391-.444a.216.216 0 00.051-.387l-.141-.092a.587.587 0 01.176-1.061l.044-.011a.607.607 0 01.743.467l.031.153c.071.35.382.59.731.666 1.42.312 2.04 1.688 2.586 3.073.298.755.529 1.335 1.423 1.417.426.04.833.336 1.246.562.094.051.334-.03.247-.092-.805-.614-1.058-1.445-.938-2.475.022-.178-.237-.425-.405-.6-.73-.726-1.114-1.734-.978-2.754a77 77 0 01.369-2.55c.185-.867 1.02-1.4 1.903-1.326l6.155.513c.746.062 1.641-.343 1.477-1.073-.106-.471-.487-.801-.814-1.15-.22-.233-.12-.584.168-.727a.559.559 0 00.212-.818l-.488-.706a.181.181 0 01-.003-.203.181.181 0 01.211-.071l.576.201a.943.943 0 001.026-.277l.401-.47a.393.393 0 00-.092-.588l-.05-.031c-.159-.1-.293-.487-.105-.469.977.04 1.85-.106 2.681-.81.777-.66 1.762-.839 2.809-.885.862-.039 1.718-.282 2.624-.522.347-.092.427-.563.124-.757l-.066-.043a.225.225 0 01-.102-.155.235.235 0 01.17-.26c.583-.165 1.171-.422 1.737-.37a5.158 5.158 0 012.269.766c.945.6 1.634.64 2.427-.246a1.86 1.86 0 01.296-.272c.273-.192.874-.83.742-1.136-.079-.184.063-.338.261-.362.673-.08 1.273-.138 1.86-.267.185-.042.49-.473.444-.6-.47-1.24.387-2.044.901-2.852.7-1.101 1.345-2.384 2.704-2.75.294-.08.701.122 1.002.298.181.105.359.216.537.333.672.441.719 1.417.112 1.945l-.546.476a.136.136 0 00-.04.147.136.136 0 00.155.091l.627-.115a.11.11 0 01.127.131.109.109 0 00.076.128l.817.237c.489.142.798.623.724 1.126l-.189 1.279c-.037.248.371.617.422.372.285-1.369 1.308-1.299 2.272-1.401.478-.05.946-.27 1.422-.284.475-.014 1.03-.092 1.33.55.116.214.24.423.371.626.126.196.405.203.441-.026.038-.245.373-.382.496-.167.505.882.912 1.606 1.345 2.31.926 1.492.581 3.103.428 4.696-.007.458-.399.788-.696 1.139-.875 1.033-1.452 2.344-2.67 3.13-.857.554-1.336 1.765-2.004 2.663a15.003 15.003 0 01-1.242 1.535c-.832.865-1.719 1.67-2.559 2.526-.167.223.054.48.331.455l1.876-.174c.515-.047.946-.339 1.243-.762.243-.346.574-.65 1.18-.656.226 0 .45-.167.675-.346.154-.123.127-.383-.053-.463a.26.26 0 01-.126-.12c-.2-.396-.57-.93-.463-1.088.283-.4.802-.648 1.26-.879.466-.234.927.414 1.294.784.201.203.513.318.884.37a.95.95 0 00.341-.005c.627-.144 1.026-.623 1.362-.075.224.365.734.557 1.11.352.289-.158.596-.323.907-.481.32-.162.666-.4.993-.4 1.216.036 2.43.148 3.64.26.11.016.22.035.329.055.396.075.615.487.493.87a.717.717 0 00.494.91c.167.045.333.088.501.126.57.13 1.206.108 1.7.387.778.438 1.224-.305 1.838-.4.266-.041.53-.104.8-.176.584-.156.954-.695.991-1.298.056-.734.017-1.513.241-2.19.423-1.29.829-1.44 1.939-.72.984.64 1.895.655 2.92.169.285-.135.755-.02 1.064.142.681.358 1.426.706 1.935 1.274.476.529.696 1.33.996 2.026.185.43.266.914.471 1.333.13.262.259.52.319.768.164.675.162 1.442.367 2.106.146.475-.131 1.073.15 1.484.368.54.771 1.027 1.25 1.403 1.12.88 2.433-.295 2.572-1.712l.348-3.551a.303.303 0 01.434-.243c.217.105.212.403.081.606-.188.29.025.545.395.814 1.192.88 2.076.756 3.018-.615.466-.682.907-1.145 1.751-.826.087.04.182.06.277.06.191 0 .356-.116.515-.22 1.086-.708 2.245-1.187 3.536-1.267a.235.235 0 00.057-.01c.119-.038.13-.188.087-.306-.167-.465-.285-.895-.503-1.255-.248-.408-.659-.765-.977-1.159-.141-.174-.371-.45-.324-.582.233-.645.222-1.431 1.056-1.733.681-.247.666-.677.082-1.201-.225-.205-.114-.591.169-.703.166-.065.323-.124.48-.17a96.014 96.014 0 013.331-.822 37.19 37.19 0 012.763-.535c.531-.082.733.44.284.735l-.062.041c-.434.292-.116.625.327.346a.534.534 0 01.786.634l-.635 1.732a.17.17 0 00.313.135c.543-1.084 1.101-2.161 1.623-3.256.976-2.055 2.544-2.416 4.059-.897.229.23.152.608-.134.76l-.221.12a.292.292 0 00-.103.421.344.344 0 00.159.123c.136.055.28.128.378.083.272-.122.531-.514.753-.48 1.125.168 2.241.426 3.353.682.242.069.469.19.668.354.89.689 1.685.299 2.192-.454 1.492-2.201 3.829-3.154 5.82-4.603.27-.148.579-.194.877-.13.459.072.897.312 1.358.366 1.26.15 2.015.85 2.355 2.152.243.924.94.484 1.481.474.896 0 1.735-.442 2.243-1.18l.819-1.193c.681-.991 2.266-1.383 3.155-2.192.407-.368.957-.554 1.412-.87.29-.2.772-.525.74-.741-.092-.819.442-1.543.152-2.422-.185-.586.325-1.04.943-1.224.506-.149.964-.373 1.251.342l.028.052c.208.396.169.892-.153 1.202-.32.307-.387.837-.014 1.078.524.34 1.127.275 1.797-.065.185-.09.459-.026.676.034.54.146 1.177-.08 1.304-.625a1.46 1.46 0 00.041-.413c-.065-1.337-.798-1.906-2.095-1.778-.194.01-.343-.145-.416-.325l-.229-.564a1.952 1.952 0 01.82-2.424 19.527 19.527 0 001.82-1.183c.808-.63 1.538-1.37 2.17-2.202a4.577 4.577 0 012.106-1.515c1.186-.442 2.298-1.11 3.486-1.535.674-.24 1.442-.166 2.161-.276a3.15 3.15 0 001.138-.334c.709-.427 1.379-.81 2.162-.2a.426.426 0 00.348.062c.891-.28 1.772-.6 2.67-.86.396-.113.84-.04 1.234-.157a6.325 6.325 0 001.632-.656c.503-.319.936-.507 1.463-.134.126.09.293.242.406.212 1.402-.369 2.065.738 2.879 1.58.131.137.438.133.655.11.142-.028.283-.065.422-.108.19-.06.253-.291.139-.454l-.08-.113c-.196-.28-.695-2.56-.357-2.502.155.026.45-.585.611-.937.359-.782.843-1.129 1.733-1.18 1.134-.07 2.259-.309 3.418-.533.543-.105 1.004.224.992.777-.008.42.025.849.377 1.154.224.195.329.554.119.764-.152.152-.139.39-.031.576a.6.6 0 01.039.567c-.28.7-.114 1.534.359 2.12.304.379.452.89.378 1.6-.057.555.213.964.889.687.417-.169.813.351.818.802.002.24.002.475-.01.71-.039.616-1.352 1.304-2.168 1.234a1.457 1.457 0 00-.979.242c-1.138.913-2.208 1.535-3.62.438-.657-.508-1.395.038-1.85.665-.337.464-.503 1.065-.781 1.585-.123.231-.258.456-.406.694-.225.363-.78.317-.986-.057-.166-.3-.536-.31-.869-.23-.555.136-.805-.418-1.003-1.015-.029-.087-.175-.207-.205-.12-.82 2-.818 2 1.345 2.413.157.03.387.146.425.276.454 1.503 1.085 2.954.633 4.635a3.61 3.61 0 01-.512 1.16c-.551.791-.832 2.694-.078 2.093.528-.42 1.202-.812 1.791-.481.568.32 1.136.641 1.691.989a6.4 6.4 0 00.756.422c.803.364 1.725.623 2.564.895.696.228 1.201.488 1.049 1.416a.387.387 0 00-.005.09c.016.45.011.91-.383 1.123-2.857 1.143-3.163 3.857-3.585 6.526-.111.705-.37 1.385-.601 2.064-.618 1.845-.37 3.768-.488 5.661-.056.967-.069 1.964-.313 2.882-.202.755-.337 1.361.153 2.03.354.483-.316 1.189-.893 1.03a1.924 1.924 0 01-.241-.084c-1.053-.442-3.077.276-3.645 1.323a7.482 7.482 0 00-.925 4.015c.003.046.006.092.007.138.019.512-.591.622-.88.199a.624.624 0 00-1.089.109c-.103.248-.202.491-.294.737a.662.662 0 00-.042.163 1.04 1.04 0 00.048.45c.172.61-.606 1.006-1.093 1.412-.217.18-.386.458-.547.774-.457.907-.331 1.601.283 2.428.394.532.424 1.389.555 2.111.26 1.323.458 2.662.741 3.98.09.433.807.208 1.179-.03.26-.166.563-.161.87-.135.463.039.922.326 1.025.779.248 1.094.314 2.263 1.487 2.861a.085.085 0 00.09-.008l.189-.148c.053-.041.121.027.079.08a.056.056 0 00.017.084c.399.216.838.383 1.17.682.279.255.631.74.568 1.027-.194.873-1.201 1.39-1.238 2.283-.059 1.448.693 2.974 1.893 3.553.86.412.838 1.145.555 1.929-.25.596-.981.874-1.439 1.328a1.793 1.793 0 00-.513 1.174c-.082 1.543.146 2.986 1.48 3.958.537.401 1.027.739 0 1.273-.433.222-.577 1.039-.899 1.551-.635 1.001-.267 1.691.302 2.666.532.918.555 2.285.516 3.442-.05 1.263-.442 2.51-.69 3.762-.073.391-.585.522-.887.264-.613-.524-1.199-.992-1.55-1.608-1.24-2.19-3.07-3.767-4.695-5.55a45.084 45.084 0 01-6.604-9.406c-.645-1.227-.982-2.52-.699-4.019.321-1.717.392-4.877.834-6.568.22-.839.342-1.718.483-2.586.089-.548.117-1.11.163-1.667.011-.124.035-.3-.028-.37-.812-.914-.396-1.917-.227-2.918.226-1.333.448-2.67.585-4.016.057-.569-.272-1.215-.132-1.736.25-.92.74-1.767 1.096-2.655.207-.444.06-.956-.09-1.422a13.803 13.803 0 00-.232-.662c-.032-.094-.05-.248-.108-.268-1.069-.374-.925-1.569-1.397-2.341-.694-1.13-.847-1.393-.74-2.282.042-.345-.355-.577-.616-.348-.044.038-.041.146-.085.174-1.456.91-.313 2.001-.117 2.968.065.322.6.514.853.827.382.47-.263 1.146-.636 1.623-.211.27-.277.664-.343 1.086a52.315 52.315 0 01-.922 4.691.346.346 0 01-.658.049c-.076-.186-.292-.264-.492-.257-.656.022-1.231-.666-1.327-1.635-.045-.457-.146-.91-.229-1.364a.185.185 0 00-.351-.042l-.168.383a.765.765 0 01-.752.45c-1.012-.063-1.11.11-1.941 1.34a2.96 2.96 0 01-.892.772c-.418.262-1.135 2.041-.903 2.504.285.562.388 1.076.111 1.689a1.237 1.237 0 000 .88c.438 1.033-.043 1.908-.278 2.86a8.274 8.274 0 00-.15 2.448c.018.275.07.548.133.81.121.495.714.66 1.148.393.627-.388 1.13-.138 1.36.512.196.546.12 1.093-.629 1.169-.139.014-.256.222-.389.328-.274.216-.531.552-.834.6-.804.154-1.329.443-1.34 1.451 0 .266-.402.56-.664.781-.37.31-.772.568-1.166.84-.394.273-.785.613-1.223.751-.07.022-.23-.281-.392-.588a.55.55 0 01.133-.683.502.502 0 00.012-.78c-.733-.584-.955-.409-1.528.534-.111.182-.603.09-.925.146-.74.134-1.678.042-2.161.496-.823.77-.982 2.62-1.961 3.178-.494.281-.99.556-1.492.815-.262.13-.563.181-.861.227a.666.666 0 00-.555.556l-.013.076a.666.666 0 01-1.087.398.674.674 0 00-.789-.056c-1.281.792-2.721 1.598-4.013 2.615a4.578 4.578 0 00-1.297 1.613 4.979 4.979 0 00-.498 2.068c-.02.512-.361 1-.546 1.513-.135.37-.37.75-.37 1.116.117 2.602-1.417 4.603-2.139 6.913-.153.458-.279.926-.379 1.401-.409 2.165-.925 4.257-2.174 6.116-.296.438-.544.913-.771 1.403-.663 1.431-.027 3.207 1.327 2.399.687-.414 1.135-.318 1.466.493.091.217.189.43.294.64.245.494.868.276 1.142-.202.067-.116.152-.224.26-.321.217-.194.488.05.408.33a.36.36 0 00.418.454l.014-.003a.37.37 0 01.422.486l-.02.057c-.129.365.254.648.523.37.555-.574.915-1.217 1.034-1.792.114-.548.293-1.176.772-1.465.303-.184.605-.368.902-.558.503-.322 1.551.064 2.172.677.358.352.855.558 1.316.766.642.29 1.388.4 1.932.827.097.075.151.214.185.39.145.758.247 1.523.583 2.217.106.219.217.435.335.647.168.27.503.423.794.607a.206.206 0 00.247-.02.198.198 0 00.055-.196c-.311-1.1-.517-2.256-.985-3.273-.486-1.047-.666-1.52-.345-1.825.552-.524 1.288-.985 1.103-1.724-.131-.523-.408-.951-.877-1.251-.324-.206-.528-.584-.329-.913.222-.367.777-.422 1.012-.064.29.442.568.865.851 1.28.329.528.688 1.033 1.075 1.513 1.135 1.291 1.655 2.876 1.951 4.561.041.348.158.679.343.967.184.288.43.524.717.688.334.234.628.529.87.871 1.607 2.001 3.191 4.002 4.81 5.989.398.481.809.954 1.236 1.437.334.376-.071.918-.538.731-.925-.368-1.834-.016-2.233.826-.056.116-.158.261-.132.361.502 1.891-.101 4.098 1.268 5.715.758.895 1.737 1.581 2.651 2.314.46.352 1.062.441 1.279.978l.728 1.8a.165.165 0 01-.278.168c-.123-.14-.248-.279-.354-.431-.57-.812-1.271-1.034-2.122-.612-.753.374-.381 1.069-.335 1.641.095 1.167-.927 1.215-1.427.156a8.5 8.5 0 01-.636-1.903c-.141-.684-.566-1.299-.846-1.955a2.376 2.376 0 01-.253-.815c-.052-1.479-.5-2.72-1.677-3.602a1.472 1.472 0 01-.436-.707c-.556-1.731-1.076-3.48-1.655-5.203-.185-.55-.555-1.027-.779-1.565a3.58 3.58 0 01-.301-1.201c-.032-.786-.269-1.389-.887-1.869-.671-.522-1.309-1.098-1.989-1.69-.248-.216-.63-.091-.659.237a38.432 38.432 0 00-.013 2.065c.015.555-.027 1.141.123 1.658.651 2.243 1.445 4.442 2.035 6.706.555 2.117.886 4.217.229 6.496-.603 2.099-.74 4.367-.954 6.574-.241 2.454-1.027 4.725-1.758 7.027-.33 1.039-.555 2.113-.883 3.152-.568 1.801-1.082 3.644-1.791 5.389-.795 1.94-2.122 3.418-3.549 4.577a2.072 2.072 0 01-1.591.424l-1.289-.176c-.179-.025-.315-.12-.347-.298-.045-.248-.305-.445-.534-.342-1.033.463-1.56 1.307-1.601 2.515a.574.574 0 01-.482.561.531.531 0 00-.452.436.564.564 0 01-1.024.19l-.4-.611c-.157-.24-.198-.551-.028-.782a1.87 1.87 0 01.158-.186c.89-.754 1.086-1.841.857-2.981-.35-1.754-.998-3.349-1.771-4.912-.067-.132-.132-.36-.071-.456.432-.688.791-1.497 1.381-1.979.433-.356 1.178-.296 1.789-.376.37-.051.775.072 1.11-.047.259-.09.583-.4.629-.674.138-.87.222-1.748.252-2.63.065-1.421.22-2.859.087-4.264-.102-1.064-.325-2.106-.035-3.024.207-.656.353-1.399.009-1.996l-.052-.09c-.389-.674-1.602-1.258-1.878-.53-.409 1.069-1.352 1.353-2.061 1.971-.119.104-.324.176-.355.302-.52 2.08-2.469 1.718-3.753 2.468-.485.284-1.464-.74-1.73-1.553-.146-.448-.418-.849-.6-1.285z" fill="#D3D3D3"/><path d="M104.352 52.255a.152.152 0 00-.037-.156c-.319-.315-.679-.603-.927-.975-.231-.35-.528-.886-.424-1.2.125-.376.606-.62.951-.913a.07.07 0 01.08-.008c.061.035.129-.034.093-.094l-.232-.398a.19.19 0 00-.297-.04l-.187.18a.406.406 0 01-.682-.255 8.306 8.306 0 01-.043-1.218c.032-.562.278-1.051.112-1.59-.262-.845.001-1.718.761-2.333.63-.511 2.134-.078 2.683-.676.18-.197.317-.427.374-.722.086-.441.4-.87.841-.96.306-.106.597-.26.863-.455.158-.114.306-.498.371-.476.68.25 1.25-.068 1.79-.332.233-.114.532-1 .348-1.183a.224.224 0 01-.034-.276l.087-.145a.47.47 0 01.263-.208l1.983-.603a2.77 2.77 0 00.754-.361l.974-.666c.143-.098.213-.263.26-.428.101-.36.435-.352.874-.203.171.058.336-.125.246-.282a.186.186 0 01.053-.245l.4-.286a.1.1 0 00-.013-.169.099.099 0 01-.05-.12l.248-.715a.439.439 0 01.76-.127.44.44 0 00.636.058l.423-.372a.204.204 0 01.246-.018l.298.191c.06.039.136-.019.115-.088a.076.076 0 01.04-.092c.553-.275 1.088-.659 1.669-.771 1.073-.2 2.178-.21 3.266-.344a7.926 7.926 0 001.167-.316.107.107 0 00.071-.109c-.005-.082.081-.146.159-.12.097.032.19.067.241.14.951 1.31 2.323.925 3.589 1.127 1.266.202 2.202-.414 3.238-.826.878-.348 1.566.088 2.166.552.391.302.428.848.063 1.48-.936 1.617-2.283 2.14-3.946 2.141-1.627 0-3.26-.03-4.88.094a22.366 22.366 0 00-3.609.656c-.344.086-.667.49-.9.826-.319.46-1.605.852-2.126.8a2.447 2.447 0 00-1.464.4c-.556.35-.973.906-1.483 1.336-.228.193-.583.07-.794.282-.826.825-1.71 1.628-3.002 1.723-.083 0-.171.116-.241.2-.819.916-1.764 1.6-2.78 2.282-.875.582-1.4 1.978-1.789 3.123-.577 1.695-.878 3.458-.224 5.206.149.398-.023.864-.421 1.012a.689.689 0 01-.762-.19c-.41-.47-.837-.974-1.317-1.41-.172-.154-.483-.133-.767-.145a.141.141 0 01-.125-.19zm116.709-8.322a.746.746 0 00-.477.629c-.041.406-.366.77-.772.808-.611.056-1.162-.005-1.525-.81-.087-.2-.454-.218-.614-.4a19.866 19.866 0 01-1.279-1.613 5.18 5.18 0 01-.342-.688 1.405 1.405 0 01-.101-.409 5.12 5.12 0 01.198-1.98c.117-.385.279-.751.48-1.09.299-.503.945-.62 1.477-.376l.475.218a.967.967 0 001.356-.755c.078-.58.653-.948 1.189-.713l.06.026c.65.354 1.225.722 1.962.064.212-.2.816.112 1.239.2.775.155 1.348.828 1.322 1.618-.006.183-.015.365-.027.547-.039.332-.284.634-.421.956-.292.687-.487 1.757-1.11 2.167a.43.43 0 01-.232.08c-1.071 0-1.729.623-2.435 1.285-.116.1-.26.168-.423.236zm-55.386-16.462a1.65 1.65 0 00-.544-.871c-.145-.128-.265-.244-.249-.274.329-.59.759-1.118 1.113-1.716.246-.38.418-.868.75-1.116.794-.595 1.958-.62 2.924-.168.124.059.195.16.175.296-.041.286.275.518.513.353l.283-.197c.184-.127.436-.114.584.053 1.12 1.264.566 2.723.309 4.163a5.54 5.54 0 00-.043 1.733c.137.938-.632 1.838-1.509 1.66-.185-.038-.407-.038-.537-.154-.94-.836-2.082-1.274-3.112-1.91-.392-.24-.476-1.041-.657-1.852zM1.396 108.884c-1.063-.61.34-1.905.677-3.082.221-.776-.335-1.649-1.053-2.542a.224.224 0 01.21-.362l3.202.553a.184.184 0 00.212-.148.183.183 0 01.312-.094c1.315 1.383 2.334 2.823 2 4.553-.126.647-.02 1.356.474 1.793l.758.67a.802.802 0 01-.192 1.327.828.828 0 01-.977-.22c-.3-.35-.614-.686-.94-1.007a2.803 2.803 0 00-1.159-.536 53.758 53.758 0 00-2.978-.704 1.864 1.864 0 01-.546-.201z" fill="#D3D3D3"/><path d="M167.234 22.89c-.974.219-1.187 1.417-1.994 2.005-.551.401-1.365.04-1.767-.51l-.075-.104c-.17-.266-.391-.6-.358-.88.028-.244.355-.474.586-.654.122-.08.245-.158.369-.232.252-.15.264-.521.013-.67a.376.376 0 01-.065-.594c.327-.316.643-.645.947-.988.21-.256.478-.763.371-.941-.502-.9.185-1.188.63-1.586.672-.61 1.374-1.18 2.102-1.71.126-.088.636.174.758.4a25.04 25.04 0 011.309 2.8c.098.254-.071.654-.186.962-.161.455-.543.895-.532 1.331.022.876-.37 1.056-1.056 1.16-.351.06-.701.132-1.052.211zm7.503 6.485c-.069.252.262.453.444.266a.24.24 0 01.364.022c.448.591.854 1.167 1.313 1.685.662.736.371 2.6-.535 2.88-1.038.33-2.119.511-3.151.853-.449.15-.804.586-1.242.8-.28.138-.81.264-.914.126-.203-.268-.341-.786-.231-1.092.522-1.482 1.147-2.921 1.71-4.385.126-.322.084-.73.243-1.022a5.633 5.633 0 011.059-1.496c.174-.162.715 0 1 .168.126.08.08.576.026.864-.027.11-.056.221-.086.331zM8.951 52.972c.855-.416 1.483-.738 2.14-1.032.088-.038.242.038.344.1.741.452 1.47.912 2.198 1.366l-1.182.148.442.74c1.209-.76 1.38-.646 1.483.771.076 1.152.215 2.298.326 3.436-.498.244-.926.54-1.399.648a.91.91 0 01-.437-.1.987.987 0 01-.349-.3c-1.19-1.856-2.33-3.756-3.566-5.777zm267.99-28.489c-1.023.554-1.884 1.404-2.313.322-.392-.992-.326-2.22.286-3.088.626-.89 1.256-1.457 2.353-1.4.946.046 1.533.714 1.174 1.676-.339.902-.46 1.938-1.5 2.49zm-49.731 12.46c.061-.197.306-.233.453-.088.147.145.393.108.508-.064.327-.492.67-.732 1.064-.727.664.008 1.49-.152 2.15-.222.274-.03.567.014.858.047.437.05.91.27.963.707.097.802-.382 1.52-1.337 2.048-1.431.8-2.84.468-4.245 0-.481-.173-.639-.978-.414-1.7zM131.914 5.122c.095-.21.372-.232.542-.075.213.196.477.085.372-.185-.11-.285-.243-.55-.095-.712.128-.142.354-.084.526-.003l1.779.837a.177.177 0 00.217-.054.169.169 0 00-.034-.238c-.212-.155-.445-.302-.597-.485-.395-.474.495-.427 1.099-.55.239-.049.46-.265.66-.705.034-.076.603 0 .788.172.357.332-.142.909-.562 1.157-.679.402-1.078 1.044-1.128 1.768-.065.943-.173 1.758-1.046 1.392a.718.718 0 00-.232-.058c-.151-.01-.303.025-.453.01l-.889-.091a.39.39 0 01-.307-.568.387.387 0 00-.144-.509c-.404-.248-.752-.536-.496-1.103zm-7.442.028a.23.23 0 01-.048-.41.22.22 0 00.078-.28c-.155-.307-.337-.578-.273-.728.08-.14.188-.26.317-.351.128-.091.272-.15.424-.175.741-.086 1.5-.052 2.25-.084.186 0 .464-.044.504-.15.416-1.092 1.014-.95 1.674-.61a.5.5 0 01.176.719.496.496 0 00-.032.488l.019.04a.577.577 0 01-.449.82l-2.243.285c-.367.047-.636.346-.944.55-.355.237-.859.103-1.453-.114zM93.583 54.062c-1.805 0-2.467-.426-2.452-1.532.01-.636 1.203-1.614 1.98-1.618 1.023 0 1.523.694 1.558 2.056.026.958-.365 1.283-1.086 1.094zm194.78 105.563c-.098.287-.647.317-.589.019.173-.903.419-1.789.631-2.685.227-.952 1.38-1.611 1.791-2.499.089-.193.159-.415.212-.663.06-.283.571.098.633.38.041.186.061.36-.003.486-.348.684-.849 1.278-1.249 1.934a15.625 15.625 0 00-.947 1.764 13.63 13.63 0 00-.479 1.264zM139.205 10.52c-.541-.32-.364-1.082.197-1.366l1.186-.602c.357-.18 1.014-.178 1.007.222 0 .86-.487 1.49-1.188 1.862-.35.183-.772.138-1.202-.116zm-10.009 40.742c1.003-.545 2.587.666 1.67 1.346-.31.23-.775.204-1.405-.038-.493-.2-.704-1.07-.265-1.308zm-4.531-49.09c-.096-.037-.178-.114-.192-.215l-.009-.049c-.104-.516.315-.975.842-.953.346.014.765-.062 1.112.044.346.106.774.316.889.6.169.42-.656.47-1.11.468-.488-.003-1.04.297-1.532.105zm172.561 121.731a.26.26 0 01.1.32l-.252.599c-.102.243-.098.515-.04.772.184.813.006 1.683-.674 2.442-.214.242-.764-.078-.697-.392a.134.134 0 01.015-.041c.223-.377.366-.803.418-1.247a3.248 3.248 0 00-.118-1.319c-.07-.247.509-.698.906-1.092a.276.276 0 01.342-.042zm-111.377-69.34c.591-.044 1.839.752 1.868 1.284-.006.16-.045.316-.113.458a1.101 1.101 0 01-.281.364.964.964 0 01-.838.114c-.871-.358-.957-.73-.636-2.22zm105.744 30.156c.044-.664.92-1.157 1.314-.621.128.166-.065.634-.15.956l-.141.518c-.277 1-1.059 1.062-1.055.025.001-.27.011-.562.032-.878zm-5.396 78.469c-.183.815-1.04 1.484-.858.669.146-.644.296-1.29.453-1.963.117-.5.491-.9.982-1.049l.386-.117a.156.156 0 01.173.237c-.487.703-.954 1.413-1.136 2.223zm7.093-14.41a.23.23 0 01.146.264l-.506 2.374a.458.458 0 11-.869-.272l.937-2.239a.23.23 0 01.292-.127zm-70.644-101.57c-.131-.56.512-1.097 1.009-.805.202.119.253.304.234.666-.023.43-.38.854-.786.713-.236-.081-.385-.269-.457-.574zm-8.314-4.819c-.188-.432.532-1.309.614-.845.072.526.11 1.056.115 1.587a.193.193 0 01-.178.193.196.196 0 01-.195-.116l-.356-.82zM138.259 2.515a.466.466 0 11.137-.886l.733.339a.235.235 0 01-.069.446l-.801.1zm-8.727 4.181c.354-.008.553.383.442.72l-.004.011a.595.595 0 01-.664.4c-.288-.05-.517-.307-.442-.59.106-.398.347-.534.668-.541zm8.26.547c.407-.074.73.385.386.616a.604.604 0 01-.57.078c-.363-.129-.196-.624.184-.694zm157.389 136.671c.068-.329.53-.379.587-.047a.67.67 0 01-.034.346c-.13.371-.632.086-.553-.299zM130.33 5.464a.127.127 0 01.165.107c.045.428.09.852.137 1.272a.085.085 0 00.138.057c.08-.064.182.04.116.12l-.158.186a.11.11 0 01-.192-.051l-.291-1.548a.126.126 0 01.085-.143zm4.559 49.182a.407.407 0 11-.188.791.407.407 0 01.188-.791zm6.955-49.849c.224.4-.647.672-.867.268a.862.862 0 01-.023-.049c-.178-.448.654-.64.89-.22zm76.157 45.494a.23.23 0 01-.337.04l-1.028-.885a.215.215 0 01.277-.33l1.048.862a.23.23 0 01.04.313zm-83.848-38.166a.356.356 0 11-.713 0 .356.356 0 01.713 0zm162.518 119.026c.053.463-.566.291-.61-.174l-.037-.393a.193.193 0 01.178-.211.203.203 0 01.195.112c.111.214.246.429.274.666z" fill="#D3D3D3"/></svg>