<svg width="308" height="214" viewBox="0 0 308 214" fill="none" xmlns="http://www.w3.org/2000/svg"><path d="M274.828 182.946v3.721H271v2.396h3.828v9.27c0 1.135.206 2.586 1.517 3.595.965.757 2.448 1.072 3.793 1.072a9.69 9.69 0 002.862-.441v-2.523a4.173 4.173 0 01-2.069.568c-1.069 0-1.724-.41-2.103-.789-.656-.662-.759-1.482-.759-2.081v-8.671h4.862v-2.396h-4.862V182l-3.241.946z" fill="#D3D3D3"/><circle cx="286" cy="181" r="2" stroke="#D3D3D3" stroke-width="2"/><path d="M143.064 83.149A1.603 1.603 0 01144.6 82h12.8a1.598 1.598 0 011.516 2.106l-5.695 17.093h12.178a1.594 1.594 0 011.438.896 1.606 1.606 0 01-.174 1.686l-22.399 28.798a1.597 1.597 0 01-2.741-.363 1.597 1.597 0 01-.052-1.09l5.763-18.728h-10.633a1.608 1.608 0 01-1.282-.641 1.604 1.604 0 01-.254-1.41l7.999-27.198z" fill="#D3D3D3"/><path d="M21.496 108.248l-2.248-.321m.963 9.634l1.285-2.248-1.285 2.248zM26.634 106l-1.285 2.248L26.634 106zm-3.212 5.78l-1.926 3.533 1.927-3.533zm0 0l1.927 3.533-1.927-3.533zm0 0h-4.495 4.495zm0 0h4.175-4.175zm0 0l1.927-3.532-1.927 3.532zm0 0l-1.926-3.532 1.927 3.532zm-6.422 0h1.927H17zm12.845 0h-2.248 2.248zM20.211 106l1.285 2.248L20.21 106zm6.423 11.561l-1.285-2.248 1.285 2.248zm-5.138-2.248l.642 2.248-.642-2.248zm0 0l-2.248.321 2.248-.321zm3.853 0l-.642 2.248.642-2.248zm0 0l2.248.321-2.248-.321zm-6.422-3.533l-.642 1.606.642-1.606zm0 0l-.642-1.605.642 1.605zm8.67 0l.963-1.605-.963 1.605zm0 0l.963 1.606-.963-1.606zm-2.248-3.532l2.248-.321-2.248.321zm0 0L24.707 106l.642 2.248zm-3.853 0l.642-2.248-.642 2.248zm159.333-53.833l-3.414-.488m1.463 14.634l1.951-3.415-1.951 3.415zM188.634 51l-1.951 3.415L188.634 51zm-4.878 8.78l-2.927 5.366 2.927-5.366zm0 0l2.927 5.366-2.927-5.366zm0 0h-6.829 6.829zm0 0h6.341-6.341zm0 0l2.927-5.365-2.927 5.365zm0 0l-2.927-5.365 2.927 5.365zm-9.756 0h2.927H174zm19.512 0h-3.415 3.415zM178.878 51l1.951 3.415L178.878 51zm9.756 17.56l-1.951-3.414 1.951 3.415zm-7.805-3.414l.976 3.415-.976-3.415zm0 0l-3.414.488 3.414-.488zm5.854 0l-.976 3.415.976-3.415zm0 0l3.414.488-3.414-.488zm-9.756-5.366l-.976 2.44.976-2.44zm0 0l-.976-2.439.976 2.44zm13.17 0l1.464-2.439-1.464 2.44zm0 0l1.464 2.44-1.464-2.44zm-3.414-5.365l3.414-.488-3.414.488zm0 0L185.707 51l.976 3.415zm-5.854 0l.976-3.415-.976 3.415z" stroke="#D3D3D3" stroke-width="1.5" stroke-linecap="round" stroke-linejoin="round"/><path d="M161.8 35.352l-1.4-.193m.6 5.794l.8-1.352-.8 1.352zM165 34l-.8 1.352L165 34zm-2 3.477l-1.2 2.124 1.2-2.124zm0 0l1.2 2.124-1.2-2.124zm0 0h-2.8 2.8zm0 0h2.6-2.6zm0 0l1.2-2.125-1.2 2.125zm0 0l-1.2-2.125 1.2 2.125zm-4 0h1.2-1.2zm8 0h-1.4 1.4zM161 34l.8 1.352L161 34zm4 6.953l-.8-1.352.8 1.352zm-3.2-1.352l.4 1.352-.4-1.352zm0 0l-1.4.193 1.4-.193zm2.4 0l-.4 1.352.4-1.352zm0 0l1.4.193-1.4-.193zm-4-2.124l-.4.965.4-.965zm0 0l-.4-.966.4.966zm5.4 0l.6-.966-.6.966zm0 0l.6.965-.6-.965zm-1.4-2.125l1.4-.193-1.4.193zm0 0L163.8 34l.4 1.352zm-2.4 0l.4-1.352-.4 1.352z" stroke="#D3D3D3" stroke-linecap="round" stroke-linejoin="round"/><path d="M40.412 12.256c-1.96-3.65-6.448-4.911-10.024-2.82l-.297.175c-3.575 2.091-4.884 6.745-2.923 10.394l7.008 13.044 13.244-7.75-7.008-13.043z" fill="#D3D3D3" stroke="#D3D3D3"/><path d="M47.594 30.842l32.971 63.11m-41.95-57.858l29.033 55.708" stroke="#D3D3D3"/><path d="M47.262 30.426l6.876 13.373" stroke="#D3D3D3" stroke-width="2"/><rect x="-.195" y=".693" width="18.316" height="3.37" rx=".5" transform="matrix(-.8631 .50502 .47331 .8809 48.682 24.922)" fill="#D3D3D3" stroke="#D3D3D3"/><rect width="20.288" height="31.882" rx="3" transform="matrix(.48125 1.10622 -.39455 .6237 47.58 135)" fill="#D3D3D3"/><rect width="1.449" height="2.174" rx=".725" transform="matrix(.48125 1.10622 -.39455 .6237 47.91 138.929)" fill="#fff"/><rect width="1.449" height="2.174" rx=".725" transform="matrix(.48125 1.10622 -.39455 .6237 46.482 141.187)" fill="#fff"/><rect width="1.449" height="2.174" rx=".725" transform="matrix(.48125 1.10622 -.39455 .6237 45.05 143.447)" fill="#fff"/><rect width="1.449" height="2.174" rx=".725" transform="matrix(.48125 1.10622 -.39455 .6237 43.623 145.707)" fill="#fff"/><rect width="1.449" height="2.174" rx=".725" transform="matrix(.48125 1.10622 -.39455 .6237 42.191 147.967)" fill="#fff"/><rect width="1.449" height="2.174" rx=".725" transform="matrix(.48125 1.10622 -.39455 .6237 40.762 150.227)" fill="#fff"/><rect width="1.449" height="2.174" rx=".725" transform="matrix(.48125 1.10622 -.39455 .6237 39.332 152.484)" fill="#fff"/><rect width="1.449" height="2.174" rx=".725" transform="matrix(.48125 1.10622 -.39455 .6237 37.904 154.743)" fill="#fff"/><rect width="1.449" height="2.174" rx=".725" transform="matrix(.48125 1.10622 -.39455 .6237 49.305 142.134)" fill="#fff"/><rect width="1.449" height="2.174" rx=".725" transform="matrix(.48125 1.10622 -.39455 .6237 47.875 144.393)" fill="#fff"/><rect width="1.449" height="2.174" rx=".725" transform="matrix(.48125 1.10622 -.39455 .6237 46.445 146.652)" fill="#fff"/><rect width="1.449" height="2.174" rx=".725" transform="matrix(.48125 1.10622 -.39455 .6237 45.016 148.912)" fill="#fff"/><rect width="1.449" height="2.174" rx=".725" transform="matrix(.48125 1.10622 -.39455 .6237 43.586 151.173)" fill="#fff"/><rect width="1.449" height="2.174" rx=".725" transform="matrix(.48125 1.10622 -.39455 .6237 42.156 153.431)" fill="#fff"/><rect width="1.449" height="2.174" rx=".725" transform="matrix(.48125 1.10622 -.39455 .6237 40.728 155.69)" fill="#fff"/><rect width="1.449" height="2.174" rx=".725" transform="matrix(.48125 1.10622 -.39455 .6237 39.3 157.951)" fill="#fff"/><rect width="1.449" height="2.174" rx=".725" transform="matrix(.48125 1.10622 -.39455 .6237 50.7 145.341)" fill="#fff"/><rect width="1.449" height="2.174" rx=".725" transform="matrix(.48125 1.10622 -.39455 .6237 49.27 147.6)" fill="#fff"/><rect width="1.449" height="2.174" rx=".725" transform="matrix(.48125 1.10622 -.39455 .6237 47.84 149.86)" fill="#fff"/><rect width="1.449" height="2.174" rx=".725" transform="matrix(.48125 1.10622 -.39455 .6237 46.412 152.117)" fill="#fff"/><rect width="1.449" height="2.174" rx=".725" transform="matrix(.48125 1.10622 -.39455 .6237 44.982 154.378)" fill="#fff"/><rect width="1.449" height="2.174" rx=".725" transform="matrix(.48125 1.10622 -.39455 .6237 43.553 156.639)" fill="#fff"/><rect width="1.449" height="2.174" rx=".725" transform="matrix(.48125 1.10622 -.39455 .6237 42.123 158.897)" fill="#fff"/><rect width="1.449" height="2.174" rx=".725" transform="matrix(.48125 1.10622 -.39455 .6237 40.693 161.158)" fill="#fff"/><rect width="1.449" height="2.174" rx=".725" transform="matrix(.48125 1.10622 -.39455 .6237 52.096 148.546)" fill="#fff"/><rect width="1.449" height="2.174" rx=".725" transform="matrix(.48125 1.10622 -.39455 .6237 50.664 150.806)" fill="#fff"/><rect width="1.449" height="2.174" rx=".725" transform="matrix(.48125 1.10622 -.39455 .6237 49.234 153.065)" fill="#fff"/><rect width="1.449" height="2.174" rx=".725" transform="matrix(.48125 1.10622 -.39455 .6237 47.807 155.325)" fill="#fff"/><rect width="1.449" height="2.174" rx=".725" transform="matrix(.48125 1.10622 -.39455 .6237 46.377 157.585)" fill="#fff"/><rect width="1.449" height="2.174" rx=".725" transform="matrix(.48125 1.10622 -.39455 .6237 44.945 159.845)" fill="#fff"/><rect width="1.449" height="2.174" rx=".725" transform="matrix(.48125 1.10622 -.39455 .6237 43.518 162.104)" fill="#fff"/><rect width="1.449" height="2.174" rx=".725" transform="matrix(.48125 1.10622 -.39455 .6237 42.088 164.363)" fill="#fff"/><rect width="1.449" height="2.174" rx=".725" transform="matrix(.48125 1.10622 -.39455 .6237 53.488 151.752)" fill="#fff"/><rect width="1.449" height="2.174" rx=".725" transform="matrix(.48125 1.10622 -.39455 .6237 52.059 154.012)" fill="#fff"/><rect width="1.449" height="2.174" rx=".725" transform="matrix(.48125 1.10622 -.39455 .6237 50.63 156.272)" fill="#fff"/><rect width="1.449" height="2.174" rx=".725" transform="matrix(.48125 1.10622 -.39455 .6237 49.201 158.532)" fill="#fff"/><rect width="1.449" height="2.174" rx=".725" transform="matrix(.48125 1.10622 -.39455 .6237 47.772 160.79)" fill="#fff"/><rect width="1.449" height="2.174" rx=".725" transform="matrix(.48125 1.10622 -.39455 .6237 46.342 163.051)" fill="#fff"/><rect width="1.449" height="2.174" rx=".725" transform="matrix(.48125 1.10622 -.39455 .6237 44.912 165.31)" fill="#fff"/><rect width="1.449" height="2.174" rx=".725" transform="matrix(.48125 1.10622 -.39455 .6237 43.482 167.569)" fill="#fff"/><rect width="1.449" height="2.174" rx=".725" transform="matrix(.48125 1.10622 -.39455 .6237 54.885 154.959)" fill="#fff"/><rect width="1.449" height="2.174" rx=".725" transform="matrix(.48125 1.10622 -.39455 .6237 53.455 157.218)" fill="#fff"/><rect width="1.449" height="2.174" rx=".725" transform="matrix(.48125 1.10622 -.39455 .6237 52.025 159.479)" fill="#fff"/><rect width="1.449" height="2.174" rx=".725" transform="matrix(.48125 1.10622 -.39455 .6237 50.598 161.737)" fill="#fff"/><rect width="1.449" height="2.174" rx=".725" transform="matrix(.48125 1.10622 -.39455 .6237 49.166 163.997)" fill="#fff"/><rect width="1.449" height="2.174" rx=".725" transform="matrix(.48125 1.10622 -.39455 .6237 47.736 166.257)" fill="#fff"/><rect width="1.449" height="2.174" rx=".725" transform="matrix(.48125 1.10622 -.39455 .6237 46.307 168.516)" fill="#fff"/><rect width="1.449" height="2.174" rx=".725" transform="matrix(.48125 1.10622 -.39455 .6237 44.877 170.775)" fill="#fff"/><path d="M257.373 166.04a4.584 4.584 0 00-2.344-6.223c-2.429-1.047-5.319.041-6.453 2.431l-3.806 8.013 8.798 3.792 3.805-8.013z" fill="#D3D3D3"/><path d="M250.869 175.678l-18.338 37.49m12.739-39.903l-16.213 33.059" stroke="#D3D3D3"/><path d="M245.27 173.265l-3.663 7.712" stroke="#D3D3D3" stroke-width="1.5"/><rect width="11.322" height="2.561" rx="1" transform="matrix(-.91833 -.39582 -.42894 .90333 254.367 174.397)" fill="#D3D3D3"/><rect x="56.5" y="63.5" width="189" height="89" rx="44.5" stroke="#D3D3D3"/><path d="M96.5 18.5V64M194 18.5V64m86-45.5V64M96.5 152v45.5M194 152v45.5m-86-179V64m97.5-45.5V64m86-45.5V64M108 152v45.5m97.5-45.5v45.5" stroke="#D3D3D3"/><path d="M194 63.5h98" stroke="#000"/><path d="M194 18.5l98-.5M189 33.5h102.5M190 48.5h101.5" stroke="#D3D3D3"/><rect width="33.447" height="52.559" rx="3" transform="matrix(.86604 -.49997 .86604 .49997 233 76.723)" fill="#D3D3D3"/><rect width="2.389" height="3.584" rx="1" transform="scale(1.22477 .70706) rotate(-45 228.636 -181.502)" fill="#fff"/><rect width="2.389" height="3.584" rx="1" transform="scale(1.22477 .70706) rotate(-45 235.847 -184.49)" fill="#fff"/><rect width="2.389" height="3.584" rx="1" transform="scale(1.22477 .70706) rotate(-45 243.055 -187.476)" fill="#fff"/><rect width="2.389" height="3.584" rx="1" transform="scale(1.22477 .70706) rotate(-45 250.265 -190.462)" fill="#fff"/><rect width="2.389" height="3.584" rx="1" transform="scale(1.22477 .70706) rotate(-45 257.474 -193.446)" fill="#fff"/><rect width="2.389" height="3.584" rx="1" transform="scale(1.22477 .70706) rotate(-45 264.684 -196.434)" fill="#fff"/><rect width="2.389" height="3.584" rx="1" transform="scale(1.22477 .70706) rotate(-45 271.892 -199.42)" fill="#fff"/><rect width="2.389" height="3.584" rx="1" transform="scale(1.22477 .70706) rotate(-45 279.102 -202.406)" fill="#fff"/><rect width="2.389" height="3.584" rx="1" transform="scale(1.22477 .70706) rotate(-45 226.246 -187.271)" fill="#fff"/><rect width="2.389" height="3.584" rx="1" transform="scale(1.22477 .70706) rotate(-45 233.456 -190.257)" fill="#fff"/><rect width="2.389" height="3.584" rx="1" transform="scale(1.22477 .70706) rotate(-45 240.665 -193.242)" fill="#fff"/><rect width="2.389" height="3.584" rx="1" transform="scale(1.22477 .70706) rotate(-45 247.876 -196.23)" fill="#fff"/><rect width="2.389" height="3.584" rx="1" transform="scale(1.22477 .70706) rotate(-45 255.084 -199.216)" fill="#fff"/><rect width="2.389" height="3.584" rx="1" transform="scale(1.22477 .70706) rotate(-45 262.294 -202.201)" fill="#fff"/><rect width="2.389" height="3.584" rx="1" transform="scale(1.22477 .70706) rotate(-45 269.503 -205.19)" fill="#fff"/><rect width="2.389" height="3.584" rx="1" transform="scale(1.22477 .70706) rotate(-45 276.712 -208.175)" fill="#fff"/><rect width="2.389" height="3.584" rx="1" transform="scale(1.22477 .70706) rotate(-45 223.857 -193.037)" fill="#fff"/><rect width="2.389" height="3.584" rx="1" transform="scale(1.22477 .70706) rotate(-45 231.069 -196.024)" fill="#fff"/><rect width="2.389" height="3.584" rx="1" transform="scale(1.22477 .70706) rotate(-45 238.275 -199.01)" fill="#fff"/><rect width="2.389" height="3.584" rx="1" transform="matrix(.86604 -.49997 .86604 .49997 263 80.902)" fill="#fff"/><rect width="2.389" height="3.584" rx="1" transform="scale(1.22477 .70706) rotate(-45 252.696 -204.981)" fill="#fff"/><rect width="2.389" height="3.584" rx="1" transform="scale(1.22477 .70706) rotate(-45 259.907 -207.969)" fill="#fff"/><rect width="2.389" height="3.584" rx="1" transform="scale(1.22477 .70706) rotate(-45 267.113 -210.956)" fill="#fff"/><rect width="2.389" height="3.584" rx="1" transform="scale(1.22477 .70706) rotate(-45 274.325 -213.942)" fill="#fff"/><rect width="2.389" height="3.584" rx="1" transform="scale(1.22477 .70706) rotate(-45 221.468 -198.805)" fill="#fff"/><rect width="2.389" height="3.584" rx="1" transform="scale(1.22477 .70706) rotate(-45 228.679 -201.793)" fill="#fff"/><rect width="2.389" height="3.584" rx="1" transform="scale(1.22477 .70706) rotate(-45 235.886 -204.777)" fill="#fff"/><rect width="2.389" height="3.584" rx="1" transform="scale(1.22477 .70706) rotate(-45 243.097 -207.765)" fill="#fff"/><rect width="2.389" height="3.584" rx="1" transform="matrix(.86604 -.49997 .86604 .49997 272.31 81.5)" fill="#fff"/><rect width="2.389" height="3.584" rx="1" transform="scale(1.22477 .70706) rotate(-45 257.517 -213.737)" fill="#fff"/><rect width="2.389" height="3.584" rx="1" transform="scale(1.22477 .70706) rotate(-45 264.726 -216.723)" fill="#fff"/><rect width="2.389" height="3.584" rx="1" transform="scale(1.22477 .70706) rotate(-45 271.936 -219.708)" fill="#fff"/><rect width="2.389" height="3.584" rx="1" transform="scale(1.22477 .70706) rotate(-45 219.078 -204.575)" fill="#fff"/><rect width="2.389" height="3.584" rx="1" transform="scale(1.22477 .70706) rotate(-45 226.288 -207.56)" fill="#fff"/><rect width="2.389" height="3.584" rx="1" transform="scale(1.22477 .70706) rotate(-45 233.5 -210.545)" fill="#fff"/><rect width="2.389" height="3.584" rx="1" transform="scale(1.22477 .70706) rotate(-45 240.708 -213.532)" fill="#fff"/><rect width="2.389" height="3.584" rx="1" transform="scale(1.22477 .70706) rotate(-45 247.918 -216.518)" fill="#fff"/><rect width="2.389" height="3.584" rx="1" transform="scale(1.22477 .70706) rotate(-45 255.126 -219.504)" fill="#fff"/><rect width="2.389" height="3.584" rx="1" transform="scale(1.22477 .70706) rotate(-45 262.338 -222.491)" fill="#fff"/><rect width="2.389" height="3.584" rx="1" transform="scale(1.22477 .70706) rotate(-45 269.546 -225.478)" fill="#fff"/><rect width="2.389" height="3.584" rx="1" transform="scale(1.22477 .70706) rotate(-45 216.689 -210.34)" fill="#fff"/><rect width="2.389" height="3.584" rx="1" transform="scale(1.22477 .70706) rotate(-45 223.9 -213.328)" fill="#fff"/><rect width="2.389" height="3.584" rx="1" transform="scale(1.22477 .70706) rotate(-45 231.11 -216.313)" fill="#fff"/><rect width="2.389" height="3.584" rx="1" transform="scale(1.22477 .70706) rotate(-45 238.317 -219.3)" fill="#fff"/><rect width="2.389" height="3.584" rx="1" transform="scale(1.22477 .70706) rotate(-45 245.53 -222.286)" fill="#fff"/><rect width="2.389" height="3.584" rx="1" transform="scale(1.22477 .70706) rotate(-45 252.74 -225.272)" fill="#fff"/><rect width="2.389" height="3.584" rx="1" transform="scale(1.22477 .70706) rotate(-45 259.948 -228.26)" fill="#fff"/><rect width="2.389" height="3.584" rx="1" transform="scale(1.22477 .70706) rotate(-45 267.157 -231.244)" fill="#fff"/><rect x="41.5" y="48.5" width="219" height="119" rx="59.5" stroke="#D3D3D3"/><rect x="26.5" y="33.5" width="249" height="149" rx="74.5" stroke="#D3D3D3"/><path d="M194 63.5h98" stroke="#D3D3D3"/><rect x="11.5" y="18.5" width="279" height="179" rx="86" stroke="#D3D3D3"/></svg>