<svg width="257" height="165" viewBox="0 0 257 165" fill="none" xmlns="http://www.w3.org/2000/svg"><rect x="132.867" y="100.473" width="123.185" height="63.777" rx="5" fill="#D3D3D3"/><circle cx="164.318" cy="132.798" r="25.336" fill="#fff"/><path d="M140.73 6.991v10.484m15.727-10.484v10.484m15.725-10.484v10.484M144.225 6.991v10.484m15.726-10.484v10.484m15.725-10.484v10.484" stroke="#D3D3D3" stroke-linecap="round"/><rect x="1.445" y=".502" width="122.185" height="163.247" rx="4.5" stroke="#D3D3D3"/><path d="M18.418 23.59h89.55m-89.55 6.99h89.55m-89.55 6.99h89.55m-89.55 27.956h89.55m-89.55 41.936h89.55m-89.55-34.946h89.55m-89.55 41.935h89.55m-89.55-20.968h89.55m-89.55 41.936h89.55m-89.55-76.882h89.55m-89.55 41.936h89.55m-89.55-20.968h89.55m-89.55 41.935h89.55m-89.55-69.892h89.55m-89.55-6.989h89.55m-89.55 41.935h89.55m-89.55 41.936h89.55" stroke="#D3D3D3"/><rect x="132.867" y="40.19" width="98.723" height="49.798" rx="5" fill="#D3D3D3"/><rect x="235.586" y="40.69" width="19.968" height="48.798" rx="4.5" stroke="#D3D3D3"/><rect x="133.367" y=".502" width="48.798" height="22.589" rx="4.5" stroke="#D3D3D3"/><circle cx="199.265" cy="12.233" r="7.863" fill="#D3D3D3"/><circle cx="223.728" cy="12.233" r="7.863" fill="#D3D3D3"/><circle cx="248.189" cy="12.233" r="7.863" fill="#D3D3D3"/><circle cx="245.568" cy="50.674" r="4.742" stroke="#D3D3D3"/><circle cx="245.568" cy="65.526" r="4.742" stroke="#D3D3D3"/><circle cx="245.568" cy="80.379" r="4.742" stroke="#D3D3D3"/><rect x="149.467" y="8.738" width=".874" height=".874" rx=".437" fill="#D3D3D3"/><rect x="165.193" y="8.738" width=".874" height=".874" rx=".437" fill="#D3D3D3"/><rect x="149.467" y="13.98" width=".874" height=".874" rx=".437" fill="#D3D3D3"/><rect x="165.193" y="13.98" width=".874" height=".874" rx=".437" fill="#D3D3D3"/><circle cx="164.319" cy="132.797" r=".874" fill="#D3D3D3"/><path d="M164.672 109.292a.5.5 0 00-.707 0l-3.182 3.182a.5.5 0 00.707.707l2.828-2.828 2.829 2.828a.5.5 0 00.707-.707l-3.182-3.182zm.146 23.505v-23.151h-1v23.151h1z" fill="#D3D3D3"/><rect x="141.23" y="46.806" width="7.737" height="12.979" rx="2" fill="#D3D3D3" stroke="#fff"/><rect x="156.082" y="46.806" width="7.737" height="12.979" rx="2" fill="#D3D3D3" stroke="#fff"/><rect x="170.934" y="46.806" width="7.737" height="12.979" rx="2" fill="#D3D3D3" stroke="#fff"/><rect x="185.787" y="46.806" width="7.737" height="12.979" rx="2" fill="#D3D3D3" stroke="#fff"/><rect x="200.639" y="46.806" width="7.737" height="12.979" rx="2" fill="#D3D3D3" stroke="#fff"/><rect x="215.49" y="46.806" width="7.737" height="12.979" rx="2" fill="#D3D3D3" stroke="#fff"/><path fill="#fff" d="M143.352 48.927h3.495v8.737h-3.495zm14.851 0h3.495v8.737h-3.495zm14.852 0h3.495v8.737h-3.495zm14.853 0h3.495v8.737h-3.495zm14.852 0h3.495v8.737h-3.495zm14.851 0h3.495v8.737h-3.495z"/><circle cx="224.602" cy="132.798" r="25.336" fill="#fff"/><path d="M241.999 117.017a.5.5 0 00-.483-.517l-4.497-.151a.5.5 0 10-.034.999l3.998.135-.135 3.998a.5.5 0 101 .033l.151-4.497zm-17.056 16.146l16.898-15.798-.683-.73-16.898 15.798.683.73z" fill="#D3D3D3"/><circle cx="224.602" cy="132.797" r=".874" fill="#D3D3D3"/></svg>