<svg width="257" height="165" viewBox="0 0 257 165" fill="none" xmlns="http://www.w3.org/2000/svg"><rect x="132.867" y="100.922" width="123.185" height="63.777" rx="5" fill="#2871FF"/><circle cx="164.318" cy="133.247" r="25.336" fill="#fff"/><path d="M140.73 7.44v10.484M156.457 7.44v10.484M172.182 7.44v10.484M144.225 7.44v10.484M159.951 7.44v10.484M175.676 7.44v10.484" stroke="#2871FF" stroke-linecap="round"/><rect x="1.445" y=".951" width="122.185" height="163.247" rx="4.5" stroke="#2871FF"/><path d="M18.418 24.04h89.55m-89.55 6.99h89.55m-89.55 6.989h89.55m-89.55 27.957h89.55m-89.55 41.935h89.55m-89.55-34.946h89.55M18.418 114.9h89.55m-89.55-20.967h89.55m-89.55 41.935h89.55m-89.55-76.882h89.55m-89.55 41.936h89.55m-89.55-20.968h89.55m-89.55 41.936h89.55m-89.55-69.893h89.55m-89.55-6.989h89.55m-89.55 41.935h89.55m-89.55 41.936h89.55" stroke="#2871FF"/><rect x="132.867" y="40.64" width="98.723" height="49.798" rx="5" fill="#2871FF"/><rect x="235.586" y="41.14" width="19.968" height="48.798" rx="4.5" stroke="#2871FF"/><rect x="133.367" y=".951" width="48.798" height="22.589" rx="4.5" stroke="#2871FF"/><circle cx="199.265" cy="12.682" r="7.863" fill="#2871FF"/><circle cx="223.728" cy="12.682" r="7.863" fill="#2871FF"/><circle cx="248.189" cy="12.682" r="7.863" fill="#2871FF"/><circle cx="245.568" cy="51.123" r="4.742" stroke="#2871FF"/><circle cx="245.568" cy="65.975" r="4.742" stroke="#2871FF"/><circle cx="245.568" cy="80.828" r="4.742" stroke="#2871FF"/><rect x="149.467" y="9.188" width=".874" height=".874" rx=".437" fill="#2871FF"/><rect x="165.193" y="9.188" width=".874" height=".874" rx=".437" fill="#2871FF"/><rect x="149.467" y="14.43" width=".874" height=".874" rx=".437" fill="#2871FF"/><rect x="165.193" y="14.43" width=".874" height=".874" rx=".437" fill="#2871FF"/><circle cx="164.319" cy="133.247" r=".874" fill="#2871FF"/><path d="M164.672 109.741a.5.5 0 00-.707 0l-3.182 3.182a.5.5 0 00.707.707l2.828-2.828 2.829 2.828a.5.5 0 00.707-.707l-3.182-3.182zm.146 23.506v-23.152h-1v23.152h1z" fill="#2871FF"/><rect x="141.23" y="47.255" width="7.737" height="12.979" rx="2" fill="#2871FF" stroke="#fff"/><rect x="156.082" y="47.255" width="7.737" height="12.979" rx="2" fill="#2871FF" stroke="#fff"/><rect x="170.934" y="47.255" width="7.737" height="12.979" rx="2" fill="#2871FF" stroke="#fff"/><rect x="185.787" y="47.255" width="7.737" height="12.979" rx="2" fill="#2871FF" stroke="#fff"/><rect x="200.639" y="47.255" width="7.737" height="12.979" rx="2" fill="#2871FF" stroke="#fff"/><rect x="215.49" y="47.255" width="7.737" height="12.979" rx="2" fill="#2871FF" stroke="#fff"/><path fill="#fff" d="M143.352 49.376h3.495v8.737h-3.495zm14.851 0h3.495v8.737h-3.495zm14.852 0h3.495v8.737h-3.495zm14.853 0h3.495v8.737h-3.495zm14.852 0h3.495v8.737h-3.495zm14.851 0h3.495v8.737h-3.495z"/><circle cx="224.602" cy="133.247" r="25.336" fill="#fff"/><path d="M241.999 117.466a.499.499 0 00-.483-.516l-4.497-.152a.501.501 0 00-.034 1l3.998.134-.135 3.998a.5.5 0 101 .033l.151-4.497zm-17.056 16.146l16.898-15.798-.683-.73-16.898 15.798.683.73z" fill="#2871FF"/><circle cx="224.602" cy="133.247" r=".874" fill="#2871FF"/></svg>