<svg width="87" height="73" viewBox="0 0 87 73" fill="none" xmlns="http://www.w3.org/2000/svg"><path d="M86.355.383H.645v52.409h85.71V.382z" fill="#fff"/><path d="M55.665 15.803v.952h8.248c.546 0 1.374 0 1.92.548.549.546.549 1.362.549 1.914v8.187c0 .543 0 1.368-.549 1.91-.549.546-1.377.546-1.92.546H59.93c-.689 0-1.583 0-1.926-.75-.343-.75.137-1.434.549-1.98l5.361-7.09h-8.248l-3.29 4.366c-.552.732-1.031 1.365-1.031 2.182 0 .82.44 1.41 1.03 2.184l.826 1.088c.818 1.091 1.646 2.185 2.744 2.73 1.1.546 2.405.546 4.19.546h3.573c2.056 0 5.152 0 7.211-2.043 2.06-2.05 2.06-5.05 2.06-6.145v-3.275c0-1.094 0-4.095-2.06-6.141-2.059-2.047-5.155-2.047-7.21-2.047h-5.705c-.546 0-1.234 0-1.783.543-.555.548-.555 1.23-.555 1.775z" fill="#828282"/><path d="M45.78 20.04h8.24l-9.89 13.097h-8.242L45.78 20.04zm-32.141 2.313c0-.545 0-1.226.549-1.772.548-.542 1.234-.542 1.786-.542h13.804c1.783 0 3.09 0 4.187.542 1.098.549 1.923 1.64 2.75 2.728l.82 1.096c.585.775 1.03 1.366 1.03 2.182 0 .82-.475 1.456-1.03 2.185l-3.294 4.366H26l5.359-7.1c.415-.542.894-1.226.551-1.98-.345-.752-1.237-.752-1.928-.752h-6.45v16.38h-6.593v-16.38h-3.3v-.953z" fill="#828282"/><path d="M13.506 60.033h1.783v5.192h5.959v-5.192h1.783V72.44h-1.783v-5.653h-5.959v5.653h-1.783V60.033zm12.884 0h1.784v8.456l-.052 1.54h.088c.428-.85.68-1.239 1.125-1.95l4.992-8.046h1.998V72.44h-1.783v-8.455l.054-1.54h-.087c-.464.973-.75 1.347-1.126 1.95l-4.994 8.045h-1.998V60.033zm13.295 0h1.784v8.456l-.052 1.54h.088c.428-.85.68-1.239 1.125-1.95l4.992-8.046h1.998V72.44h-1.783v-8.455l.054-1.54h-.087c-.465.973-.75 1.347-1.126 1.95l-4.994 8.045h-1.998V60.033zm17.149 0h1.87l5.262 12.406h-1.944l-1.267-3.137h-6.099L53.39 72.44h-1.871l5.316-12.406zm.873 1.667l-2.478 6.15h4.959l-2.481-6.15zm16.664.406a5.075 5.075 0 00-2.569-.69c-1.103 0-2.21.338-3.05.992-.998.78-1.732 2.11-1.732 3.83 0 1.507.555 2.588 1.177 3.296.855.992 2.086 1.525 3.778 1.525.607 0 1.465-.123 2.445-.584l.106 1.7c-1.034.391-1.874.442-2.605.442-1.659 0-3.621-.337-5.083-1.826-.928-.955-1.713-2.552-1.713-4.571 0-1.293.321-3.475 2.32-5 1.286-.976 2.89-1.364 4.352-1.364 1.355 0 2.14.265 2.71.53l-.136 1.72z" fill="#fff"/></svg>