<svg width="116" height="44" viewBox="0 0 116 44" fill="none" xmlns="http://www.w3.org/2000/svg"><path d="M48.128 10H50.6c1.152 0 2.748-.228 3.732-1.62.48-.684.732-1.632.732-2.556 0-1.512-.588-2.46-1.212-3.048C52.796 1.768 51.5 1.6 50.6 1.6h-2.472V10zm1.2-7.344h1.404c1.116 0 1.824.48 2.184.828.444.444.876 1.236.876 2.436 0 1.128-.408 1.752-.6 1.992-.696.888-1.692 1.032-2.604 1.032h-1.26V2.656zm12.487 4.536v-.324c0-.78-.216-1.656-.672-2.22-.348-.432-.96-.864-2.028-.864-.936 0-1.548.36-1.92.696-.444.396-.948 1.14-.948 2.436 0 1.176.42 1.908.792 2.304.696.744 1.632.876 2.376.876 1.008 0 1.428-.216 1.764-.336l.168-.06V8.572c-.456.324-1.2.612-1.848.612-.684 0-1.212-.276-1.536-.636-.3-.324-.504-.816-.516-1.356h4.368zm-4.368-.84a2.21 2.21 0 01.384-1.044 1.478 1.478 0 011.224-.612c.648 0 1.02.312 1.212.552.216.276.36.672.348 1.104h-3.168zM62.94 9.76c.396.18.912.336 1.596.336.648 0 1.164-.132 1.596-.492.384-.324.624-.756.624-1.344 0-.384-.108-.708-.264-.948-.264-.384-.72-.6-1.104-.78l-.18-.084c-.492-.228-1.104-.444-1.104-1.032 0-.18.084-.408.348-.564.192-.108.48-.156.744-.156.228 0 .456.036.66.084.192.048.348.108.516.204l.096-.96a4.417 4.417 0 00-1.404-.24c-.684 0-1.26.204-1.62.528-.264.24-.54.66-.54 1.308 0 .204.036.48.204.744.216.324.684.648 1.092.828l.24.108c.228.108.588.3.816.48.18.144.3.288.3.552a.72.72 0 01-.228.552c-.204.192-.552.3-.9.3-.24 0-.768-.048-1.428-.42l-.06.996zm5.26.24h1.127V3.88h-1.128V10zm1.2-8.64h-1.273v1.272h1.272V1.36zm7.258 2.52h-1.08v.408h-.024c-.348-.24-.996-.504-1.728-.504-1.92 0-2.988 1.296-2.988 3.204 0 .972.264 1.764.708 2.28.504.576 1.188.828 1.968.828.456 0 1.44-.108 1.992-.936h.024v.516c0 .54-.132 1.068-.432 1.452-.396.504-.948.648-1.536.648-.888 0-1.716-.336-2.136-.552l-.12 1.044c1.068.384 1.86.42 2.196.42 1.284 0 2.004-.384 2.4-.768.66-.636.756-1.488.756-2.16V3.88zM75.53 7.84c-.276.72-.948 1.344-1.812 1.344-.504 0-.9-.204-1.176-.528-.432-.492-.504-1.152-.504-1.632 0-.816.228-1.44.564-1.812a1.54 1.54 0 011.188-.516c.552 0 1.32.228 1.74.696V7.84zM78.581 10h1.128V5.872c.288-.528 1.104-1.176 1.896-1.176 1.032 0 1.26.804 1.26 2.136V10h1.128V6.364c0-1.776-.564-2.58-2.088-2.58-.792 0-1.704.48-2.172.972h-.024V3.88h-1.128V10zm12.402-2.808v-.324c0-.78-.216-1.656-.672-2.22-.348-.432-.96-.864-2.028-.864-.936 0-1.548.36-1.92.696-.444.396-.948 1.14-.948 2.436 0 1.176.42 1.908.792 2.304.696.744 1.632.876 2.376.876 1.008 0 1.428-.216 1.764-.336l.168-.06V8.572c-.456.324-1.2.612-1.848.612-.684 0-1.212-.276-1.536-.636-.3-.324-.504-.816-.516-1.356h4.368zm-4.368-.84A2.21 2.21 0 0187 5.308a1.478 1.478 0 011.224-.612c.648 0 1.02.312 1.212.552.216.276.36.672.348 1.104h-3.168zM97.903 10V.856h-1.128v3.408h-.024c-.348-.24-.96-.48-1.68-.48-1.92 0-2.988 1.296-2.988 3.204 0 .972.264 1.764.708 2.28.504.576 1.188.828 1.968.828.456 0 1.488-.168 2.04-.972h.024V10h1.08zm-1.128-2.16c-.276.72-.948 1.344-1.812 1.344-.504 0-.9-.204-1.176-.528-.432-.492-.504-1.152-.504-1.632 0-.816.228-1.44.564-1.812a1.54 1.54 0 011.188-.516c.552 0 1.32.228 1.74.696V7.84zm5.853-6.984V10h1.08v-.384h.024c.276.204 1.056.48 1.728.48 1.92 0 2.988-1.296 2.988-3.204 0-.972-.264-1.764-.708-2.28-.504-.576-1.188-.828-1.968-.828-.456 0-1.44.108-1.992.936h-.024V.856h-1.128zm1.128 5.184c.276-.72.948-1.344 1.812-1.344.504 0 .9.204 1.176.528.432.492.504 1.152.504 1.632 0 .816-.228 1.44-.564 1.812-.24.264-.612.516-1.152.516-.588 0-1.356-.204-1.776-.672V6.04zm5.68 6.564l.06.012c.156.036.312.072.648.072.648 0 1.152-.216 1.572-.756.324-.42.564-1.044.804-1.704l2.292-6.348h-1.14l-1.644 5.028h-.024l-1.68-5.028h-1.236l2.148 5.904.144.456-.072.264c-.06.216-.216.636-.492.924a1.07 1.07 0 01-.816.348c-.132 0-.336-.036-.492-.096l-.072.924zM26.94 32.547a10.703 10.703 0 01-2.655 7.03 11.1 11.1 0 01-6.677 3.655c-2.599.4-5.257-.124-7.497-1.475a10.863 10.863 0 01-4.722-5.897 7.241 7.241 0 004.968-.547 7.028 7.028 0 003.374-3.617 6.849 6.849 0 00.114-4.9 7.01 7.01 0 00-3.202-3.764 11.234 11.234 0 018.238-.907 11.01 11.01 0 016.558 4.97c.176.296.335.601.476.914a10.564 10.564 0 011.024 4.538zm-16.302-9.514a10.916 10.916 0 00-4.98 5.487 10.644 10.644 0 00-.27 7.341 7.116 7.116 0 01-4.14-2.82 6.87 6.87 0 01-1.194-4.804 6.934 6.934 0 012.353-4.372 7.196 7.196 0 014.717-1.746 7.132 7.132 0 013.514.914zm16.707-8.22c0 .746-.302 1.461-.84 1.989a2.898 2.898 0 01-2.029.824 2.9 2.9 0 01-2.028-.824 2.785 2.785 0 01-.84-1.99 2.755 2.755 0 01.773-1.913 2.83 2.83 0 01.95-.667A2.904 2.904 0 0124.476 12c.76.001 1.49.298 2.028.825a2.79 2.79 0 01.841 1.988zm7.798 28.698l2.864-19.603h.325l8.12 16.085 8.072-16.085h.321l2.877 19.603h-1.96l-1.976-14.026-7.068 14.026h-.51l-7.149-14.125-1.987 14.125h-1.93zM76.057 29.01v14.5h-1.875v-2.49a8.148 8.148 0 01-2.683 2.145 7.631 7.631 0 01-4.558.604 7.544 7.544 0 01-4.06-2.12 7.481 7.481 0 01-1.675-2.495 7.363 7.363 0 01-.548-2.938 7.218 7.218 0 01.56-2.904A7.337 7.337 0 0162.9 30.86a7.328 7.328 0 012.47-1.668 7.45 7.45 0 012.943-.557 7.109 7.109 0 013.294.758 7.423 7.423 0 012.59 2.274v-2.653l1.86-.004zm-7.612 1.43a5.826 5.826 0 00-2.944.772 5.678 5.678 0 00-2.125 2.142 5.78 5.78 0 00-.799 2.929 5.78 5.78 0 00.799 2.928 5.792 5.792 0 002.153 2.176 5.708 5.708 0 002.9.759 6.06 6.06 0 002.958-.759 5.47 5.47 0 002.165-2.092c.51-.908.77-1.932.754-2.968a5.671 5.671 0 00-.408-2.271 5.764 5.764 0 00-1.282-1.934 5.606 5.606 0 00-1.905-1.271 5.696 5.696 0 00-2.266-.412zm9.735-4.614v-1.918h14.982v1.918h-6.45v17.685h-2.03V25.826H78.18zm35.047 8.757h-9.445v-1.918h9.364a7.044 7.044 0 00-.817-2.976 7.186 7.186 0 00-2.017-2.362 9.144 9.144 0 00-5.703-1.979c-3.008 0-5.392 1.129-7.153 3.386l-1.589-1.19a9.282 9.282 0 013.665-3.034 11.62 11.62 0 015.104-1.107 10.818 10.818 0 014.145.705 10.65 10.65 0 013.541 2.226 9.669 9.669 0 012.332 3.304 9.502 9.502 0 01.761 3.948c.032 1.359-.21 2.71-.713 3.977a10.298 10.298 0 01-2.217 3.404c-1.952 2.022-4.577 3.033-7.876 3.033-3.735 0-6.649-1.302-8.742-3.905l1.574-1.179a8.816 8.816 0 003.129 2.407 8.99 8.99 0 003.888.82 9.354 9.354 0 005.742-1.84c1.657-1.23 2.666-3.137 3.027-5.72z" fill="#fff"/></svg>