<svg width="108" height="76" viewBox="0 0 108 76" fill="none" xmlns="http://www.w3.org/2000/svg"><path d="M74.177 36.849a2 2 0 00.032 3.36l30.722 19.422c1.331.842 3.068-.115 3.068-1.69V18.276c0-1.593-1.77-2.547-3.1-1.67L74.177 36.849zM0 14.564V61.57l33.79-21.362a2 2 0 00.032-3.36L0 14.564zM101.25.875H6.75C3.382.875.71 3.386.203 6.619l46.095 30.37a14 14 0 0015.405 0l46.095-30.37c-.506-3.233-3.179-5.744-6.548-5.744zM66.497 43.32a2 2 0 00-2.169.02l-8.473 5.58a3.372 3.372 0 01-1.856.554 3.37 3.37 0 01-1.856-.553l-8.473-5.587a2 2 0 00-2.17-.02L.215 69.427c.52 3.206 3.18 5.697 6.534 5.697h94.5c3.355 0 6.014-2.49 6.534-5.697L66.497 43.32z" fill="#E3EEFF"/></svg>