<svg width="108" height="108" viewBox="0 0 108 108" fill="none" xmlns="http://www.w3.org/2000/svg"><path d="M105.06 79.261L89.989 64.19c-5.383-5.382-14.534-3.23-16.687 3.768-1.615 4.845-6.997 7.536-11.842 6.46-10.765-2.692-25.299-16.687-27.99-27.99-1.615-4.845 1.615-10.228 6.459-11.843 6.998-2.153 9.15-11.304 3.768-16.686L28.625 2.826c-4.306-3.768-10.765-3.768-14.533 0L3.865 13.053C-6.363 23.82 4.94 52.347 30.24 77.646c25.299 25.299 53.828 37.142 64.593 26.376l10.227-10.227c3.769-4.307 3.769-10.766 0-14.534z" fill="#E3EEFF"/></svg>