<svg width="108" height="108" viewBox="0 0 108 108" fill="none" xmlns="http://www.w3.org/2000/svg">
<path d="M105.06 79.2611L89.9887 64.1894C84.6059 58.8066 75.4552 60.9599 73.3021 67.9573C71.6873 72.802 66.3046 75.4934 61.4601 74.4166C50.6946 71.7253 36.1611 57.7301 33.4697 46.4263C31.8549 41.5816 35.0846 36.1988 39.929 34.5842C46.9266 32.4311 49.0797 23.2804 43.697 17.8977L28.6252 2.82595C24.319 -0.941983 17.8597 -0.941983 14.0918 2.82595L3.86456 13.0532C-6.36268 23.8187 4.94112 52.3473 30.2401 77.6463C55.539 102.945 84.0676 114.788 94.8332 104.022L105.06 93.7946C108.829 89.4884 108.829 83.029 105.06 79.2611Z" fill="#E3EEFF"/>
</svg>
