<svg width="308" height="214" viewBox="0 0 308 214" fill="none" xmlns="http://www.w3.org/2000/svg">
<path d="M274.828 182.946V186.667H271V189.063H274.828V198.333C274.828 199.468 275.034 200.919 276.345 201.928C277.31 202.685 278.793 203 280.138 203C281.103 203 282.103 202.842 283 202.559V200.036C282.345 200.414 281.621 200.604 280.931 200.604C279.862 200.604 279.207 200.194 278.828 199.815C278.172 199.153 278.069 198.333 278.069 197.734V189.063L282.931 189.063V186.667L278.069 186.667V182L274.828 182.946Z" fill="#D3D3D3"/>
<circle cx="286" cy="181" r="2" stroke="#D3D3D3" stroke-width="2"/>
<path d="M143.064 83.1487C143.162 82.817 143.364 82.5258 143.641 82.3187C143.918 82.1116 144.255 81.9998 144.6 82H157.4C157.653 82.0002 157.903 82.0606 158.128 82.1761C158.354 82.2917 158.548 82.4592 158.696 82.6648C158.845 82.8703 158.942 83.1082 158.98 83.3586C159.018 83.6091 158.996 83.8651 158.916 84.1055L153.221 101.199H165.399C165.699 101.199 165.992 101.282 166.246 101.441C166.501 101.599 166.705 101.826 166.837 102.095C166.969 102.364 167.022 102.665 166.992 102.963C166.961 103.261 166.847 103.545 166.663 103.781L144.264 132.579C144.035 132.876 143.709 133.082 143.342 133.163C142.976 133.243 142.594 133.192 142.261 133.019C141.928 132.846 141.667 132.562 141.523 132.216C141.378 131.87 141.36 131.485 141.471 131.126L147.234 112.398H136.601C136.352 112.398 136.107 112.34 135.884 112.229C135.662 112.118 135.468 111.956 135.319 111.757C135.17 111.558 135.07 111.327 135.025 111.082C134.981 110.837 134.995 110.586 135.065 110.347L143.064 83.1487Z" fill="#D3D3D3"/>
<path d="M21.4958 108.248L19.2479 107.927M20.2113 117.561L21.4958 115.313L20.2113 117.561ZM26.6338 106L25.3493 108.248L26.6338 106ZM23.4225 111.78L21.4958 115.313L23.4225 111.78ZM23.4225 111.78L25.3493 115.313L23.4225 111.78ZM23.4225 111.78L18.9268 111.78L23.4225 111.78ZM23.4225 111.78L27.5972 111.78L23.4225 111.78ZM23.4225 111.78L25.3493 108.248L23.4225 111.78ZM23.4225 111.78L21.4958 108.248L23.4225 111.78ZM17 111.78L18.9268 111.78L17 111.78ZM29.8451 111.78L27.5972 111.78L29.8451 111.78ZM20.2113 106L21.4958 108.248L20.2113 106ZM26.6338 117.561L25.3493 115.313L26.6338 117.561ZM21.4958 115.313L22.138 117.561L21.4958 115.313ZM21.4958 115.313L19.2479 115.634L21.4958 115.313ZM25.3493 115.313L24.707 117.561L25.3493 115.313ZM25.3493 115.313L27.5972 115.634L25.3493 115.313ZM18.9268 111.78L18.2845 113.386L18.9268 111.78ZM18.9268 111.78L18.2845 110.175L18.9268 111.78ZM27.5972 111.78L28.5605 110.175L27.5972 111.78ZM27.5972 111.78L28.5605 113.386L27.5972 111.78ZM25.3493 108.248L27.5972 107.927L25.3493 108.248ZM25.3493 108.248L24.707 106L25.3493 108.248ZM21.4958 108.248L22.138 106L21.4958 108.248Z" stroke="#D3D3D3" stroke-width="1.5" stroke-linecap="round" stroke-linejoin="round"/>
<path d="M180.829 54.4146L177.415 53.9268M178.878 68.5605L180.829 65.146L178.878 68.5605ZM188.634 51L186.683 54.4146L188.634 51ZM183.756 59.7803L180.829 65.146L183.756 59.7803ZM183.756 59.7803L186.683 65.146L183.756 59.7803ZM183.756 59.7803L176.927 59.7803L183.756 59.7803ZM183.756 59.7803L190.097 59.7803L183.756 59.7803ZM183.756 59.7803L186.683 54.4146L183.756 59.7803ZM183.756 59.7803L180.829 54.4146L183.756 59.7803ZM174 59.7803L176.927 59.7803L174 59.7803ZM193.512 59.7803L190.097 59.7803L193.512 59.7803ZM178.878 51L180.829 54.4146L178.878 51ZM188.634 68.5605L186.683 65.146L188.634 68.5605ZM180.829 65.146L181.805 68.5605L180.829 65.146ZM180.829 65.146L177.415 65.6338L180.829 65.146ZM186.683 65.146L185.707 68.5605L186.683 65.146ZM186.683 65.146L190.097 65.6338L186.683 65.146ZM176.927 59.7803L175.951 62.2192L176.927 59.7803ZM176.927 59.7803L175.951 57.3413L176.927 59.7803ZM190.097 59.7803L191.561 57.3413L190.097 59.7803ZM190.097 59.7803L191.561 62.2192L190.097 59.7803ZM186.683 54.4146L190.097 53.9268L186.683 54.4146ZM186.683 54.4146L185.707 51L186.683 54.4146ZM180.829 54.4146L181.805 51L180.829 54.4146Z" stroke="#D3D3D3" stroke-width="1.5" stroke-linecap="round" stroke-linejoin="round"/>
<path d="M161.8 35.352L160.4 35.1589M161 40.9531L161.8 39.6011L161 40.9531ZM165 34L164.2 35.352L165 34ZM163 37.4766L161.8 39.6011L163 37.4766ZM163 37.4766L164.2 39.6011L163 37.4766ZM163 37.4766L160.2 37.4766L163 37.4766ZM163 37.4766L165.6 37.4766L163 37.4766ZM163 37.4766L164.2 35.352L163 37.4766ZM163 37.4766L161.8 35.352L163 37.4766ZM159 37.4766L160.2 37.4766L159 37.4766ZM167 37.4766L165.6 37.4766L167 37.4766ZM161 34L161.8 35.352L161 34ZM165 40.9531L164.2 39.6011L165 40.9531ZM161.8 39.6011L162.2 40.9531L161.8 39.6011ZM161.8 39.6011L160.4 39.7943L161.8 39.6011ZM164.2 39.6011L163.8 40.9531L164.2 39.6011ZM164.2 39.6011L165.6 39.7943L164.2 39.6011ZM160.2 37.4766L159.8 38.4423L160.2 37.4766ZM160.2 37.4766L159.8 36.5108L160.2 37.4766ZM165.6 37.4766L166.2 36.5108L165.6 37.4766ZM165.6 37.4766L166.2 38.4423L165.6 37.4766ZM164.2 35.352L165.6 35.1589L164.2 35.352ZM164.2 35.352L163.8 34L164.2 35.352ZM161.8 35.352L162.2 34L161.8 35.352Z" stroke="#D3D3D3" stroke-linecap="round" stroke-linejoin="round"/>
<path d="M40.4116 12.2557C38.4511 8.60694 33.9635 7.34479 30.3884 9.43664L30.0911 9.61061C26.516 11.7025 25.2071 16.3562 27.1676 20.005L34.1761 33.0486L47.42 25.2994L40.4116 12.2557Z" fill="#D3D3D3" stroke="#D3D3D3"/>
<path d="M47.5938 30.8418L80.5653 93.9522" stroke="#D3D3D3"/>
<path d="M38.6152 36.0938L67.648 91.8022" stroke="#D3D3D3"/>
<path d="M47.2617 30.4258L54.1382 43.7992" stroke="#D3D3D3" stroke-width="2"/>
<rect x="-0.194898" y="0.692956" width="18.3162" height="3.37011" rx="0.5" transform="matrix(-0.863109 0.505018 0.473312 0.880895 48.6819 24.9222)" fill="#D3D3D3" stroke="#D3D3D3"/>
<rect width="20.2883" height="31.8817" rx="3" transform="matrix(0.481255 1.10622 -0.394555 0.623698 47.5801 135)" fill="#D3D3D3"/>
<rect width="1.44917" height="2.17375" rx="0.724583" transform="matrix(0.481255 1.10622 -0.394555 0.623698 47.9102 138.929)" fill="white"/>
<rect width="1.44917" height="2.17375" rx="0.724583" transform="matrix(0.481255 1.10622 -0.394555 0.623698 46.4824 141.187)" fill="white"/>
<rect width="1.44917" height="2.17375" rx="0.724583" transform="matrix(0.481255 1.10622 -0.394555 0.623698 45.0508 143.447)" fill="white"/>
<rect width="1.44917" height="2.17375" rx="0.724583" transform="matrix(0.481255 1.10622 -0.394555 0.623698 43.623 145.707)" fill="white"/>
<rect width="1.44917" height="2.17375" rx="0.724583" transform="matrix(0.481255 1.10622 -0.394555 0.623698 42.1914 147.967)" fill="white"/>
<rect width="1.44917" height="2.17375" rx="0.724583" transform="matrix(0.481255 1.10622 -0.394555 0.623698 40.7617 150.227)" fill="white"/>
<rect width="1.44917" height="2.17375" rx="0.724583" transform="matrix(0.481255 1.10622 -0.394555 0.623698 39.332 152.484)" fill="white"/>
<rect width="1.44917" height="2.17375" rx="0.724583" transform="matrix(0.481255 1.10622 -0.394555 0.623698 37.9043 154.743)" fill="white"/>
<rect width="1.44917" height="2.17375" rx="0.724583" transform="matrix(0.481255 1.10622 -0.394555 0.623698 49.3047 142.134)" fill="white"/>
<rect width="1.44917" height="2.17375" rx="0.724583" transform="matrix(0.481255 1.10622 -0.394555 0.623698 47.875 144.393)" fill="white"/>
<rect width="1.44917" height="2.17375" rx="0.724583" transform="matrix(0.481255 1.10622 -0.394555 0.623698 46.4453 146.652)" fill="white"/>
<rect width="1.44917" height="2.17375" rx="0.724583" transform="matrix(0.481255 1.10622 -0.394555 0.623698 45.0156 148.912)" fill="white"/>
<rect width="1.44917" height="2.17375" rx="0.724583" transform="matrix(0.481255 1.10622 -0.394555 0.623698 43.5859 151.173)" fill="white"/>
<rect width="1.44917" height="2.17375" rx="0.724583" transform="matrix(0.481255 1.10622 -0.394555 0.623698 42.1562 153.431)" fill="white"/>
<rect width="1.44917" height="2.17375" rx="0.724583" transform="matrix(0.481255 1.10622 -0.394555 0.623698 40.7285 155.69)" fill="white"/>
<rect width="1.44917" height="2.17375" rx="0.724583" transform="matrix(0.481255 1.10622 -0.394555 0.623698 39.3008 157.951)" fill="white"/>
<rect width="1.44917" height="2.17375" rx="0.724583" transform="matrix(0.481255 1.10622 -0.394555 0.623698 50.6992 145.341)" fill="white"/>
<rect width="1.44917" height="2.17375" rx="0.724583" transform="matrix(0.481255 1.10622 -0.394555 0.623698 49.2695 147.6)" fill="white"/>
<rect width="1.44917" height="2.17375" rx="0.724583" transform="matrix(0.481255 1.10622 -0.394555 0.623698 47.8398 149.86)" fill="white"/>
<rect width="1.44917" height="2.17375" rx="0.724583" transform="matrix(0.481255 1.10622 -0.394555 0.623698 46.4121 152.117)" fill="white"/>
<rect width="1.44917" height="2.17375" rx="0.724583" transform="matrix(0.481255 1.10622 -0.394555 0.623698 44.9824 154.378)" fill="white"/>
<rect width="1.44917" height="2.17375" rx="0.724583" transform="matrix(0.481255 1.10622 -0.394555 0.623698 43.5527 156.639)" fill="white"/>
<rect width="1.44917" height="2.17375" rx="0.724583" transform="matrix(0.481255 1.10622 -0.394555 0.623698 42.123 158.897)" fill="white"/>
<rect width="1.44917" height="2.17375" rx="0.724583" transform="matrix(0.481255 1.10622 -0.394555 0.623698 40.6934 161.158)" fill="white"/>
<rect width="1.44917" height="2.17375" rx="0.724583" transform="matrix(0.481255 1.10622 -0.394555 0.623698 52.0957 148.546)" fill="white"/>
<rect width="1.44917" height="2.17375" rx="0.724583" transform="matrix(0.481255 1.10622 -0.394555 0.623698 50.6641 150.806)" fill="white"/>
<rect width="1.44917" height="2.17375" rx="0.724583" transform="matrix(0.481255 1.10622 -0.394555 0.623698 49.2344 153.065)" fill="white"/>
<rect width="1.44917" height="2.17375" rx="0.724583" transform="matrix(0.481255 1.10622 -0.394555 0.623698 47.8066 155.325)" fill="white"/>
<rect width="1.44917" height="2.17375" rx="0.724583" transform="matrix(0.481255 1.10622 -0.394555 0.623698 46.377 157.585)" fill="white"/>
<rect width="1.44917" height="2.17375" rx="0.724583" transform="matrix(0.481255 1.10622 -0.394555 0.623698 44.9453 159.845)" fill="white"/>
<rect width="1.44917" height="2.17375" rx="0.724583" transform="matrix(0.481255 1.10622 -0.394555 0.623698 43.5176 162.104)" fill="white"/>
<rect width="1.44917" height="2.17375" rx="0.724583" transform="matrix(0.481255 1.10622 -0.394555 0.623698 42.0879 164.363)" fill="white"/>
<rect width="1.44917" height="2.17375" rx="0.724583" transform="matrix(0.481255 1.10622 -0.394555 0.623698 53.4883 151.752)" fill="white"/>
<rect width="1.44917" height="2.17375" rx="0.724583" transform="matrix(0.481255 1.10622 -0.394555 0.623698 52.0586 154.012)" fill="white"/>
<rect width="1.44917" height="2.17375" rx="0.724583" transform="matrix(0.481255 1.10622 -0.394555 0.623698 50.6309 156.272)" fill="white"/>
<rect width="1.44917" height="2.17375" rx="0.724583" transform="matrix(0.481255 1.10622 -0.394555 0.623698 49.2012 158.532)" fill="white"/>
<rect width="1.44917" height="2.17375" rx="0.724583" transform="matrix(0.481255 1.10622 -0.394555 0.623698 47.7715 160.79)" fill="white"/>
<rect width="1.44917" height="2.17375" rx="0.724583" transform="matrix(0.481255 1.10622 -0.394555 0.623698 46.3418 163.051)" fill="white"/>
<rect width="1.44917" height="2.17375" rx="0.724583" transform="matrix(0.481255 1.10622 -0.394555 0.623698 44.9121 165.31)" fill="white"/>
<rect width="1.44917" height="2.17375" rx="0.724583" transform="matrix(0.481255 1.10622 -0.394555 0.623698 43.4824 167.569)" fill="white"/>
<rect width="1.44917" height="2.17375" rx="0.724583" transform="matrix(0.481255 1.10622 -0.394555 0.623698 54.8848 154.959)" fill="white"/>
<rect width="1.44917" height="2.17375" rx="0.724583" transform="matrix(0.481255 1.10622 -0.394555 0.623698 53.4551 157.218)" fill="white"/>
<rect width="1.44917" height="2.17375" rx="0.724583" transform="matrix(0.481255 1.10622 -0.394555 0.623698 52.0254 159.479)" fill="white"/>
<rect width="1.44917" height="2.17375" rx="0.724583" transform="matrix(0.481255 1.10622 -0.394555 0.623698 50.5977 161.737)" fill="white"/>
<rect width="1.44917" height="2.17375" rx="0.724583" transform="matrix(0.481255 1.10622 -0.394555 0.623698 49.166 163.997)" fill="white"/>
<rect width="1.44917" height="2.17375" rx="0.724583" transform="matrix(0.481255 1.10622 -0.394555 0.623698 47.7363 166.257)" fill="white"/>
<rect width="1.44917" height="2.17375" rx="0.724583" transform="matrix(0.481255 1.10622 -0.394555 0.623698 46.3066 168.516)" fill="white"/>
<rect width="1.44917" height="2.17375" rx="0.724583" transform="matrix(0.481255 1.10622 -0.394555 0.623698 44.877 170.775)" fill="white"/>
<path d="M257.373 166.04C258.508 163.65 257.458 160.864 255.029 159.817C252.6 158.77 249.71 159.858 248.576 162.248L244.77 170.261L253.568 174.053L257.373 166.04Z" fill="#D3D3D3"/>
<path d="M250.869 175.678L232.531 213.168" stroke="#D3D3D3"/>
<path d="M245.27 173.265L229.057 206.324" stroke="#D3D3D3"/>
<path d="M245.27 173.265L241.607 180.977" stroke="#D3D3D3" stroke-width="1.5"/>
<rect width="11.3218" height="2.56145" rx="1" transform="matrix(-0.918328 -0.39582 -0.428937 0.903335 254.367 174.397)" fill="#D3D3D3"/>
<rect x="56.5" y="63.5" width="189" height="89" rx="44.5" stroke="#D3D3D3"/>
<path d="M96.5 18.5V64" stroke="#D3D3D3"/>
<path d="M194 18.5V64" stroke="#D3D3D3"/>
<path d="M280 18.5V64" stroke="#D3D3D3"/>
<path d="M96.5 152V197.5" stroke="#D3D3D3"/>
<path d="M194 152V197.5" stroke="#D3D3D3"/>
<path d="M108 18.5V64" stroke="#D3D3D3"/>
<path d="M205.5 18.5V64" stroke="#D3D3D3"/>
<path d="M291.5 18.5V64" stroke="#D3D3D3"/>
<path d="M108 152V197.5" stroke="#D3D3D3"/>
<path d="M205.5 152V197.5" stroke="#D3D3D3"/>
<path d="M194 63.5H286H292" stroke="black"/>
<path d="M194 18.5L292 18" stroke="#D3D3D3"/>
<path d="M189 33.5H291.5" stroke="#D3D3D3"/>
<path d="M190 48.5H291.5" stroke="#D3D3D3"/>
<rect width="33.4466" height="52.559" rx="3" transform="matrix(0.866044 -0.499967 0.866044 0.499967 233 76.7227)" fill="#D3D3D3"/>
<rect width="2.38905" height="3.58357" rx="1" transform="matrix(0.866044 -0.499967 0.866044 0.499967 239.207 76.7227)" fill="white"/>
<rect width="2.38905" height="3.58357" rx="1" transform="matrix(0.866044 -0.499967 0.866044 0.499967 244.381 79.709)" fill="white"/>
<rect width="2.38905" height="3.58357" rx="1" transform="matrix(0.866044 -0.499967 0.866044 0.499967 249.553 82.6943)" fill="white"/>
<rect width="2.38905" height="3.58357" rx="1" transform="matrix(0.866044 -0.499967 0.866044 0.499967 254.725 85.6807)" fill="white"/>
<rect width="2.38905" height="3.58357" rx="1" transform="matrix(0.866044 -0.499967 0.866044 0.499967 259.896 88.667)" fill="white"/>
<rect width="2.38905" height="3.58357" rx="1" transform="matrix(0.866044 -0.499967 0.866044 0.499967 265.07 91.6533)" fill="white"/>
<rect width="2.38905" height="3.58357" rx="1" transform="matrix(0.866044 -0.499967 0.866044 0.499967 270.242 94.6387)" fill="white"/>
<rect width="2.38905" height="3.58357" rx="1" transform="matrix(0.866044 -0.499967 0.866044 0.499967 275.414 97.625)" fill="white"/>
<rect width="2.38905" height="3.58357" rx="1" transform="matrix(0.866044 -0.499967 0.866044 0.499967 243.346 74.333)" fill="white"/>
<rect width="2.38905" height="3.58357" rx="1" transform="matrix(0.866044 -0.499967 0.866044 0.499967 248.518 77.3193)" fill="white"/>
<rect width="2.38905" height="3.58357" rx="1" transform="matrix(0.866044 -0.499967 0.866044 0.499967 253.689 80.3057)" fill="white"/>
<rect width="2.38905" height="3.58357" rx="1" transform="matrix(0.866044 -0.499967 0.866044 0.499967 258.863 83.292)" fill="white"/>
<rect width="2.38905" height="3.58357" rx="1" transform="matrix(0.866044 -0.499967 0.866044 0.499967 264.035 86.2773)" fill="white"/>
<rect width="2.38905" height="3.58357" rx="1" transform="matrix(0.866044 -0.499967 0.866044 0.499967 269.207 89.2637)" fill="white"/>
<rect width="2.38905" height="3.58357" rx="1" transform="matrix(0.866044 -0.499967 0.866044 0.499967 274.381 92.25)" fill="white"/>
<rect width="2.38905" height="3.58357" rx="1" transform="matrix(0.866044 -0.499967 0.866044 0.499967 279.553 95.2354)" fill="white"/>
<rect width="2.38905" height="3.58357" rx="1" transform="matrix(0.866044 -0.499967 0.866044 0.499967 247.482 71.9443)" fill="white"/>
<rect width="2.38905" height="3.58357" rx="1" transform="matrix(0.866044 -0.499967 0.866044 0.499967 252.656 74.9316)" fill="white"/>
<rect width="2.38905" height="3.58357" rx="1" transform="matrix(0.866044 -0.499967 0.866044 0.499967 257.828 77.916)" fill="white"/>
<rect width="2.38905" height="3.58357" rx="1" transform="matrix(0.866044 -0.499967 0.866044 0.499967 263 80.9023)" fill="white"/>
<rect width="2.38905" height="3.58357" rx="1" transform="matrix(0.866044 -0.499967 0.866044 0.499967 268.172 83.8896)" fill="white"/>
<rect width="2.38905" height="3.58357" rx="1" transform="matrix(0.866044 -0.499967 0.866044 0.499967 273.346 86.876)" fill="white"/>
<rect width="2.38905" height="3.58357" rx="1" transform="matrix(0.866044 -0.499967 0.866044 0.499967 278.518 89.8604)" fill="white"/>
<rect width="2.38905" height="3.58357" rx="1" transform="matrix(0.866044 -0.499967 0.866044 0.499967 283.691 92.8477)" fill="white"/>
<rect width="2.38905" height="3.58357" rx="1" transform="matrix(0.866044 -0.499967 0.866044 0.499967 251.621 69.5557)" fill="white"/>
<rect width="2.38905" height="3.58357" rx="1" transform="matrix(0.866044 -0.499967 0.866044 0.499967 256.795 72.542)" fill="white"/>
<rect width="2.38905" height="3.58357" rx="1" transform="matrix(0.866044 -0.499967 0.866044 0.499967 261.965 75.5273)" fill="white"/>
<rect width="2.38905" height="3.58357" rx="1" transform="matrix(0.866044 -0.499967 0.866044 0.499967 267.139 78.5137)" fill="white"/>
<rect width="2.38905" height="3.58357" rx="1" transform="matrix(0.866044 -0.499967 0.866044 0.499967 272.311 81.5)" fill="white"/>
<rect width="2.38905" height="3.58357" rx="1" transform="matrix(0.866044 -0.499967 0.866044 0.499967 277.484 84.4863)" fill="white"/>
<rect width="2.38905" height="3.58357" rx="1" transform="matrix(0.866044 -0.499967 0.866044 0.499967 282.656 87.4727)" fill="white"/>
<rect width="2.38905" height="3.58357" rx="1" transform="matrix(0.866044 -0.499967 0.866044 0.499967 287.828 90.459)" fill="white"/>
<rect width="2.38905" height="3.58357" rx="1" transform="matrix(0.866044 -0.499967 0.866044 0.499967 255.76 67.166)" fill="white"/>
<rect width="2.38905" height="3.58357" rx="1" transform="matrix(0.866044 -0.499967 0.866044 0.499967 260.932 70.1523)" fill="white"/>
<rect width="2.38905" height="3.58357" rx="1" transform="matrix(0.866044 -0.499967 0.866044 0.499967 266.104 73.1396)" fill="white"/>
<rect width="2.38905" height="3.58357" rx="1" transform="matrix(0.866044 -0.499967 0.866044 0.499967 271.277 76.125)" fill="white"/>
<rect width="2.38905" height="3.58357" rx="1" transform="matrix(0.866044 -0.499967 0.866044 0.499967 276.449 79.1113)" fill="white"/>
<rect width="2.38905" height="3.58357" rx="1" transform="matrix(0.866044 -0.499967 0.866044 0.499967 281.621 82.0967)" fill="white"/>
<rect width="2.38905" height="3.58357" rx="1" transform="matrix(0.866044 -0.499967 0.866044 0.499967 286.795 85.084)" fill="white"/>
<rect width="2.38905" height="3.58357" rx="1" transform="matrix(0.866044 -0.499967 0.866044 0.499967 291.967 88.0693)" fill="white"/>
<rect width="2.38905" height="3.58357" rx="1" transform="matrix(0.866044 -0.499967 0.866044 0.499967 259.896 64.7773)" fill="white"/>
<rect width="2.38905" height="3.58357" rx="1" transform="matrix(0.866044 -0.499967 0.866044 0.499967 265.07 67.7637)" fill="white"/>
<rect width="2.38905" height="3.58357" rx="1" transform="matrix(0.866044 -0.499967 0.866044 0.499967 270.242 70.75)" fill="white"/>
<rect width="2.38905" height="3.58357" rx="1" transform="matrix(0.866044 -0.499967 0.866044 0.499967 275.414 73.7354)" fill="white"/>
<rect width="2.38905" height="3.58357" rx="1" transform="matrix(0.866044 -0.499967 0.866044 0.499967 280.588 76.7227)" fill="white"/>
<rect width="2.38905" height="3.58357" rx="1" transform="matrix(0.866044 -0.499967 0.866044 0.499967 285.76 79.709)" fill="white"/>
<rect width="2.38905" height="3.58357" rx="1" transform="matrix(0.866044 -0.499967 0.866044 0.499967 290.934 82.6943)" fill="white"/>
<rect width="2.38905" height="3.58357" rx="1" transform="matrix(0.866044 -0.499967 0.866044 0.499967 296.104 85.6807)" fill="white"/>
<rect x="41.5" y="48.5" width="219" height="119" rx="59.5" stroke="#D3D3D3"/>
<rect x="26.5" y="33.5" width="249" height="149" rx="74.5" stroke="#D3D3D3"/>
<path d="M194 63.5H286H292" stroke="#D3D3D3"/>
<rect x="11.5" y="18.5" width="279" height="179" rx="86" stroke="#D3D3D3"/>
</svg>
